<?xml version="1.0" encoding="UTF-8"?>
<svg width="16px" height="16px" viewBox="0 0 16 16" version="1.1" xmlns="http://www.w3.org/2000/svg" xmlns:xlink="http://www.w3.org/1999/xlink">
    <!-- Generator: Sketch 52.2 (67145) - http://www.bohemiancoding.com/sketch -->
    <title>Combined Shape</title>
    <desc>Created with Sketch.</desc>
    <g id="App" stroke="none" stroke-width="1" fill="none" fill-rule="evenodd" opacity="0.5">
        <g id="Program-Settings" transform="translate(-1174.000000, -370.000000)" fill="#FFFFFF">
            <path d="M1181.2,377.2 L1181.2,374.796318 C1181.2,374.356524 1181.55509,374 1182,374 C1182.44183,374 1182.8,374.359285 1182.8,374.796318 L1182.8,377.2 L1185.20368,377.2 C1185.64348,377.2 1186,377.555092 1186,378 C1186,378.441828 1185.64072,378.8 1185.20368,378.8 L1182.8,378.8 L1182.8,381.203682 C1182.8,381.643476 1182.44491,382 1182,382 C1181.55817,382 1181.2,381.640715 1181.2,381.203682 L1181.2,378.8 L1178.79632,378.8 C1178.35652,378.8 1178,378.444908 1178,378 C1178,377.558172 1178.35928,377.2 1178.79632,377.2 L1181.2,377.2 Z M1182,386 C1177.58172,386 1174,382.418278 1174,378 C1174,373.581722 1177.58172,370 1182,370 C1186.41828,370 1190,373.581722 1190,378 C1190,382.418278 1186.41828,386 1182,386 Z M1182,384.4 C1185.53462,384.4 1188.4,381.534622 1188.4,378 C1188.4,374.465378 1185.53462,371.6 1182,371.6 C1178.46538,371.6 1175.6,374.465378 1175.6,378 C1175.6,381.534622 1178.46538,384.4 1182,384.4 Z" id="Combined-Shape"></path>
        </g>
    </g>
</svg>