<svg width="98" height="25" viewBox="0 0 98 25" fill="none" xmlns="http://www.w3.org/2000/svg">
<path d="M7.25741 20.0705C9.25297 20.0705 10.9573 19.3802 12.1115 18.1936L9.58736 16.0039C9.04802 16.705 8.19586 17.1257 7.23584 17.1257C5.57467 17.1257 4.26947 15.95 4.26947 14.1378C4.26947 12.3364 5.58546 11.1606 7.23584 11.1606C8.18507 11.1606 9.03723 11.5705 9.58736 12.2824L12.1007 10.0927C10.9573 8.90618 9.25297 8.21582 7.25741 8.21582C3.44967 8.21582 0.742188 10.6536 0.742188 14.1378C0.742188 17.6327 3.44967 20.0705 7.25741 20.0705Z" fill="white"/>
<path d="M19.5328 20.0705C23.2866 20.0705 26.0049 17.6327 26.0049 14.1378C26.0049 10.6536 23.2866 8.21582 19.5328 8.21582C15.725 8.21582 13.0176 10.6536 13.0176 14.1378C13.0176 17.6327 15.725 20.0705 19.5328 20.0705ZM19.5112 17.1257C17.8608 17.1257 16.5448 15.95 16.5448 14.1378C16.5448 12.3364 17.8608 11.1606 19.5112 11.1606C21.1508 11.1606 22.4884 12.3795 22.4884 14.1378C22.4884 15.9176 21.1508 17.1257 19.5112 17.1257Z" fill="white"/>
<path d="M41.3113 8.21582C39.909 8.21582 38.7333 8.71201 37.838 9.51024C37.2015 8.63651 36.1229 8.21582 34.699 8.21582C33.437 8.21582 32.3799 8.69044 31.5816 9.4563V8.43156H28.0651V19.8548H31.5816V13.0699C31.5816 11.9157 32.1965 11.0527 33.3399 11.0527C34.3646 11.0527 35.001 11.7323 35.001 12.8649V19.8548H38.5175V13.0699C38.5175 11.9157 39.1108 11.0527 40.2758 11.0527C41.279 11.0527 41.937 11.7323 41.937 12.8649V19.8548H45.4642V11.9912C45.4642 9.52102 43.9541 8.21582 41.3113 8.21582Z" fill="white"/>
<path d="M54.9458 8.21582C53.5975 8.21582 52.3678 8.64729 51.4509 9.46709V8.43156H47.9236V25.0001H51.4509V18.8192C52.3678 19.6282 53.5975 20.0705 54.9458 20.0705C58.225 20.0705 60.7383 17.514 60.7383 14.1486C60.7383 10.7939 58.225 8.21582 54.9458 8.21582ZM54.2447 11.1606C55.8951 11.1606 57.211 12.3364 57.211 14.1486C57.211 15.95 55.8951 17.1257 54.2447 17.1257C52.6051 17.1257 51.2675 15.9068 51.2675 14.1486C51.2675 12.3687 52.6051 11.1606 54.2447 11.1606Z" fill="white"/>
<path d="M68.7853 20.0705C72.5391 20.0705 75.2574 17.6327 75.2574 14.1378C75.2574 10.6536 72.5391 8.21582 68.7853 8.21582C64.9775 8.21582 62.2701 10.6536 62.2701 14.1378C62.2701 17.6327 64.9775 20.0705 68.7853 20.0705ZM68.7637 17.1257C67.1133 17.1257 65.7973 15.95 65.7973 14.1378C65.7973 12.3364 67.1133 11.1606 68.7637 11.1606C70.4033 11.1606 71.7409 12.3795 71.7409 14.1378C71.7409 15.9176 70.4033 17.1257 68.7637 17.1257Z" fill="white"/>
<path d="M91.0489 20L85.9401 6.03068H84.7228L79.614 20H80.8912L81.9688 17.0265H88.714L89.7717 20H91.0489ZM85.3214 7.68704H85.3614L88.3149 15.9489H82.348L85.3214 7.68704ZM94.1821 20V6.03068H92.9648V20H94.1821Z" fill="white"/>
<path d="M91.0489 20L85.9401 6.03068H84.7228L79.614 20H80.8912L81.9688 17.0265H88.714L89.7717 20H91.0489ZM85.3214 7.68704H85.3614L88.3149 15.9489H82.348L85.3214 7.68704ZM94.1821 20V6.03068H92.9648V20H94.1821Z" fill="url(#paint0_linear_139_4052)"/>
<defs>
<linearGradient id="paint0_linear_139_4052" x1="81.2277" y1="9.6698" x2="96.4109" y2="9.8285" gradientUnits="userSpaceOnUse">
<stop stop-color="#9FC0ED"/>
<stop offset="1" stop-color="#CEB4D8"/>
</linearGradient>
</defs>
</svg>
