<svg width="96" height="96" viewBox="0 0 96 96" fill="none" xmlns="http://www.w3.org/2000/svg">
<g clip-path="url(#clip0_1029_27)">
<path d="M96 48.0001C96.0007 39.6828 93.8402 31.508 89.7302 24.2771C85.6202 17.0462 79.7019 11.0074 72.5553 6.75247C65.4087 2.4976 57.2792 0.172731 48.9636 0.00576813C40.6479 -0.161195 32.4316 1.83548 25.12 5.80006V5.80006C17.549 9.95356 11.2271 16.057 6.81007 23.4774C2.39304 30.8977 0.0417155 39.3647 0 48.0001C0.0145484 59.0534 3.84344 69.763 10.84 78.3201V78.3201C17.1048 85.9822 25.585 91.5205 35.1193 94.1764C44.6536 96.8324 54.7758 96.4761 64.0998 93.1564C73.4238 89.8368 81.4936 83.716 87.2042 75.6323C92.9148 67.5487 95.987 57.8974 96 48.0001V48.0001ZM80.28 24.4801C85.0034 30.9176 87.6921 38.6215 88 46.6001C84.48 46.2401 80.72 46.0401 77.52 46.0401C71.9265 46.0624 66.3455 46.571 60.84 47.5601C59.76 44.8001 58.6 42.0801 57.28 39.5601C65.6448 35.6887 73.3945 30.6076 80.28 24.4801V24.4801ZM74.96 18.5601C68.4528 24.2244 61.148 28.9011 53.28 32.4401C48.2041 24.179 41.906 16.7345 34.6 10.3601C38.8947 8.7975 43.4298 7.99878 48 8.00006C57.9975 7.99068 67.6285 11.7631 74.96 18.5601V18.5601ZM26.72 14.2001C34.1474 20.204 40.5624 27.3618 45.72 35.4001C36.5966 38.478 27.0285 40.0321 17.4 40.0001C14.56 40.0001 11.72 40.0001 8.88 39.5601C10.0162 34.3584 12.1794 29.4359 15.2428 25.0811C18.3062 20.7264 22.2082 17.0271 26.72 14.2001V14.2001ZM8 47.6801C11.12 47.9601 14.28 48.1601 17.4 48.1601C28.4329 48.1403 39.3799 46.2188 49.76 42.4801C50.88 44.7201 51.92 47.0001 52.84 49.3201C38.6482 53.0841 25.5194 60.0798 14.48 69.7601C10.2039 63.1937 7.95064 55.5159 8 47.6801V47.6801ZM19.48 76.0001C29.7983 66.8683 42.1363 60.3155 55.48 56.8801C57.9671 65.1725 59.2337 73.7827 59.24 82.4401C59.24 83.7601 59.24 85.0801 59.24 86.4401C55.5834 87.477 51.8008 88.002 48 88.0001C42.6875 87.994 37.4294 86.9297 32.5327 84.8694C27.636 82.8091 23.1988 79.794 19.48 76.0001V76.0001ZM67.48 83.0401C67.48 82.8401 67.48 82.6401 67.48 82.4401C67.4367 73.2301 66.09 64.0726 63.48 55.2401C68.1058 54.4567 72.7883 54.0554 77.48 54.0401C80.52 54.0401 84.12 54.2401 87.44 54.5601C86.4494 60.5218 84.1208 66.1815 80.6292 71.1142C77.1375 76.0469 72.5735 80.1243 67.28 83.0401H67.48Z" fill="#535353"/>
</g>
<defs>
<clipPath id="clip0_1029_27">
<rect width="96" height="96" fill="white"/>
</clipPath>
</defs>
</svg>
