<?xml version="1.0" encoding="UTF-8"?>
<svg width="44px" height="28px" viewBox="0 0 44 28" version="1.1" xmlns="http://www.w3.org/2000/svg" xmlns:xlink="http://www.w3.org/1999/xlink">
    <!-- Generator: Sketch 52.2 (67145) - http://www.bohemiancoding.com/sketch -->
    <title>Combined Shape</title>
    <desc>Created with Sketch.</desc>
    <g id="The-Icons" stroke="none" stroke-width="1" fill="none" fill-rule="evenodd" opacity="0.4">
        <g id="Artboard" transform="translate(-263.000000, -349.000000)" fill="#FFFFFF" fill-rule="nonzero">
            <path d="M289.24155,367.953995 C290.02402,367.171525 291.29496,367.166915 292.076009,367.947963 C292.862503,368.734457 292.854357,369.998042 292.069977,370.782422 C292.069977,370.782422 286.423174,376.429223 286.419155,376.433244 C286.026914,376.825485 285.516011,377.020081 285.003468,377.016554 C284.491613,377.01688 283.980248,376.822765 283.584696,376.427213 L277.939905,370.782422 C277.157435,369.999952 277.152825,368.729012 277.933873,367.947963 C278.720367,367.161469 279.983952,367.169615 280.768332,367.953995 L283.004941,370.190604 L283.004941,359.053908 C283.004941,357.948677 283.901753,357.015334 285.006323,357.015334 C286.118593,357.015334 287.004941,357.94897 287.004941,359.053908 L287.004941,370.190604 L289.24155,367.953995 Z M298.009659,377 L293,377 C291.895431,377 291,376.104569 291,375 C291,373.895431 291.895431,373 293,373 L298.009659,373 C300.759605,373 303,370.758514 303,368 C303,365.242761 300.76207,363 298.009659,363 L295.141669,363 L294.861649,361.330912 C294.059863,356.551782 289.901732,353 285,353 C280.098268,353 275.940137,356.551782 275.138351,361.330912 L274.858331,363 L271.990341,363 C269.240395,363 267,365.241486 267,368 C267,370.757239 269.23793,373 271.990341,373 L277,373 C278.104569,373 279,373.895431 279,375 C279,376.104569 278.104569,377 277,377 L271.990341,377 C267.026857,377 263,372.964449 263,368 C263,363.159133 266.828365,359.205768 271.61373,359.007777 C272.525269,354.343872 278.136663,349 285,349 C291.303771,349 296.72691,353.193323 298.44,359.066969 C302.850098,359.066969 307,363.035551 307,368 C307,372.967218 302.96918,377 298.009659,377 Z" id="Combined-Shape"></path>
        </g>
    </g>
</svg>