<svg width="32" height="32" viewBox="0 0 32 32" fill="none" xmlns="http://www.w3.org/2000/svg">
<g style="mix-blend-mode:multiply" filter="url(#filter0_d_243_7343)">
<path d="M8.89096 6.42969C8.98856 6.45606 9.073 6.47419 9.15141 6.50111C11.2603 7.22792 13.3702 7.95418 15.4742 8.68924C15.574 8.72385 15.6858 8.84141 15.6864 8.92052C15.6968 11.4498 15.6946 13.9796 15.6935 16.5089C15.6935 16.5337 15.6836 16.5589 15.6727 16.6089C15.5745 16.5809 15.4829 16.5589 15.3963 16.5293C13.3088 15.8068 11.2224 15.0822 9.13441 14.362C8.96882 14.3049 8.86957 14.2488 8.87012 14.0868C8.87834 11.5828 8.87615 9.07874 8.8767 6.57417C8.8767 6.53242 8.88547 6.49122 8.89205 6.42969H8.89096Z" fill="#2A50C0"/>
</g>
<g style="mix-blend-mode:multiply">
<path d="M2.02632 16.6348C4.40606 17.4467 6.75236 18.2477 9.11949 19.0553V26.9997C9.01311 26.9695 8.92647 26.9486 8.84368 26.9206C6.64927 26.1795 4.45596 25.4373 2.261 24.6978C2.10309 24.6451 2 24.5984 2 24.4424C2.00877 21.868 2.00713 19.2937 2.00822 16.7194C2.00822 16.7023 2.01535 16.6853 2.02632 16.6348Z" fill="#47C4C5"/>
</g>
<g style="mix-blend-mode:multiply" filter="url(#filter1_d_243_7343)">
<path d="M9.00464 26.9724V19.039C11.2374 18.2534 13.4773 17.4656 15.7567 16.6641C15.7644 16.7772 15.7754 16.8657 15.7754 16.9547C15.7765 19.4219 15.7732 21.8885 15.782 24.3558C15.7825 24.5541 15.7156 24.6552 15.4661 24.7403C13.4159 25.4435 11.374 26.1604 9.3287 26.8724C9.23823 26.9037 9.14446 26.9295 9.00464 26.9724Z" fill="#1F23DD"/>
</g>
<g style="mix-blend-mode:multiply" opacity="0.5">
<path d="M8.79181 6.34226C8.93986 6.28663 9.04568 6.24342 9.1548 6.20518C11.2099 5.48452 13.2634 4.76188 15.324 4.04967C15.4704 3.99901 15.6953 3.97964 15.8345 4.02732C17.9763 4.76188 20.1104 5.50936 22.245 6.25534C22.3092 6.27769 22.3668 6.31146 22.4545 6.35269C20.7497 6.9452 19.0751 7.52679 17.4005 8.10838C16.9959 8.24894 16.5687 8.36168 16.1904 8.53452C15.7791 8.72176 15.4436 8.67656 15.0279 8.52756C13.0934 7.83422 11.1419 7.16771 9.19647 6.49125C9.07584 6.44953 8.9574 6.40334 8.79126 6.34226H8.79181Z" fill="#4DD5D6"/>
</g>
<g style="mix-blend-mode:multiply" opacity="0.5">
<path d="M15.675 16.6348C18.0547 17.4467 20.401 18.2477 22.7682 19.0553V26.9997C22.6618 26.9695 22.5752 26.9486 22.4924 26.9206C20.298 26.1795 18.1046 25.4373 15.9097 24.6978C15.7518 24.6445 15.6481 24.5978 15.6487 24.4424C15.6575 21.868 15.6558 19.2937 15.6569 16.7194C15.6569 16.7023 15.664 16.6853 15.675 16.6348V16.6348Z" fill="#1D20CC"/>
</g>
<g style="mix-blend-mode:multiply" filter="url(#filter2_d_243_7343)">
<path d="M22.6538 26.9724V19.039C24.8866 18.2534 27.1265 17.4656 29.4059 16.6641C29.4136 16.7772 29.4246 16.8657 29.4246 16.9547C29.4257 19.4219 29.4224 21.8885 29.4311 24.3558C29.4317 24.5541 29.3648 24.6552 29.1153 24.7403C27.0651 25.4435 25.0231 26.1604 22.9779 26.8724C22.8874 26.9037 22.7936 26.9295 22.6538 26.9724V26.9724Z" fill="#3768D3"/>
</g>
<g style="mix-blend-mode:multiply">
<path d="M15.6487 16.6617C17.8996 15.8503 20.0989 15.0554 22.3026 14.2681C22.4002 14.2335 22.5543 14.2335 22.6519 14.2681C24.899 15.0746 27.1422 15.8333 29.4309 16.6617C27.98 17.1737 26.5741 17.7242 25.1687 18.2203C24.3797 18.4988 23.5939 18.7839 22.8 19.0537C22.6832 19.0932 22.505 19.0971 22.3904 19.057C20.2014 18.2923 18.0175 17.5188 15.8324 16.7463C15.7885 16.731 15.7485 16.7079 15.6487 16.6612V16.6617Z" fill="#41A3D7"/>
</g>
<g style="mix-blend-mode:multiply" opacity="0.3" filter="url(#filter3_d_243_7343)">
<path d="M22.606 6.30371C22.606 7.90909 22.606 9.47289 22.606 11.0367C22.606 12.0284 22.6049 13.0196 22.6077 14.0113C22.6077 14.1349 22.6038 14.2291 22.412 14.2957C20.2257 15.0474 18.045 15.8085 15.862 16.5657C15.8331 16.5757 15.7982 16.5751 15.7123 16.5862C15.7123 16.4859 15.7123 16.3966 15.7123 16.3079C15.7123 13.8461 15.7151 11.3848 15.7068 8.92298C15.7062 8.73672 15.77 8.64082 16.0066 8.56044C18.1037 7.84645 20.193 7.12026 22.2851 6.39795C22.3755 6.36691 22.4702 6.34362 22.6066 6.30371H22.606Z" fill="#4DD5D6"/>
</g>
<g style="mix-blend-mode:multiply" opacity="0.3">
<path d="M2 16.6392C4.27498 15.8205 6.49787 15.0183 8.72519 14.2239C8.82384 14.189 8.97957 14.189 9.07822 14.2239C11.3493 15.0377 13.6165 15.8033 15.9298 16.6392C14.4634 17.1559 13.0424 17.7113 11.622 18.2119C10.8245 18.4929 10.0303 18.7806 9.22785 19.0528C9.1098 19.0927 8.92969 19.0966 8.81386 19.0561C6.6015 18.2845 4.39413 17.504 2.18566 16.7246C2.14132 16.7091 2.10086 16.6858 2 16.6387L2 16.6392Z" fill="#2A50C0"/>
</g>
<defs>
<filter id="filter0_d_243_7343" x="6.52245" y="4.7909" width="11.5198" height="14.8745" filterUnits="userSpaceOnUse" color-interpolation-filters="sRGB">
<feFlood flood-opacity="0" result="BackgroundImageFix"/>
<feColorMatrix in="SourceAlpha" type="matrix" values="0 0 0 0 0 0 0 0 0 0 0 0 0 0 0 0 0 0 127 0" result="hardAlpha"/>
<feOffset dy="0.708882"/>
<feGaussianBlur stdDeviation="1.17384"/>
<feComposite in2="hardAlpha" operator="out"/>
<feColorMatrix type="matrix" values="0 0 0 0 0.369547 0 0 0 0 0.312361 0 0 0 0 0.720833 0 0 0 0.6 0"/>
<feBlend mode="normal" in2="BackgroundImageFix" result="effect1_dropShadow_243_7343"/>
<feBlend mode="normal" in="SourceGraphic" in2="effect1_dropShadow_243_7343" result="shape"/>
</filter>
<filter id="filter1_d_243_7343" x="6.65697" y="15.0253" width="11.4727" height="15.0034" filterUnits="userSpaceOnUse" color-interpolation-filters="sRGB">
<feFlood flood-opacity="0" result="BackgroundImageFix"/>
<feColorMatrix in="SourceAlpha" type="matrix" values="0 0 0 0 0 0 0 0 0 0 0 0 0 0 0 0 0 0 127 0" result="hardAlpha"/>
<feOffset dy="0.708882"/>
<feGaussianBlur stdDeviation="1.17384"/>
<feComposite in2="hardAlpha" operator="out"/>
<feColorMatrix type="matrix" values="0 0 0 0 0.369547 0 0 0 0 0.312361 0 0 0 0 0.720833 0 0 0 0.6 0"/>
<feBlend mode="normal" in2="BackgroundImageFix" result="effect1_dropShadow_243_7343"/>
<feBlend mode="normal" in="SourceGraphic" in2="effect1_dropShadow_243_7343" result="shape"/>
</filter>
<filter id="filter2_d_243_7343" x="20.3061" y="15.0253" width="11.4727" height="15.0034" filterUnits="userSpaceOnUse" color-interpolation-filters="sRGB">
<feFlood flood-opacity="0" result="BackgroundImageFix"/>
<feColorMatrix in="SourceAlpha" type="matrix" values="0 0 0 0 0 0 0 0 0 0 0 0 0 0 0 0 0 0 127 0" result="hardAlpha"/>
<feOffset dy="0.708882"/>
<feGaussianBlur stdDeviation="1.17384"/>
<feComposite in2="hardAlpha" operator="out"/>
<feColorMatrix type="matrix" values="0 0 0 0 0.369547 0 0 0 0 0.312361 0 0 0 0 0.720833 0 0 0 0.6 0"/>
<feBlend mode="normal" in2="BackgroundImageFix" result="effect1_dropShadow_243_7343"/>
<feBlend mode="normal" in="SourceGraphic" in2="effect1_dropShadow_243_7343" result="shape"/>
</filter>
<filter id="filter3_d_243_7343" x="14.289" y="5.59483" width="9.73641" height="13.1182" filterUnits="userSpaceOnUse" color-interpolation-filters="sRGB">
<feFlood flood-opacity="0" result="BackgroundImageFix"/>
<feColorMatrix in="SourceAlpha" type="matrix" values="0 0 0 0 0 0 0 0 0 0 0 0 0 0 0 0 0 0 127 0" result="hardAlpha"/>
<feOffset dy="0.708882"/>
<feGaussianBlur stdDeviation="0.708882"/>
<feComposite in2="hardAlpha" operator="out"/>
<feColorMatrix type="matrix" values="0 0 0 0 0.369547 0 0 0 0 0.312361 0 0 0 0 0.720833 0 0 0 0.5 0"/>
<feBlend mode="normal" in2="BackgroundImageFix" result="effect1_dropShadow_243_7343"/>
<feBlend mode="normal" in="SourceGraphic" in2="effect1_dropShadow_243_7343" result="shape"/>
</filter>
</defs>
</svg>
