<svg width="129" height="125" viewBox="0 0 129 125" fill="none" xmlns="http://www.w3.org/2000/svg">
<path d="M63.2811 125C97.7741 125 125.736 97.0178 125.736 62.5C125.736 27.9822 97.7741 0 63.2811 0C28.7881 0 0.82605 27.9822 0.82605 62.5C0.82605 97.0178 28.7881 125 63.2811 125Z" fill="#EAEEF9"/>
<mask id="mask0_8_3401" style="mask-type:alpha" maskUnits="userSpaceOnUse" x="0" y="1" width="129" height="123">
<path d="M87.1695 118.285C79.3716 121.866 70.6938 123.864 61.5493 123.864C27.6318 123.864 0.13623 96.3901 0.13623 62.4999C0.13623 28.6097 27.6318 1.13623 61.5493 1.13623C69.6956 1.13623 77.4714 2.72105 84.5849 5.59904H128.545V118.285H87.1695Z" fill="#D9D9D9"/>
</mask>
<g mask="url(#mask0_8_3401)">
<g filter="url(#filter0_d_8_3401)">
<path d="M-2.41286 118.012C-2.94252 118.012 -3.38391 117.591 -3.38391 117.085V69.5856C-3.38391 69.0803 -2.94252 68.6592 -2.41286 68.6592H32.6329C33.1626 68.6592 33.6039 69.0803 33.6039 69.5856V117.085C33.6039 117.591 33.1626 118.012 32.6329 118.012H-2.41286Z" fill="url(#paint0_linear_8_3401)"/>
</g>
<g filter="url(#filter1_d_8_3401)">
<path d="M-2.41286 59.8805C-2.94252 59.8805 -3.38391 59.4594 -3.38391 58.954V11.4542C-3.38391 10.9489 -2.94252 10.5278 -2.41286 10.5278H32.6329C33.1626 10.5278 33.6039 10.9489 33.6039 11.4542V58.954C33.6039 59.4594 33.1626 59.8805 32.6329 59.8805H-2.41286Z" fill="url(#paint1_linear_8_3401)"/>
</g>
<g filter="url(#filter2_d_8_3401)">
<path d="M43.63 118.012C43.1003 118.012 42.6589 117.591 42.6589 117.085V69.5856C42.6589 69.0803 43.1003 68.6592 43.63 68.6592H78.6758C79.2054 68.6592 79.6468 69.0803 79.6468 69.5856V117.085C79.6468 117.591 79.2054 118.012 78.6758 118.012H43.63Z" fill="url(#paint2_linear_8_3401)"/>
</g>
<g filter="url(#filter3_d_8_3401)">
<path d="M43.63 59.8805C43.1003 59.8805 42.6589 59.4594 42.6589 58.954V11.4542C42.6589 10.9489 43.1003 10.5278 43.63 10.5278H78.6758C79.2054 10.5278 79.6468 10.9489 79.6468 11.4542V58.954C79.6468 59.4594 79.2054 59.8805 78.6758 59.8805H43.63Z" fill="url(#paint3_linear_8_3401)"/>
</g>
<g filter="url(#filter4_d_8_3401)">
<path d="M88.7588 59.8805C88.2292 59.8805 87.7878 59.4594 87.7878 58.954V11.4542C87.7878 10.9489 88.2292 10.5278 88.7588 10.5278H123.805C124.334 10.5278 124.776 10.9489 124.776 11.4542V58.954C124.776 59.4594 124.334 59.8805 123.805 59.8805H88.7588Z" fill="url(#paint4_linear_8_3401)"/>
</g>
<path d="M27.5352 96.0967H1.63786C1.24429 96.0967 0.850708 95.7707 0.850708 95.2817V73.7662C0.850708 73.3587 1.16557 72.9512 1.63786 72.9512H27.5352C27.9288 72.9512 28.3224 73.2772 28.3224 73.7662V95.2817C28.2437 95.7707 27.9288 96.0967 27.5352 96.0967Z" fill="#EAEEF9"/>
<path d="M24.4942 105.4H4.76459C4.67881 105.4 4.59302 105.314 4.59302 105.228V103.254C4.59302 103.168 4.67881 103.082 4.76459 103.082H24.4942C24.58 103.082 24.6658 103.168 24.6658 103.254V105.228C24.6658 105.314 24.58 105.4 24.4942 105.4Z" fill="#D5DDEA"/>
<path d="M28.526 109.606H0.647225C0.475663 109.606 0.389893 109.52 0.389893 109.348V108.576C0.389893 108.404 0.475663 108.318 0.647225 108.318H28.526C28.6976 108.318 28.7834 108.404 28.7834 108.576V109.348C28.7834 109.52 28.6976 109.606 28.526 109.606Z" fill="#D5DDEA"/>
<path d="M22.8643 113.211H6.30855C5.96543 113.211 5.62231 112.954 5.62231 112.525C5.62231 112.181 5.87965 111.838 6.30855 111.838H22.8643C23.2074 111.838 23.5505 112.095 23.5505 112.525C23.5505 112.868 23.2074 113.211 22.8643 113.211Z" fill="#AAB2C5"/>
<path d="M27.5352 37.9653H1.63786C1.24429 37.9653 0.850708 37.6393 0.850708 37.1503V15.6348C0.850708 15.2273 1.16557 14.8198 1.63786 14.8198H27.5352C27.9288 14.8198 28.3224 15.1458 28.3224 15.6348V37.1503C28.2437 37.6393 27.9288 37.9653 27.5352 37.9653Z" fill="#EAEEF9"/>
<path d="M24.4942 47.2684H4.76459C4.67881 47.2684 4.59302 47.1826 4.59302 47.0968V45.1224C4.59302 45.0365 4.67881 44.9507 4.76459 44.9507H24.4942C24.58 44.9507 24.6658 45.0365 24.6658 45.1224V47.0968C24.6658 47.1826 24.58 47.2684 24.4942 47.2684Z" fill="#D5DDEA"/>
<path d="M28.526 51.4747H0.647225C0.475663 51.4747 0.389893 51.3888 0.389893 51.2171V50.4445C0.389893 50.2729 0.475663 50.187 0.647225 50.187H28.526C28.6976 50.187 28.7834 50.2729 28.7834 50.4445V51.2171C28.7834 51.3888 28.6976 51.4747 28.526 51.4747Z" fill="#D5DDEA"/>
<path d="M22.8643 55.08H6.30855C5.96543 55.08 5.62231 54.8225 5.62231 54.3933C5.62231 54.0499 5.87965 53.7065 6.30855 53.7065H22.8643C23.2074 53.7065 23.5505 53.9641 23.5505 54.3933C23.5505 54.7366 23.2074 55.08 22.8643 55.08Z" fill="#D5DDEA"/>
<path d="M73.5777 96.0967H47.6803C47.2868 96.0967 46.8932 95.7707 46.8932 95.2817V73.7662C46.8932 73.3587 47.2081 72.9512 47.6803 72.9512H73.5777C73.9713 72.9512 74.3649 73.2772 74.3649 73.7662V95.2817C74.2862 95.7707 73.9713 96.0967 73.5777 96.0967Z" fill="#EAEEF9"/>
<path d="M70.5364 105.4H50.8068C50.721 105.4 50.6353 105.314 50.6353 105.228V103.254C50.6353 103.168 50.721 103.082 50.8068 103.082H70.5364C70.6222 103.082 70.708 103.168 70.708 103.254V105.228C70.708 105.314 70.6222 105.4 70.5364 105.4Z" fill="#D5DDEA"/>
<path d="M74.5678 109.606H46.689C46.5174 109.606 46.4316 109.52 46.4316 109.348V108.576C46.4316 108.404 46.5174 108.318 46.689 108.318H74.5678C74.7394 108.318 74.8251 108.404 74.8251 108.576V109.348C74.8251 109.52 74.7394 109.606 74.5678 109.606Z" fill="#D5DDEA"/>
<path d="M68.9069 113.211H52.3512C52.0081 113.211 51.6649 112.954 51.6649 112.525C51.6649 112.181 51.9223 111.838 52.3512 111.838H68.9069C69.25 111.838 69.5931 112.095 69.5931 112.525C69.5931 112.868 69.25 113.211 68.9069 113.211Z" fill="#D5DDEA"/>
<path d="M73.5777 37.9653H47.6803C47.2868 37.9653 46.8932 37.6393 46.8932 37.1503V15.6348C46.8932 15.2273 47.2081 14.8198 47.6803 14.8198H73.5777C73.9713 14.8198 74.3649 15.1458 74.3649 15.6348V37.1503C74.2862 37.6393 73.9713 37.9653 73.5777 37.9653Z" fill="#EAEEF9"/>
<path d="M70.5364 47.2684H50.8068C50.721 47.2684 50.6353 47.1826 50.6353 47.0968V45.1224C50.6353 45.0365 50.721 44.9507 50.8068 44.9507H70.5364C70.6222 44.9507 70.708 45.0365 70.708 45.1224V47.0968C70.708 47.1826 70.6222 47.2684 70.5364 47.2684Z" fill="#D5DDEA"/>
<path d="M74.5678 51.4747H46.689C46.5174 51.4747 46.4316 51.3888 46.4316 51.2171V50.4445C46.4316 50.2729 46.5174 50.187 46.689 50.187H74.5678C74.7394 50.187 74.8251 50.2729 74.8251 50.4445V51.2171C74.8251 51.3888 74.7394 51.4747 74.5678 51.4747Z" fill="#D5DDEA"/>
<path d="M68.9069 55.08H52.3512C52.0081 55.08 51.6649 54.8225 51.6649 54.3933C51.6649 54.0499 51.9223 53.7065 52.3512 53.7065H68.9069C69.25 53.7065 69.5931 53.9641 69.5931 54.3933C69.5931 54.7366 69.25 55.08 68.9069 55.08Z" fill="#D5DDEA"/>
<path d="M118.707 37.9653H92.8095C92.4159 37.9653 92.0223 37.6393 92.0223 37.1503V15.6348C92.0223 15.2273 92.3372 14.8198 92.8095 14.8198H118.707C119.1 14.8198 119.494 15.1458 119.494 15.6348V37.1503C119.415 37.6393 119.1 37.9653 118.707 37.9653Z" fill="#EAEEF9"/>
<path d="M115.666 47.2684H95.9363C95.8505 47.2684 95.7648 47.1826 95.7648 47.0968V45.1224C95.7648 45.0365 95.8505 44.9507 95.9363 44.9507H115.666C115.752 44.9507 115.838 45.0365 115.838 45.1224V47.0968C115.838 47.1826 115.752 47.2684 115.666 47.2684Z" fill="#D5DDEA"/>
<path d="M119.698 51.4747H91.8189C91.6474 51.4747 91.5616 51.3888 91.5616 51.2171V50.4445C91.5616 50.2729 91.6474 50.187 91.8189 50.187H119.698C119.869 50.187 119.955 50.2729 119.955 50.4445V51.2171C119.955 51.3888 119.869 51.4747 119.698 51.4747Z" fill="#D5DDEA"/>
<path d="M114.036 55.08H97.4802C97.1371 55.08 96.7939 54.8225 96.7939 54.3933C96.7939 54.0499 97.0513 53.7065 97.4802 53.7065H114.036C114.379 53.7065 114.722 53.9641 114.722 54.3933C114.722 54.7366 114.379 55.08 114.036 55.08Z" fill="#D5DDEA"/>
<rect x="88.0244" y="68.5176" width="38.2483" height="49.3526" rx="2" fill="url(#paint5_linear_8_3401)"/>
<path fill-rule="evenodd" clip-rule="evenodd" d="M106.497 87.2588C107.049 87.2588 107.496 87.7065 107.496 88.2588V98.5599C107.496 99.1122 107.049 99.5599 106.497 99.5599C105.945 99.5599 105.498 99.1122 105.498 98.5599V88.2588C105.498 87.7065 105.945 87.2588 106.497 87.2588Z" fill="white"/>
<path fill-rule="evenodd" clip-rule="evenodd" d="M100.351 93.4092C100.351 92.8569 100.798 92.4092 101.35 92.4092H111.73C112.281 92.4092 112.729 92.8569 112.729 93.4092C112.729 93.9615 112.281 94.4092 111.73 94.4092H101.35C100.798 94.4092 100.351 93.9615 100.351 93.4092Z" fill="white"/>
</g>
<defs>
<filter id="filter0_d_8_3401" x="-25.3839" y="57.6592" width="80.9879" height="93.3525" filterUnits="userSpaceOnUse" color-interpolation-filters="sRGB">
<feFlood flood-opacity="0" result="BackgroundImageFix"/>
<feColorMatrix in="SourceAlpha" type="matrix" values="0 0 0 0 0 0 0 0 0 0 0 0 0 0 0 0 0 0 127 0" result="hardAlpha"/>
<feOffset dy="11"/>
<feGaussianBlur stdDeviation="11"/>
<feColorMatrix type="matrix" values="0 0 0 0 0.397708 0 0 0 0 0.47749 0 0 0 0 0.575 0 0 0 0.27 0"/>
<feBlend mode="normal" in2="BackgroundImageFix" result="effect1_dropShadow_8_3401"/>
<feBlend mode="normal" in="SourceGraphic" in2="effect1_dropShadow_8_3401" result="shape"/>
</filter>
<filter id="filter1_d_8_3401" x="-25.3839" y="-0.472168" width="80.9879" height="93.3525" filterUnits="userSpaceOnUse" color-interpolation-filters="sRGB">
<feFlood flood-opacity="0" result="BackgroundImageFix"/>
<feColorMatrix in="SourceAlpha" type="matrix" values="0 0 0 0 0 0 0 0 0 0 0 0 0 0 0 0 0 0 127 0" result="hardAlpha"/>
<feOffset dy="11"/>
<feGaussianBlur stdDeviation="11"/>
<feColorMatrix type="matrix" values="0 0 0 0 0.397708 0 0 0 0 0.47749 0 0 0 0 0.575 0 0 0 0.27 0"/>
<feBlend mode="normal" in2="BackgroundImageFix" result="effect1_dropShadow_8_3401"/>
<feBlend mode="normal" in="SourceGraphic" in2="effect1_dropShadow_8_3401" result="shape"/>
</filter>
<filter id="filter2_d_8_3401" x="20.6589" y="57.6592" width="80.9879" height="93.3525" filterUnits="userSpaceOnUse" color-interpolation-filters="sRGB">
<feFlood flood-opacity="0" result="BackgroundImageFix"/>
<feColorMatrix in="SourceAlpha" type="matrix" values="0 0 0 0 0 0 0 0 0 0 0 0 0 0 0 0 0 0 127 0" result="hardAlpha"/>
<feOffset dy="11"/>
<feGaussianBlur stdDeviation="11"/>
<feColorMatrix type="matrix" values="0 0 0 0 0.397708 0 0 0 0 0.47749 0 0 0 0 0.575 0 0 0 0.27 0"/>
<feBlend mode="normal" in2="BackgroundImageFix" result="effect1_dropShadow_8_3401"/>
<feBlend mode="normal" in="SourceGraphic" in2="effect1_dropShadow_8_3401" result="shape"/>
</filter>
<filter id="filter3_d_8_3401" x="20.6589" y="-0.472168" width="80.9879" height="93.3525" filterUnits="userSpaceOnUse" color-interpolation-filters="sRGB">
<feFlood flood-opacity="0" result="BackgroundImageFix"/>
<feColorMatrix in="SourceAlpha" type="matrix" values="0 0 0 0 0 0 0 0 0 0 0 0 0 0 0 0 0 0 127 0" result="hardAlpha"/>
<feOffset dy="11"/>
<feGaussianBlur stdDeviation="11"/>
<feColorMatrix type="matrix" values="0 0 0 0 0.397708 0 0 0 0 0.47749 0 0 0 0 0.575 0 0 0 0.27 0"/>
<feBlend mode="normal" in2="BackgroundImageFix" result="effect1_dropShadow_8_3401"/>
<feBlend mode="normal" in="SourceGraphic" in2="effect1_dropShadow_8_3401" result="shape"/>
</filter>
<filter id="filter4_d_8_3401" x="65.7878" y="-0.472168" width="80.9879" height="93.3525" filterUnits="userSpaceOnUse" color-interpolation-filters="sRGB">
<feFlood flood-opacity="0" result="BackgroundImageFix"/>
<feColorMatrix in="SourceAlpha" type="matrix" values="0 0 0 0 0 0 0 0 0 0 0 0 0 0 0 0 0 0 127 0" result="hardAlpha"/>
<feOffset dy="11"/>
<feGaussianBlur stdDeviation="11"/>
<feColorMatrix type="matrix" values="0 0 0 0 0.397708 0 0 0 0 0.47749 0 0 0 0 0.575 0 0 0 0.27 0"/>
<feBlend mode="normal" in2="BackgroundImageFix" result="effect1_dropShadow_8_3401"/>
<feBlend mode="normal" in="SourceGraphic" in2="effect1_dropShadow_8_3401" result="shape"/>
</filter>
<linearGradient id="paint0_linear_8_3401" x1="15.098" y1="67.5176" x2="15.098" y2="118.544" gradientUnits="userSpaceOnUse">
<stop stop-color="#FDFEFF"/>
<stop offset="0.9964" stop-color="#ECF0F5"/>
</linearGradient>
<linearGradient id="paint1_linear_8_3401" x1="15.098" y1="9.38626" x2="15.098" y2="60.4125" gradientUnits="userSpaceOnUse">
<stop stop-color="#FDFEFF"/>
<stop offset="0.9964" stop-color="#ECF0F5"/>
</linearGradient>
<linearGradient id="paint2_linear_8_3401" x1="61.1408" y1="67.5176" x2="61.1408" y2="118.544" gradientUnits="userSpaceOnUse">
<stop stop-color="#FDFEFF"/>
<stop offset="0.9964" stop-color="#ECF0F5"/>
</linearGradient>
<linearGradient id="paint3_linear_8_3401" x1="61.1408" y1="9.38626" x2="61.1408" y2="60.4125" gradientUnits="userSpaceOnUse">
<stop stop-color="#FDFEFF"/>
<stop offset="0.9964" stop-color="#ECF0F5"/>
</linearGradient>
<linearGradient id="paint4_linear_8_3401" x1="106.27" y1="9.38626" x2="106.27" y2="60.4125" gradientUnits="userSpaceOnUse">
<stop stop-color="#FDFEFF"/>
<stop offset="0.9964" stop-color="#ECF0F5"/>
</linearGradient>
<linearGradient id="paint5_linear_8_3401" x1="124.755" y1="68.5177" x2="89.1905" y2="68.6136" gradientUnits="userSpaceOnUse">
<stop stop-color="#B0BACC"/>
<stop offset="1" stop-color="#969EAE"/>
</linearGradient>
</defs>
</svg>
