<svg width="147" height="125" viewBox="0 0 147 125" fill="none" xmlns="http://www.w3.org/2000/svg">
<path d="M145.509 40.8865V100.47C145.509 103.15 143.304 105.357 140.626 105.357H81.0851C78.4074 105.357 76.2021 103.15 76.2021 100.47V40.8865C76.2021 38.2068 78.4074 36 81.0851 36H140.626C143.304 36 145.509 38.2068 145.509 40.8865Z" fill="white" stroke="url(#paint0_linear_250_6552)" stroke-width="2" stroke-miterlimit="10"/>
<path d="M145.509 40.8865V44.4332H76.2021V40.8865C76.2021 38.2068 78.4074 36 81.0851 36H140.626C143.304 36 145.509 38.2068 145.509 40.8865Z" fill="#F1F3F9" stroke="url(#paint1_linear_250_6552)" stroke-width="2" stroke-miterlimit="10"/>
<path d="M81.2425 41.7534C82.0689 41.7534 82.7389 41.0829 82.7389 40.2559C82.7389 39.4289 82.0689 38.7584 81.2425 38.7584C80.4161 38.7584 79.7461 39.4289 79.7461 40.2559C79.7461 41.0829 80.4161 41.7534 81.2425 41.7534Z" fill="url(#paint2_linear_250_6552)"/>
<path opacity="0.6" d="M85.9686 41.7534C86.795 41.7534 87.465 41.0829 87.465 40.2559C87.465 39.4289 86.795 38.7584 85.9686 38.7584C85.1421 38.7584 84.4722 39.4289 84.4722 40.2559C84.4722 41.0829 85.1421 41.7534 85.9686 41.7534Z" fill="url(#paint3_linear_250_6552)"/>
<path opacity="0.4" d="M90.615 41.7534C91.4415 41.7534 92.1115 41.0829 92.1115 40.2559C92.1115 39.4289 91.4415 38.7584 90.615 38.7584C89.7886 38.7584 89.1187 39.4289 89.1187 40.2559C89.1187 41.0829 89.7886 41.7534 90.615 41.7534Z" fill="url(#paint4_linear_250_6552)"/>
<path d="M137.397 97.7118H84.2356C82.9755 97.7118 81.9517 96.3269 81.9517 94.6224V52.3302C81.9517 50.6257 82.9755 49.2408 84.2356 49.2408H137.397C138.657 49.2408 139.681 50.6257 139.681 52.3302V94.6224C139.76 96.3269 138.736 97.7118 137.397 97.7118Z" stroke="url(#paint5_linear_250_6552)" stroke-miterlimit="10" stroke-dasharray="3 3"/>
<path d="M127.946 71.4666H93.765C93.3712 71.4666 93.0562 71.1513 93.0562 70.7572V69.8114C93.0562 69.4174 93.3712 69.1021 93.765 69.1021H127.946C128.34 69.1021 128.655 69.4174 128.655 69.8114V70.7572C128.655 71.0725 128.34 71.4666 127.946 71.4666Z" fill="url(#paint6_linear_250_6552)"/>
<path d="M117.786 77.2988H103.846C103.452 77.2988 103.137 76.9836 103.137 76.5895V75.6437C103.137 75.2496 103.452 74.9344 103.846 74.9344H117.786C118.18 74.9344 118.495 75.2496 118.495 75.6437V76.5895C118.495 76.9836 118.18 77.2988 117.786 77.2988Z" fill="url(#paint7_linear_250_6552)"/>
<path d="M61.7107 51.4477H19.7327C18.7876 51.4477 18 50.6595 18 49.7137V39.3102C18 38.3644 18.7876 37.5763 19.7327 37.5763H61.7107C62.6558 37.5763 63.4434 38.3644 63.4434 39.3102V49.7137C63.5221 50.6595 62.7345 51.4477 61.7107 51.4477Z" fill="white" stroke="url(#paint8_linear_250_6552)" stroke-width="2" stroke-miterlimit="10"/>
<path d="M57.6945 45.6942H23.5135C23.1197 45.6942 22.8047 45.3789 22.8047 44.9848V44.039C22.8047 43.645 23.1197 43.3297 23.5135 43.3297H57.6945C58.0883 43.3297 58.4033 43.645 58.4033 44.039V44.9848C58.4033 45.3789 58.0883 45.6942 57.6945 45.6942Z" fill="url(#paint9_linear_250_6552)"/>
<path d="M61.7107 69.4174H19.7327C18.7876 69.4174 18 68.6293 18 67.6835V57.2011C18 56.2554 18.7876 55.4672 19.7327 55.4672H61.7107C62.6558 55.4672 63.4434 56.2554 63.4434 57.2011V67.6047C63.5221 68.6293 62.7345 69.4174 61.7107 69.4174Z" fill="white" stroke="url(#paint10_linear_250_6552)" stroke-width="2" stroke-miterlimit="10"/>
<path d="M61.7107 87.3871H19.7327C18.7876 87.3871 18 86.599 18 85.6532V75.1708C18 74.2251 18.7876 73.4369 19.7327 73.4369H61.7107C62.6558 73.4369 63.4434 74.2251 63.4434 75.1708V85.5744C63.5221 86.599 62.7345 87.3871 61.7107 87.3871Z" fill="#F1F3F9" stroke="url(#paint11_linear_250_6552)" stroke-miterlimit="10" stroke-dasharray="2.94 2.94"/>
<path d="M57.6945 63.664H23.5135C23.1197 63.664 22.8047 63.3487 22.8047 62.9546V62.0089C22.8047 61.6148 23.1197 61.2995 23.5135 61.2995H57.6945C58.0883 61.2995 58.4033 61.6148 58.4033 62.0089V62.9546C58.4033 63.3487 58.0883 63.664 57.6945 63.664Z" fill="url(#paint12_linear_250_6552)"/>
<path d="M61.7107 105.357H19.7327C18.7876 105.357 18 104.569 18 103.623V93.2194C18 92.2736 18.7876 91.4855 19.7327 91.4855H61.7107C62.6558 91.4855 63.4434 92.2736 63.4434 93.2194V103.623C63.5221 104.569 62.7345 105.357 61.7107 105.357Z" fill="white" stroke="url(#paint13_linear_250_6552)" stroke-width="2" stroke-miterlimit="10"/>
<path d="M57.6945 99.6034H23.5135C23.1197 99.6034 22.8047 99.2881 22.8047 98.8941V97.9483C22.8047 97.5542 23.1197 97.239 23.5135 97.239H57.6945C58.0883 97.239 58.4033 97.5542 58.4033 97.9483V98.8941C58.4033 99.2881 58.0883 99.6034 57.6945 99.6034Z" fill="url(#paint14_linear_250_6552)"/>
<path d="M83.3689 82.737H41.3909C40.4458 82.737 39.6582 81.9489 39.6582 81.0031V70.5208C39.6582 69.575 40.4458 68.7868 41.3909 68.7868H83.3689C84.314 68.7868 85.1015 69.575 85.1015 70.5208V80.9243C85.1015 81.9489 84.314 82.737 83.3689 82.737Z" fill="white" stroke="url(#paint15_linear_250_6552)" stroke-width="2" stroke-miterlimit="10"/>
<path d="M94.3165 79.2376C95.2206 79.2376 95.9439 79.9614 95.9439 80.8661V91.3614C95.9439 93.7138 94.1356 95.5233 91.7849 95.5233H84.9137C84.1904 95.5233 83.4671 95.3423 83.1055 94.7995C81.4781 93.3519 78.0424 90.4566 77.3192 89.3709C77.1383 89.009 76.9575 88.828 76.9575 88.4661V86.1138C76.9575 84.6661 78.0424 83.5804 79.489 83.5804H80.3931V88.1042H80.9356V78.6947C80.9356 77.7899 81.6589 77.0661 82.563 77.0661C83.4671 77.0661 84.1904 77.7899 84.1904 78.6947V80.5042H84.7329V78.1519C84.7329 77.2471 85.4562 76.5233 86.3603 76.5233C87.2644 76.5233 87.9877 77.2471 87.9877 78.1519V80.5042H88.711V79.2376C88.711 78.3328 89.4342 77.609 90.3384 77.609C91.2425 77.609 91.9658 78.3328 91.9658 79.2376V80.5042H92.6891C92.8699 79.7804 93.4123 79.2376 94.3165 79.2376Z" fill="white" stroke="url(#paint16_linear_250_6552)" stroke-width="2" stroke-miterlimit="10" stroke-linecap="round" stroke-linejoin="round"/>
<path d="M79.0201 76.8753H44.8392C44.4454 76.8753 44.1304 76.56 44.1304 76.166V75.2202C44.1304 74.8261 44.4454 74.5109 44.8392 74.5109H79.0201C79.4139 74.5109 79.729 74.8261 79.729 75.2202V76.166C79.729 76.56 79.4139 76.8753 79.0201 76.8753Z" fill="url(#paint17_linear_250_6552)"/>
<path d="M46.5484 23.0969C49.6128 23.0969 52.0969 20.6128 52.0969 17.5484C52.0969 14.4841 49.6128 12 46.5484 12C43.4841 12 41 14.4841 41 17.5484C41 20.6128 43.4841 23.0969 46.5484 23.0969Z" fill="#DEE8FB"/>
<path d="M3.5 94C5.433 94 7 92.433 7 90.5C7 88.567 5.433 87 3.5 87C1.567 87 0 88.567 0 90.5C0 92.433 1.567 94 3.5 94Z" fill="#DEE8FB"/>
<path d="M123.5 125C125.433 125 127 123.433 127 121.5C127 119.567 125.433 118 123.5 118C121.567 118 120 119.567 120 121.5C120 123.433 121.567 125 123.5 125Z" fill="#DEE8FB"/>
<g clip-path="url(#clip0_250_6552)">
<path d="M16.4662 18.3413C16.265 17.2091 16.0621 16.0778 15.8634 14.9456C15.7076 14.0576 15.1856 13.5579 14.3 13.416C13.2289 13.2445 12.161 13.0524 11.0924 12.8677C11.0742 12.8644 11.0594 12.8421 11 12.7935C11.5937 12.6904 12.1519 12.5923 12.7102 12.4958C13.2717 12.3985 13.8358 12.3177 14.3932 12.2031C15.3398 12.0085 15.7603 11.4956 15.9261 10.4426C16.0894 9.40442 16.2823 8.37039 16.519 7.32976C16.6064 7.82121 16.6946 8.31184 16.7804 8.8033C16.8966 9.47286 16.9997 10.1449 17.1267 10.812C17.2784 11.6069 17.8606 12.095 18.7346 12.2344C19.8148 12.4067 20.8909 12.6038 21.9777 12.8454C21.7955 12.8817 21.6133 12.9221 21.4294 12.9534C20.4786 13.1167 19.5254 13.2651 18.5771 13.4424C17.6454 13.6164 17.2199 14.145 17.0451 15.2425C16.8793 16.279 16.6905 17.3122 16.5124 18.3471C16.4967 18.3454 16.4819 18.3438 16.4662 18.3421V18.3413Z" fill="#94A3B8"/>
<path d="M16.4662 18.3413C16.265 17.2091 16.0621 16.0778 15.8634 14.9456C15.7076 14.0576 15.1856 13.5579 14.3 13.416C13.2289 13.2445 12.161 13.0524 11.0924 12.8677C11.0742 12.8644 11.0594 12.8421 11 12.7935C11.5937 12.6904 12.1519 12.5923 12.7102 12.4958C13.2717 12.3985 13.8358 12.3177 14.3932 12.2031C15.3398 12.0085 15.7603 11.4956 15.9261 10.4426C16.0894 9.40442 16.2823 8.37039 16.519 7.32976C16.6064 7.82121 16.6946 8.31184 16.7804 8.8033C16.8966 9.47286 16.9997 10.1449 17.1267 10.812C17.2784 11.6069 17.8606 12.095 18.7346 12.2344C19.8148 12.4067 20.8909 12.6038 21.9777 12.8454C21.7955 12.8817 21.6133 12.9221 21.4294 12.9534C20.4786 13.1167 19.5254 13.2651 18.5771 13.4424C17.6454 13.6164 17.2199 14.145 17.0451 15.2425C16.8793 16.279 16.6905 17.3122 16.5124 18.3471C16.4967 18.3454 16.4819 18.3438 16.4662 18.3421V18.3413Z" fill="url(#paint18_linear_250_6552)"/>
<path d="M21.9765 7.32976C21.8941 6.86057 21.8133 6.39138 21.7283 5.92219C21.6681 5.58823 21.622 5.25097 21.537 4.92361C21.4109 4.43711 21.0678 4.18066 20.5789 4.10067C19.8986 3.98853 19.2183 3.87144 18.5388 3.75352C18.4795 3.7428 18.4234 3.71147 18.3203 3.67189C19.0954 3.5416 19.8186 3.42286 20.5409 3.29835C21.2369 3.17796 21.528 2.81102 21.6607 1.92541C21.7465 1.3515 21.8479 0.78006 21.9452 0.207796C21.9534 0.158321 21.979 0.111319 22.0186 0C22.1678 0.838606 22.2981 1.6096 22.4449 2.37729C22.5364 2.85472 22.8316 3.159 23.3115 3.25135C24.0825 3.4006 24.8568 3.53253 25.6369 3.71559C25.1801 3.79888 24.7241 3.88463 24.2672 3.96462C23.9654 4.01739 23.6595 4.04955 23.3602 4.11222C22.8316 4.22271 22.5092 4.56162 22.4111 5.08441C22.2717 5.82654 22.1604 6.57279 22.0376 7.31822C22.0169 7.32234 21.9971 7.32646 21.9765 7.33058V7.32976Z" fill="#94A3B8"/>
<path d="M21.9765 7.32976C21.8941 6.86057 21.8133 6.39138 21.7283 5.92219C21.6681 5.58823 21.622 5.25097 21.537 4.92361C21.4109 4.43711 21.0678 4.18066 20.5789 4.10067C19.8986 3.98853 19.2183 3.87144 18.5388 3.75352C18.4795 3.7428 18.4234 3.71147 18.3203 3.67189C19.0954 3.5416 19.8186 3.42286 20.5409 3.29835C21.2369 3.17796 21.528 2.81102 21.6607 1.92541C21.7465 1.3515 21.8479 0.78006 21.9452 0.207796C21.9534 0.158321 21.979 0.111319 22.0186 0C22.1678 0.838606 22.2981 1.6096 22.4449 2.37729C22.5364 2.85472 22.8316 3.159 23.3115 3.25135C24.0825 3.4006 24.8568 3.53253 25.6369 3.71559C25.1801 3.79888 24.7241 3.88463 24.2672 3.96462C23.9654 4.01739 23.6595 4.04955 23.3602 4.11222C22.8316 4.22271 22.5092 4.56162 22.4111 5.08441C22.2717 5.82654 22.1604 6.57279 22.0376 7.31822C22.0169 7.32234 21.9971 7.32646 21.9765 7.33058V7.32976Z" fill="url(#paint19_linear_250_6552)"/>
</g>
<path d="M132.841 4.00165C133.02 5.03321 133.199 6.06559 133.38 7.09715C133.682 8.82219 133.956 10.5522 134.293 12.2706C134.608 13.8761 135.655 14.8969 137.207 15.2127C139.954 15.7726 142.729 16.194 145.505 16.7259C145.096 16.805 144.687 16.8916 144.277 16.9625C141.998 17.3567 139.721 17.7525 137.441 18.1367C135.765 18.4187 134.5 19.7026 134.206 21.4326C133.764 24.0367 133.318 26.6399 132.871 29.2431C132.86 29.3058 132.826 29.3651 132.771 29.5045C132.444 27.6253 132.131 25.8293 131.818 24.0342C131.644 23.0373 131.515 22.0296 131.288 21.0451C130.972 19.6705 129.863 18.3528 127.728 18.0394C125.266 17.6783 122.818 17.2091 120.365 16.7844C120.274 16.7687 120.185 16.7349 120 16.6838C122.696 16.222 125.295 15.7636 127.899 15.3356C129.86 15.0132 131.092 13.7615 131.414 11.7965C131.811 9.36642 132.256 6.94378 132.68 4.51784C132.709 4.34633 132.732 4.17316 132.759 4C132.786 4 132.813 4 132.841 4.00082V4.00165Z" fill="#94A3B8"/>
<path d="M132.841 4.00165C133.02 5.03321 133.199 6.06559 133.38 7.09715C133.682 8.82219 133.956 10.5522 134.293 12.2706C134.608 13.8761 135.655 14.8969 137.207 15.2127C139.954 15.7726 142.729 16.194 145.505 16.7259C145.096 16.805 144.687 16.8916 144.277 16.9625C141.998 17.3567 139.721 17.7525 137.441 18.1367C135.765 18.4187 134.5 19.7026 134.206 21.4326C133.764 24.0367 133.318 26.6399 132.871 29.2431C132.86 29.3058 132.826 29.3651 132.771 29.5045C132.444 27.6253 132.131 25.8293 131.818 24.0342C131.644 23.0373 131.515 22.0296 131.288 21.0451C130.972 19.6705 129.863 18.3528 127.728 18.0394C125.266 17.6783 122.818 17.2091 120.365 16.7844C120.274 16.7687 120.185 16.7349 120 16.6838C122.696 16.222 125.295 15.7636 127.899 15.3356C129.86 15.0132 131.092 13.7615 131.414 11.7965C131.811 9.36642 132.256 6.94378 132.68 4.51784C132.709 4.34633 132.732 4.17316 132.759 4C132.786 4 132.813 4 132.841 4.00082V4.00165Z" fill="url(#paint20_linear_250_6552)"/>
<defs>
<linearGradient id="paint0_linear_250_6552" x1="83.0439" y1="54.3025" x2="138.103" y2="59.8825" gradientUnits="userSpaceOnUse">
<stop stop-color="#C1BFF5"/>
<stop offset="0.529185" stop-color="#C5DAEF"/>
<stop offset="1" stop-color="#C8EBEC"/>
</linearGradient>
<linearGradient id="paint1_linear_250_6552" x1="83.0439" y1="38.2254" x2="115.866" y2="65.5829" gradientUnits="userSpaceOnUse">
<stop stop-color="#C1BFF5"/>
<stop offset="0.529185" stop-color="#C5DAEF"/>
<stop offset="1" stop-color="#C8EBEC"/>
</linearGradient>
<linearGradient id="paint2_linear_250_6552" x1="80.0415" y1="39.5488" x2="82.4191" y2="39.7897" gradientUnits="userSpaceOnUse">
<stop stop-color="#C1BFF5"/>
<stop offset="0.529185" stop-color="#C5DAEF"/>
<stop offset="1" stop-color="#C8EBEC"/>
</linearGradient>
<linearGradient id="paint3_linear_250_6552" x1="84.7676" y1="39.5488" x2="87.1452" y2="39.7897" gradientUnits="userSpaceOnUse">
<stop stop-color="#C1BFF5"/>
<stop offset="0.529185" stop-color="#C5DAEF"/>
<stop offset="1" stop-color="#C8EBEC"/>
</linearGradient>
<linearGradient id="paint4_linear_250_6552" x1="89.4141" y1="39.5488" x2="91.7917" y2="39.7897" gradientUnits="userSpaceOnUse">
<stop stop-color="#C1BFF5"/>
<stop offset="0.529185" stop-color="#C5DAEF"/>
<stop offset="1" stop-color="#C8EBEC"/>
</linearGradient>
<linearGradient id="paint5_linear_250_6552" x1="87.6509" y1="62.0318" x2="133.321" y2="67.5487" gradientUnits="userSpaceOnUse">
<stop stop-color="#C1BFF5"/>
<stop offset="0.529185" stop-color="#C5DAEF"/>
<stop offset="1" stop-color="#C8EBEC"/>
</linearGradient>
<linearGradient id="paint6_linear_250_6552" x1="96.5703" y1="69.7261" x2="105.146" y2="82.8209" gradientUnits="userSpaceOnUse">
<stop stop-color="#C1BFF5"/>
<stop offset="0.529185" stop-color="#C5DAEF"/>
<stop offset="1" stop-color="#C8EBEC"/>
</linearGradient>
<linearGradient id="paint7_linear_250_6552" x1="104.653" y1="75.5583" x2="113.249" y2="81.2208" gradientUnits="userSpaceOnUse">
<stop stop-color="#C1BFF5"/>
<stop offset="0.529185" stop-color="#C5DAEF"/>
<stop offset="1" stop-color="#C8EBEC"/>
</linearGradient>
<linearGradient id="paint8_linear_250_6552" x1="22.4865" y1="41.2368" x2="55.336" y2="52.1524" gradientUnits="userSpaceOnUse">
<stop stop-color="#C1BFF5"/>
<stop offset="0.529185" stop-color="#C5DAEF"/>
<stop offset="1" stop-color="#C8EBEC"/>
</linearGradient>
<linearGradient id="paint9_linear_250_6552" x1="26.3189" y1="43.9537" x2="34.8948" y2="57.0485" gradientUnits="userSpaceOnUse">
<stop stop-color="#C1BFF5"/>
<stop offset="0.529185" stop-color="#C5DAEF"/>
<stop offset="1" stop-color="#C8EBEC"/>
</linearGradient>
<linearGradient id="paint10_linear_250_6552" x1="22.4865" y1="59.1485" x2="55.3728" y2="70.0146" gradientUnits="userSpaceOnUse">
<stop stop-color="#C1BFF5"/>
<stop offset="0.529185" stop-color="#C5DAEF"/>
<stop offset="1" stop-color="#C8EBEC"/>
</linearGradient>
<linearGradient id="paint11_linear_250_6552" x1="22.4865" y1="77.1182" x2="55.3728" y2="87.9843" gradientUnits="userSpaceOnUse">
<stop stop-color="#C1BFF5"/>
<stop offset="0.529185" stop-color="#C5DAEF"/>
<stop offset="1" stop-color="#C8EBEC"/>
</linearGradient>
<linearGradient id="paint12_linear_250_6552" x1="26.3189" y1="61.9235" x2="34.8948" y2="75.0184" gradientUnits="userSpaceOnUse">
<stop stop-color="#C1BFF5"/>
<stop offset="0.529185" stop-color="#C5DAEF"/>
<stop offset="1" stop-color="#C8EBEC"/>
</linearGradient>
<linearGradient id="paint13_linear_250_6552" x1="22.4865" y1="95.146" x2="55.336" y2="106.062" gradientUnits="userSpaceOnUse">
<stop stop-color="#C1BFF5"/>
<stop offset="0.529185" stop-color="#C5DAEF"/>
<stop offset="1" stop-color="#C8EBEC"/>
</linearGradient>
<linearGradient id="paint14_linear_250_6552" x1="26.3189" y1="97.8629" x2="34.8948" y2="110.958" gradientUnits="userSpaceOnUse">
<stop stop-color="#C1BFF5"/>
<stop offset="0.529185" stop-color="#C5DAEF"/>
<stop offset="1" stop-color="#C8EBEC"/>
</linearGradient>
<linearGradient id="paint15_linear_250_6552" x1="44.1442" y1="72.4681" x2="77.0273" y2="83.3319" gradientUnits="userSpaceOnUse">
<stop stop-color="#C1BFF5"/>
<stop offset="0.529185" stop-color="#C5DAEF"/>
<stop offset="1" stop-color="#C8EBEC"/>
</linearGradient>
<linearGradient id="paint16_linear_250_6552" x1="78.8318" y1="81.5372" x2="93.9151" y2="83.0658" gradientUnits="userSpaceOnUse">
<stop stop-color="#C1BFF5"/>
<stop offset="0.529185" stop-color="#C5DAEF"/>
<stop offset="1" stop-color="#C8EBEC"/>
</linearGradient>
<linearGradient id="paint17_linear_250_6552" x1="47.6445" y1="75.1348" x2="56.2204" y2="88.2297" gradientUnits="userSpaceOnUse">
<stop stop-color="#C1BFF5"/>
<stop offset="0.529185" stop-color="#C5DAEF"/>
<stop offset="1" stop-color="#C8EBEC"/>
</linearGradient>
<linearGradient id="paint18_linear_250_6552" x1="12.2007" y1="11.1434" x2="20.9082" y2="11.4226" gradientUnits="userSpaceOnUse">
<stop stop-color="#9F9BFB"/>
<stop offset="1" stop-color="#94FFD9"/>
</linearGradient>
<linearGradient id="paint19_linear_250_6552" x1="19.1206" y1="2.53751" x2="24.924" y2="2.7239" gradientUnits="userSpaceOnUse">
<stop stop-color="#9F9BFB"/>
<stop offset="1" stop-color="#94FFD9"/>
</linearGradient>
<linearGradient id="paint20_linear_250_6552" x1="122.79" y1="12.8285" x2="143.02" y2="13.4795" gradientUnits="userSpaceOnUse">
<stop stop-color="#9F9BFB"/>
<stop offset="1" stop-color="#94FFD9"/>
</linearGradient>
<clipPath id="clip0_250_6552">
<rect width="27.1248" height="33" fill="white" transform="translate(11)"/>
</clipPath>
</defs>
</svg>
