<svg width="211" height="42" viewBox="0 0 211 42" fill="none" xmlns="http://www.w3.org/2000/svg">
<path d="M13.2806 9.75365C10.6371 9.75365 8.47609 10.6738 6.86059 12.1665V0.408958H0V31.8169H6.86059V19.63C6.86059 16.665 8.43413 15.2746 10.679 15.2746C12.6092 15.2746 13.973 15.9698 13.973 18.9757V31.8169H20.8335V17.6465C20.8335 12.5755 18.2739 9.75365 13.2806 9.75365Z" fill="white"/>
<path d="M49.8495 20.9796C49.8495 14.3749 44.5624 9.75365 37.2612 9.75365C29.8551 9.75365 24.589 14.3749 24.589 21C24.589 27.2775 29.3516 32.2259 37.2612 32.2259C42.6951 32.2259 46.3877 29.7313 48.234 26.8277L42.0238 24.2103C41.1216 25.9075 39.3383 26.9503 37.2192 26.9503C34.4289 26.9503 32.142 25.2941 31.5755 22.4109H49.7655C49.8285 21.9202 49.8495 21.4294 49.8495 20.9796ZM37.2192 14.6816C39.9677 14.6816 41.73 16.0516 42.5273 18.1577H31.8902C32.7085 15.888 34.5967 14.6816 37.2192 14.6816Z" fill="white"/>
<path d="M59.2067 31.8169L64.0112 25.703L68.7948 31.8169H77.4597L68.3542 20.9387L77.4597 10.1626H68.8367L63.9903 16.2152L59.1857 10.1626H50.5418L59.6473 20.9387L50.5418 31.8169H59.2067Z" fill="white"/>
<path d="M84.0895 7.38169C86.1246 7.38169 87.866 5.74586 87.866 3.68062C87.866 1.63583 86.1246 0 84.0895 0C81.9705 0 80.2291 1.63583 80.2291 3.68062C80.2291 5.74586 81.9705 7.38169 84.0895 7.38169ZM87.4673 31.8169V10.1626H80.6277V31.8169H87.4673Z" fill="white"/>
<path d="M103.874 42C111.238 42 116.357 37.4606 116.357 30.9377V10.1626H109.497V12.2278C107.713 10.6329 105.322 9.75365 102.615 9.75365C96.3211 9.75365 91.4326 14.5998 91.4326 20.9796C91.4326 27.3389 96.3211 32.2259 102.615 32.2259C105.322 32.2259 107.713 31.3466 109.497 29.7721V30.999C109.497 34.2502 107.084 36.3973 103.853 36.3973C101.168 36.3973 98.9226 35.2726 97.1183 33.0234L92.5026 37.2152C96.0903 41.0798 100.16 42 103.874 42ZM104.063 26.6436C100.853 26.6436 98.2932 24.4148 98.2932 20.9796C98.2932 17.5648 100.853 15.3359 104.063 15.3359C107.252 15.3359 109.853 17.6465 109.853 20.9796C109.853 24.3535 107.252 26.6436 104.063 26.6436Z" fill="white"/>
<path d="M132.974 32.2259C140.275 32.2259 145.562 27.6047 145.562 20.9796C145.562 14.3749 140.275 9.75365 132.974 9.75365C125.568 9.75365 120.302 14.3749 120.302 20.9796C120.302 27.6047 125.568 32.2259 132.974 32.2259ZM132.932 26.6436C129.722 26.6436 127.162 24.4148 127.162 20.9796C127.162 17.5648 129.722 15.3359 132.932 15.3359C136.121 15.3359 138.722 17.6465 138.722 20.9796C138.722 24.3535 136.121 26.6436 132.932 26.6436Z" fill="white"/>
<path d="M162.829 9.75365C160.185 9.75365 158.024 10.6738 156.409 12.1665V10.1626H149.569V31.8169H156.409V19.63C156.409 16.665 157.983 15.2746 160.227 15.2746C162.158 15.2746 163.521 15.9698 163.521 18.9757V31.8169H170.382V17.6465C170.382 12.5755 167.843 9.75365 162.829 9.75365Z" fill="white"/>
<path d="M203.237 31.8169L189.957 0.408958H186.621L173.34 31.8169H177.326L180.306 24.7011H196.314L199.293 31.8169H203.237ZM188.32 5.52093L194.929 21.3476H181.69L188.32 5.52093Z" fill="white"/>
<path d="M211 31.8169V0.408958H207.349V31.8169H211Z" fill="white"/>
</svg>
