<svg width="96" height="96" viewBox="0 0 96 96" fill="none" xmlns="http://www.w3.org/2000/svg">
<path d="M26 34H10C8.89543 34 8 34.8954 8 36V88C8 89.1046 8.89543 90 10 90H26C27.1046 90 28 89.1046 28 88V36C28 34.8954 27.1046 34 26 34Z" fill="#535353"/>
<path d="M17.9201 25.9997C19.9012 26.0155 21.8424 25.4425 23.4974 24.3534C25.1524 23.2643 26.4466 21.7081 27.2157 19.8823C27.9849 18.0565 28.1944 16.0433 27.8176 14.0983C27.4408 12.1532 26.4948 10.3639 25.0995 8.95739C23.7042 7.55085 21.9226 6.59047 19.9806 6.19809C18.0386 5.80571 16.0239 5.99901 14.192 6.75348C12.36 7.50795 10.7935 8.78958 9.6911 10.4358C8.58871 12.0819 8.00014 14.0185 8.00008 15.9997C7.99482 17.3077 8.24723 18.6039 8.74291 19.8143C9.23859 21.0247 9.96783 22.1256 10.889 23.0542C11.8101 23.9828 12.9052 24.7209 14.1116 25.2262C15.318 25.7316 16.6121 25.9944 17.9201 25.9997V25.9997Z" fill="#535353"/>
<path d="M74 89.9999H86C86.5304 89.9999 87.0391 89.7892 87.4142 89.4142C87.7893 89.0391 88 88.5304 88 87.9999V54.3999C88 39.3199 79.48 31.9999 67.56 31.9999C65.1996 31.9159 62.8478 32.3282 60.6567 33.2102C58.4656 34.0921 56.484 35.4241 54.84 37.1199C54.6165 37.3625 54.322 37.528 53.9986 37.5927C53.6751 37.6574 53.3396 37.6179 53.04 37.4799C52.7376 37.367 52.4764 37.1652 52.2908 36.901C52.1052 36.6369 52.0038 36.3228 52 35.9999C52 35.4695 51.7893 34.9608 51.4142 34.5857C51.0391 34.2106 50.5304 33.9999 50 33.9999H38C37.4696 33.9999 36.9609 34.2106 36.5858 34.5857C36.2107 34.9608 36 35.4695 36 35.9999V87.9999C36 88.5304 36.2107 89.0391 36.5858 89.4142C36.9609 89.7892 37.4696 89.9999 38 89.9999H50C50.5304 89.9999 51.0391 89.7892 51.4142 89.4142C51.7893 89.0391 52 88.5304 52 87.9999V57.9999C52 55.3478 53.0536 52.8042 54.9289 50.9289C56.8043 49.0535 59.3478 47.9999 62 47.9999C64.6522 47.9999 67.1957 49.0535 69.0711 50.9289C70.9464 52.8042 72 55.3478 72 57.9999V87.9999C72 88.5304 72.2107 89.0391 72.5858 89.4142C72.9609 89.7892 73.4696 89.9999 74 89.9999Z" fill="#535353"/>
</svg>
