<svg width="24" height="24" viewBox="0 0 24 24" fill="none" xmlns="http://www.w3.org/2000/svg">
<path d="M4.40434 13.6099C3.51517 13.1448 3 12.5924 3 12C3 10.3431 7.02944 9 12 9C16.9706 9 21 10.3431 21 12C21 12.7144 20.2508 13.3705 19 13.8858" stroke="url(#paint0_linear_179_5089)" stroke-width="1.5" stroke-linecap="round" stroke-linejoin="round"/>
<path d="M12 11.01L12.01 10.9989" stroke="url(#paint1_linear_179_5089)" stroke-width="1.5" stroke-linecap="round" stroke-linejoin="round"/>
<path d="M16.8827 6C16.878 4.97702 16.6199 4.25309 16.0856 3.98084C14.6093 3.22864 11.5832 6.20912 9.32664 10.6379C7.07005 15.0667 6.43747 19.2668 7.91374 20.019C8.44117 20.2877 9.16642 20.08 9.98372 19.5" stroke="url(#paint2_linear_179_5089)" stroke-width="1.5" stroke-linecap="round" stroke-linejoin="round"/>
<path d="M9.6008 4.25164C8.94044 3.86579 8.35706 3.75489 7.91356 3.98086C6.4373 4.73306 7.06987 8.93309 9.32646 13.3619C11.583 17.7907 14.6091 20.7712 16.0854 20.019C17.3976 19.3504 17.0436 15.9577 15.364 12.1016" stroke="url(#paint3_linear_179_5089)" stroke-width="1.5" stroke-linecap="round" stroke-linejoin="round"/>
<defs>
<linearGradient id="paint0_linear_179_5089" x1="12" y1="9" x2="12" y2="13.8858" gradientUnits="userSpaceOnUse">
<stop stop-color="#8BC1E9"/>
<stop offset="1" stop-color="#AA8DFB"/>
</linearGradient>
<linearGradient id="paint1_linear_179_5089" x1="12.005" y1="11" x2="12.005" y2="11.01" gradientUnits="userSpaceOnUse">
<stop stop-color="#8BC1E9"/>
<stop offset="1" stop-color="#AA8DFB"/>
</linearGradient>
<linearGradient id="paint2_linear_179_5089" x1="9.32664" y1="10.6379" x2="13.4493" y2="12.7385" gradientUnits="userSpaceOnUse">
<stop stop-color="#8BC1E9"/>
<stop offset="1" stop-color="#AA8DFB"/>
</linearGradient>
<linearGradient id="paint3_linear_179_5089" x1="14.6294" y1="10.6599" x2="9.32646" y2="13.3619" gradientUnits="userSpaceOnUse">
<stop stop-color="#8BC1E9"/>
<stop offset="1" stop-color="#AA8DFB"/>
</linearGradient>
</defs>
</svg>
