<svg width="36" height="32" viewBox="0 0 36 32" fill="none" xmlns="http://www.w3.org/2000/svg">
<g style="mix-blend-mode:multiply" filter="url(#filter0_d_244_6149)">
<path d="M8.31102 2.93018C8.42873 2.96198 8.53057 2.98384 8.62514 3.01631C11.1685 3.89288 13.7132 4.76878 16.2507 5.65529C16.371 5.69703 16.5059 5.83882 16.5066 5.93423C16.5192 8.98466 16.5165 12.0358 16.5152 15.0862C16.5152 15.116 16.5033 15.1465 16.4901 15.2068C16.3717 15.173 16.2613 15.1465 16.1568 15.1107C13.6392 14.2394 11.1229 13.3655 8.60464 12.4969C8.40493 12.428 8.28523 12.3604 8.28589 12.165C8.29581 9.145 8.29317 6.12505 8.29383 3.10443C8.29383 3.05407 8.30441 3.00438 8.31234 2.93018H8.31102Z" fill="#2A50C0"/>
</g>
<g style="mix-blend-mode:multiply">
<path d="M0.0317427 15.2383C2.90182 16.2175 5.73155 17.1836 8.58641 18.1575V27.7388C8.45812 27.7024 8.35363 27.6772 8.25377 27.6434C5.60722 26.7496 2.96199 25.8545 0.314782 24.9627C0.124326 24.8991 0 24.8428 0 24.6546C0.0105809 21.5498 0.00859699 18.4451 0.00991961 15.3403C0.00991961 15.3198 0.0185166 15.2992 0.0317427 15.2383Z" fill="#47C4C5"/>
</g>
<g style="mix-blend-mode:multiply" filter="url(#filter1_d_244_6149)">
<path d="M8.448 27.7057V18.1377C11.1408 17.1902 13.8423 16.2401 16.5913 15.2734C16.6006 15.4099 16.6138 15.5166 16.6138 15.6239C16.6151 18.5995 16.6112 21.5744 16.6218 24.55C16.6224 24.7891 16.5417 24.9111 16.2408 25.0137C13.7682 25.8618 11.3055 26.7265 8.83883 27.5851C8.72972 27.6229 8.61663 27.6541 8.448 27.7057Z" fill="#1F23DD"/>
</g>
<g style="mix-blend-mode:multiply" opacity="0.5">
<path d="M8.19134 2.82486C8.36989 2.75778 8.49752 2.70566 8.62912 2.65954C11.1077 1.7904 13.5843 0.918863 16.0695 0.0599052C16.2461 -0.00119222 16.5172 -0.024553 16.6852 0.0329505C19.2682 0.918863 21.842 1.82035 24.4165 2.72004C24.4939 2.74699 24.5633 2.78772 24.6691 2.83744C22.6131 3.55204 20.5935 4.25346 18.5739 4.95489C18.0858 5.1244 17.5707 5.26037 17.1143 5.46882C16.6184 5.69464 16.2137 5.64014 15.7124 5.46044C13.3793 4.62424 11.0257 3.82039 8.67938 3.00456C8.53389 2.95425 8.39105 2.89854 8.19067 2.82486H8.19134Z" fill="#4DD5D6"/>
</g>
<g style="mix-blend-mode:multiply" opacity="0.5">
<path d="M16.4929 15.2383C19.363 16.2175 22.1927 17.1836 25.0476 18.1575V27.7388C24.9193 27.7024 24.8148 27.6772 24.715 27.6434C22.0684 26.7496 19.4232 25.8545 16.776 24.9627C16.5855 24.8984 16.4605 24.8421 16.4612 24.6546C16.4718 21.5498 16.4698 18.4451 16.4711 15.3403C16.4711 15.3198 16.4797 15.2992 16.4929 15.2383V15.2383Z" fill="#1D20CC"/>
</g>
<g style="mix-blend-mode:multiply" filter="url(#filter2_d_244_6149)">
<path d="M24.9094 27.7057V18.1377C27.6023 17.1902 30.3037 16.2401 33.0528 15.2734C33.062 15.4099 33.0752 15.5166 33.0752 15.6239C33.0766 18.5995 33.0726 21.5744 33.0832 24.55C33.0838 24.7891 33.0032 24.9111 32.7023 25.0137C30.2296 25.8618 27.7669 26.7265 25.3003 27.5851C25.1911 27.6229 25.0781 27.6541 24.9094 27.7057V27.7057Z" fill="#3768D3"/>
</g>
<g style="mix-blend-mode:multiply">
<path d="M16.4612 15.2706C19.1758 14.292 21.8283 13.3333 24.4861 12.3838C24.6039 12.3421 24.7897 12.3421 24.9074 12.3838C27.6174 13.3565 30.3228 14.2715 33.0831 15.2706C31.3333 15.8881 29.6377 16.552 27.9428 17.1503C26.9912 17.4862 26.0435 17.8301 25.0859 18.1554C24.9451 18.2031 24.7302 18.2078 24.592 18.1594C21.952 17.2371 19.318 16.3042 16.6827 15.3727C16.6298 15.3541 16.5815 15.3263 16.4612 15.27V15.2706Z" fill="#41A3D7"/>
</g>
<g style="mix-blend-mode:multiply" opacity="0.3" filter="url(#filter3_d_244_6149)">
<path d="M24.852 2.77832C24.852 4.71447 24.852 6.60048 24.852 8.48649C24.852 9.68255 24.8507 10.8779 24.854 12.074C24.854 12.2231 24.8493 12.3367 24.6181 12.417C21.9813 13.3235 19.3512 14.2415 16.7184 15.1547C16.6836 15.1668 16.6415 15.1661 16.5379 15.1795C16.5379 15.0584 16.5379 14.9508 16.5379 14.8438C16.5379 11.8748 16.5413 8.90635 16.5313 5.93727C16.5306 5.71263 16.6075 5.59697 16.8929 5.50003C19.422 4.63893 21.9418 3.76311 24.465 2.89198C24.574 2.85454 24.6882 2.82646 24.8527 2.77832H24.852Z" fill="#4DD5D6"/>
</g>
<g style="mix-blend-mode:multiply" opacity="0.3">
<path d="M0 15.2433C2.74373 14.2559 5.42463 13.2885 8.11087 12.3304C8.22985 12.2883 8.41766 12.2883 8.53664 12.3304C11.2757 13.3119 14.0101 14.2351 16.7999 15.2433C15.0314 15.8664 13.3176 16.5363 11.6045 17.14C10.6427 17.479 9.68492 17.826 8.7171 18.1543C8.57473 18.2024 8.35751 18.2071 8.21782 18.1583C5.54962 17.2276 2.88743 16.2863 0.22391 15.3463C0.170439 15.3276 0.121646 15.2995 0 15.2427L0 15.2433Z" fill="#2A50C0"/>
</g>
<defs>
<filter id="filter0_d_244_6149" x="5.45449" y="0.953724" width="13.8933" height="17.9392" filterUnits="userSpaceOnUse" color-interpolation-filters="sRGB">
<feFlood flood-opacity="0" result="BackgroundImageFix"/>
<feColorMatrix in="SourceAlpha" type="matrix" values="0 0 0 0 0 0 0 0 0 0 0 0 0 0 0 0 0 0 127 0" result="hardAlpha"/>
<feOffset dy="0.854943"/>
<feGaussianBlur stdDeviation="1.4157"/>
<feComposite in2="hardAlpha" operator="out"/>
<feColorMatrix type="matrix" values="0 0 0 0 0.369547 0 0 0 0 0.312361 0 0 0 0 0.720833 0 0 0 0.6 0"/>
<feBlend mode="normal" in2="BackgroundImageFix" result="effect1_dropShadow_244_6149"/>
<feBlend mode="normal" in="SourceGraphic" in2="effect1_dropShadow_244_6149" result="shape"/>
</filter>
<filter id="filter1_d_244_6149" x="5.6166" y="13.297" width="13.8366" height="18.0949" filterUnits="userSpaceOnUse" color-interpolation-filters="sRGB">
<feFlood flood-opacity="0" result="BackgroundImageFix"/>
<feColorMatrix in="SourceAlpha" type="matrix" values="0 0 0 0 0 0 0 0 0 0 0 0 0 0 0 0 0 0 127 0" result="hardAlpha"/>
<feOffset dy="0.854943"/>
<feGaussianBlur stdDeviation="1.4157"/>
<feComposite in2="hardAlpha" operator="out"/>
<feColorMatrix type="matrix" values="0 0 0 0 0.369547 0 0 0 0 0.312361 0 0 0 0 0.720833 0 0 0 0.6 0"/>
<feBlend mode="normal" in2="BackgroundImageFix" result="effect1_dropShadow_244_6149"/>
<feBlend mode="normal" in="SourceGraphic" in2="effect1_dropShadow_244_6149" result="shape"/>
</filter>
<filter id="filter2_d_244_6149" x="22.078" y="13.297" width="13.8366" height="18.0949" filterUnits="userSpaceOnUse" color-interpolation-filters="sRGB">
<feFlood flood-opacity="0" result="BackgroundImageFix"/>
<feColorMatrix in="SourceAlpha" type="matrix" values="0 0 0 0 0 0 0 0 0 0 0 0 0 0 0 0 0 0 127 0" result="hardAlpha"/>
<feOffset dy="0.854943"/>
<feGaussianBlur stdDeviation="1.4157"/>
<feComposite in2="hardAlpha" operator="out"/>
<feColorMatrix type="matrix" values="0 0 0 0 0.369547 0 0 0 0 0.312361 0 0 0 0 0.720833 0 0 0 0.6 0"/>
<feBlend mode="normal" in2="BackgroundImageFix" result="effect1_dropShadow_244_6149"/>
<feBlend mode="normal" in="SourceGraphic" in2="effect1_dropShadow_244_6149" result="shape"/>
</filter>
<filter id="filter3_d_244_6149" x="14.8214" y="1.92338" width="11.7425" height="15.8211" filterUnits="userSpaceOnUse" color-interpolation-filters="sRGB">
<feFlood flood-opacity="0" result="BackgroundImageFix"/>
<feColorMatrix in="SourceAlpha" type="matrix" values="0 0 0 0 0 0 0 0 0 0 0 0 0 0 0 0 0 0 127 0" result="hardAlpha"/>
<feOffset dy="0.854943"/>
<feGaussianBlur stdDeviation="0.854943"/>
<feComposite in2="hardAlpha" operator="out"/>
<feColorMatrix type="matrix" values="0 0 0 0 0.369547 0 0 0 0 0.312361 0 0 0 0 0.720833 0 0 0 0.5 0"/>
<feBlend mode="normal" in2="BackgroundImageFix" result="effect1_dropShadow_244_6149"/>
<feBlend mode="normal" in="SourceGraphic" in2="effect1_dropShadow_244_6149" result="shape"/>
</filter>
</defs>
</svg>
