<svg width="144" height="110" viewBox="0 0 144 110" fill="none" xmlns="http://www.w3.org/2000/svg">
<path d="M28.2818 59.5647H27.579C27.0519 59.5647 26.7004 59.4006 26.7004 59.1544C26.7004 58.9083 27.0519 58.7441 27.579 58.7441H28.2818C28.8089 58.7441 29.1603 58.9083 29.1603 59.1544C29.1603 59.4006 28.8089 59.5647 28.2818 59.5647Z" fill="#989FB0"/>
<path d="M28.2818 62.8469H27.579C27.0519 62.8469 26.7004 62.6828 26.7004 62.4366C26.7004 62.1905 27.0519 62.0264 27.579 62.0264H28.2818C28.8089 62.0264 29.1603 62.1905 29.1603 62.4366C29.1603 62.6828 28.8089 62.8469 28.2818 62.8469Z" fill="#989FB0"/>
<path d="M28.2818 66.1291H27.579C27.0519 66.1291 26.7004 65.965 26.7004 65.7189C26.7004 65.4727 27.0519 65.3086 27.579 65.3086H28.2818C28.8089 65.3086 29.1603 65.4727 29.1603 65.7189C29.1603 65.965 28.8089 66.1291 28.2818 66.1291Z" fill="#989FB0"/>
<path d="M28.2818 69.4114H27.579C27.0519 69.4114 26.7004 69.2473 26.7004 69.0011C26.7004 68.7549 27.0519 68.5908 27.579 68.5908H28.2818C28.8089 68.5908 29.1603 68.7549 29.1603 69.0011C29.1603 69.2473 28.8089 69.4114 28.2818 69.4114Z" fill="#989FB0"/>
<path d="M60.358 59.5647H48.8004C48.3319 59.5647 48.0195 59.4006 48.0195 59.1544C48.0195 58.9083 48.3319 58.7441 48.8004 58.7441H60.358C60.8266 58.7441 61.139 58.9083 61.139 59.1544C61.139 59.4006 60.8266 59.5647 60.358 59.5647Z" fill="white"/>
<path d="M84.9835 69.4114H48.7739C48.3213 69.4114 48.0195 69.2473 48.0195 69.0011C48.0195 68.7549 48.3213 68.5908 48.7739 68.5908H84.9835C85.4362 68.5908 85.7379 68.7549 85.7379 69.0011C85.7379 69.2473 85.4362 69.4114 84.9835 69.4114Z" fill="#989FB0"/>
<path d="M60.4031 62.8469H44.6556C44.2141 62.8469 43.9197 62.6828 43.9197 62.4366C43.9197 62.1905 44.2141 62.0264 44.6556 62.0264H60.4031C60.8446 62.0264 61.139 62.1905 61.139 62.4366C61.139 62.6828 60.8446 62.8469 60.4031 62.8469Z" fill="#989FB0"/>
<path d="M72.7041 66.1291H44.654C44.2134 66.1291 43.9197 65.965 43.9197 65.7189C43.9197 65.4727 44.2134 65.3086 44.654 65.3086H72.7041C73.1447 65.3086 73.4384 65.4727 73.4384 65.7189C73.2916 65.965 72.9979 66.1291 72.7041 66.1291Z" fill="#989FB0"/>
<path d="M84.9393 66.1291H74.2371C73.7579 66.1291 73.4384 65.965 73.4384 65.7189C73.4384 65.4727 73.7579 65.3086 74.2371 65.3086H84.9393C85.4185 65.3086 85.7379 65.4727 85.7379 65.7189C85.7379 65.965 85.4185 66.1291 84.9393 66.1291Z" fill="white"/>
<path d="M91.522 66.1291H87.3335C86.8681 66.1291 86.5579 65.965 86.5579 65.7189C86.5579 65.4727 86.8681 65.3086 87.3335 65.3086H91.522C91.9874 65.3086 92.2976 65.4727 92.2976 65.7189C92.2976 65.965 91.9874 66.1291 91.522 66.1291Z" fill="#989FB0"/>
<path d="M1.28174 103.26H139.036" stroke="#D5DDEA" stroke-width="2" stroke-miterlimit="10" stroke-linecap="round" stroke-linejoin="round"/>
<path d="M47.1996 58.7442L62.8445 34.1276H143.135L127.048 58.7442H47.1996Z" fill="#C2C8D6"/>
<path d="M47.1996 58.7442L62.8445 34.1276H143.135L127.048 58.7442H47.1996Z" fill="#EAEEF9"/>
<path d="M17.8361 60.3068H46.7363L32.0616 38.0486C31.0134 36.5746 29.3662 35.6901 27.7191 35.6901H5.25777C3.76035 35.6901 2.71215 37.459 3.61061 38.6382L17.8361 60.3068Z" fill="#EAEEF9"/>
<g filter="url(#filter0_d_8_2733)">
<path d="M116.392 15.2131V72.7356C116.392 74.8167 114.624 76.5305 112.478 76.5305H28.9849C26.8387 76.5305 25.0713 74.8167 25.0713 72.7356V15.2131C25.0713 13.132 26.8387 11.4181 28.9849 11.4181H112.478C114.624 11.4181 116.392 13.132 116.392 15.2131Z" fill="url(#paint0_linear_8_2733)"/>
</g>
<path d="M116.392 15.2131V17.9675H25.0713V15.2131C25.0713 13.132 26.8387 11.4181 28.9849 11.4181H112.478C114.624 11.4181 116.392 13.132 116.392 15.2131Z" fill="url(#paint1_linear_8_2733)"/>
<path d="M120.091 8.51601C120.518 8.94492 121.231 9.08789 121.801 8.65898L127.217 3.94096C127.645 3.51204 127.787 2.79719 127.36 2.22531C126.932 1.7964 126.22 1.65343 125.649 2.08234L120.233 6.80037C119.806 7.22928 119.663 8.0871 120.091 8.51601Z" fill="#989FB0"/>
<path d="M121.8 14.6013C121.943 14.8873 122.37 15.1732 122.798 15.1732H126.86C127.573 15.1732 128 14.6013 128 14.0294C128 13.3146 127.43 12.8857 126.86 12.8857H122.798C122.085 12.8857 121.658 13.4576 121.658 14.0294C121.658 14.1724 121.658 14.3154 121.8 14.6013Z" fill="#989FB0"/>
<path d="M113.57 6.22838C113.712 6.37135 113.997 6.37135 114.14 6.37135C114.853 6.37135 115.28 5.94243 115.423 5.22758L115.565 1.14383C115.565 0.571943 115.138 6.10352e-05 114.425 6.10352e-05C113.712 6.10352e-05 113.285 0.428973 113.142 1.14383L113 5.22758C113 5.65649 113.285 5.94244 113.57 6.22838Z" fill="#989FB0"/>
<path d="M29.174 15.8864C29.8364 15.8864 30.3733 15.3657 30.3733 14.7234C30.3733 14.0811 29.8364 13.5604 29.174 13.5604C28.5116 13.5604 27.9747 14.0811 27.9747 14.7234C27.9747 15.3657 28.5116 15.8864 29.174 15.8864Z" fill="#EAEEF9"/>
<path opacity="0.6" d="M32.8984 15.8864C33.5608 15.8864 34.0977 15.3657 34.0977 14.7234C34.0977 14.0811 33.5608 13.5604 32.8984 13.5604C32.236 13.5604 31.6991 14.0811 31.6991 14.7234C31.6991 15.3657 32.236 15.8864 32.8984 15.8864Z" fill="#EAEEF9"/>
<path opacity="0.4" d="M36.6853 15.8864C37.3477 15.8864 37.8846 15.3657 37.8846 14.7234C37.8846 14.0811 37.3477 13.5604 36.6853 13.5604C36.023 13.5604 35.486 14.0811 35.486 14.7234C35.486 15.3657 36.023 15.8864 36.6853 15.8864Z" fill="#EAEEF9"/>
<path d="M48.4111 27.2215H35.1294C34.2993 27.2215 33.6075 26.3853 33.6075 25.7164C33.6075 24.8802 34.2993 24.2113 35.1294 24.2113H48.4111C49.2412 24.2113 49.9329 25.0475 49.9329 25.7164C49.9329 26.5525 49.2412 27.2215 48.4111 27.2215Z" fill="#989FB0"/>
<path d="M44.8191 48.2927H35.0933C34.2829 48.2927 33.6075 47.4565 33.6075 46.7876C33.6075 45.9515 34.2829 45.2825 35.0933 45.2825H44.8191C45.6296 45.2825 46.305 46.1187 46.305 46.7876C46.1699 47.4565 45.4945 48.2927 44.8191 48.2927Z" fill="#989FB0"/>
<path d="M107.323 48.2927H88.6802C87.8282 48.2927 87.1182 47.4565 87.1182 46.7876C87.1182 45.9515 87.8282 45.2825 88.6802 45.2825H107.323C108.175 45.2825 108.885 46.1187 108.885 46.7876C108.743 47.4565 108.033 48.2927 107.323 48.2927Z" fill="#D5DDEA"/>
<path d="M81.006 48.2927H52.4185C51.5577 48.2927 50.8403 47.4565 50.8403 46.7876C50.8403 45.9515 51.5577 45.2825 52.4185 45.2825H81.006C81.8668 45.2825 82.5842 46.1187 82.5842 46.7876C82.4407 47.4565 81.7234 48.2927 81.006 48.2927Z" fill="#D5DDEA"/>
<path d="M58.316 55.0656H40.6427C39.7736 55.0656 39.0493 54.2294 39.0493 53.5605C39.0493 52.7243 39.7736 52.0554 40.6427 52.0554H58.316C59.1852 52.0554 59.9095 52.8916 59.9095 53.5605C59.7646 54.3967 59.0403 55.0656 58.316 55.0656Z" fill="#D5DDEA"/>
<path d="M74.7002 55.0656H65.0732C64.2357 55.0656 63.5379 54.2294 63.5379 53.5605C63.5379 52.7243 64.2357 52.0554 65.0732 52.0554H74.7002C75.5376 52.0554 76.2355 52.8916 76.2355 53.5605C76.0959 54.3967 75.398 55.0656 74.7002 55.0656Z" fill="#D5DDEA"/>
<path d="M55.5972 62.5911H35.1988C34.3308 62.5911 33.6075 61.7549 33.6075 61.086C33.6075 60.2499 34.3308 59.5809 35.1988 59.5809H55.5972C56.4653 59.5809 57.1886 60.4171 57.1886 61.086C57.1886 61.9222 56.6099 62.5911 55.5972 62.5911Z" fill="#989FB0"/>
<path d="M70.1685 62.5911H62.3482C61.5127 62.5911 60.8165 61.7549 60.8165 61.086C60.8165 60.2499 61.5127 59.5809 62.3482 59.5809H70.1685C71.0039 59.5809 71.7001 60.4171 71.7001 61.086C71.7001 61.9222 71.1432 62.5911 70.1685 62.5911Z" fill="#D5DDEA"/>
<path d="M43.8164 69.364H35.1891C34.3264 69.364 33.6075 68.5278 33.6075 67.8589C33.6075 67.0227 34.3264 66.3538 35.1891 66.3538H43.8164C44.6791 66.3538 45.398 67.19 45.398 67.8589C45.398 68.6951 44.8229 69.364 43.8164 69.364Z" fill="#D5DDEA"/>
<path d="M51.2286 69.364H49.5442C48.7668 69.364 48.119 68.5278 48.119 67.8589C48.119 67.0227 48.7668 66.3538 49.5442 66.3538H51.2286C52.006 66.3538 52.6538 67.19 52.6538 67.8589C52.6538 68.6951 52.006 69.364 51.2286 69.364Z" fill="#D5DDEA"/>
<path d="M38.5869 41.5198H34.9768C34.2299 41.5198 33.6075 40.6837 33.6075 40.0147C33.6075 39.1786 34.2299 38.5096 34.9768 38.5096H38.5869C39.3338 38.5096 39.9562 39.3458 39.9562 40.0147C39.9562 40.8509 39.3338 41.5198 38.5869 41.5198Z" fill="#D5DDEA"/>
<path d="M70.1339 41.5198H47.873C47.0183 41.5198 46.3059 40.6837 46.3059 40.0147C46.3059 39.1786 47.0183 38.5096 47.873 38.5096H70.1339C70.9887 38.5096 71.701 39.3458 71.701 40.0147C71.701 40.8509 70.9887 41.5198 70.1339 41.5198Z" fill="#D5DDEA"/>
<path d="M55.5972 33.9944H35.1988C34.3308 33.9944 33.6075 33.1582 33.6075 32.4893C33.6075 31.6531 34.3308 30.9842 35.1988 30.9842H55.5972C56.4653 30.9842 57.1886 31.8203 57.1886 32.4893C57.1886 33.3254 56.6099 33.9944 55.5972 33.9944Z" fill="#D5DDEA"/>
<path d="M82.8063 33.9944H62.4079C61.5399 33.9944 60.8165 33.1582 60.8165 32.4893C60.8165 31.6531 61.5399 30.9842 62.4079 30.9842H82.8063C83.6743 30.9842 84.3977 31.8203 84.3977 32.4893C84.3977 33.3254 83.819 33.9944 82.8063 33.9944Z" fill="#989FB0"/>
<path d="M97.3775 33.9944H89.5573C88.7218 33.9944 88.0256 33.1582 88.0256 32.4893C88.0256 31.6531 88.7218 30.9842 89.5573 30.9842H97.3775C98.213 30.9842 98.9092 31.8203 98.9092 32.4893C98.9092 33.3254 98.3522 33.9944 97.3775 33.9944Z" fill="#989FB0"/>
<path d="M98.0374 58.7441V103.26H23.6369C20.702 103.26 18.5008 100.899 18.5008 98.0966V58.7441H98.0374Z" fill="#D5DDEA"/>
<path d="M127.556 58.7441V98.0966C127.556 101.047 125.109 103.26 122.203 103.26H98.0374V58.7441H127.556Z" fill="#C2C8D6"/>
<path opacity="0.3" d="M127.556 58.8879V86.643H106.032C104.033 86.643 102.65 85.3487 102.342 83.4792L98.0374 58.7441L127.556 58.8879Z" fill="url(#paint2_linear_8_2733)"/>
<path d="M126.938 58.7443H98.0373L112.712 81.0024C113.76 82.4765 115.407 83.3609 117.055 83.3609H139.516C141.013 83.3609 142.061 81.592 141.163 80.4128L126.938 58.7443Z" fill="url(#paint3_linear_8_2733)"/>
<path d="M1.27978 83.7442L17.0342 59.1276H98.0356L81.6867 83.7442H1.27978Z" fill="url(#paint4_linear_8_2733)"/>
<defs>
<filter id="filter0_d_8_2733" x="3.07126" y="0.418091" width="135.32" height="109.112" filterUnits="userSpaceOnUse" color-interpolation-filters="sRGB">
<feFlood flood-opacity="0" result="BackgroundImageFix"/>
<feColorMatrix in="SourceAlpha" type="matrix" values="0 0 0 0 0 0 0 0 0 0 0 0 0 0 0 0 0 0 127 0" result="hardAlpha"/>
<feOffset dy="11"/>
<feGaussianBlur stdDeviation="11"/>
<feColorMatrix type="matrix" values="0 0 0 0 0.397708 0 0 0 0 0.47749 0 0 0 0 0.575 0 0 0 0.27 0"/>
<feBlend mode="normal" in2="BackgroundImageFix" result="effect1_dropShadow_8_2733"/>
<feBlend mode="normal" in="SourceGraphic" in2="effect1_dropShadow_8_2733" result="shape"/>
</filter>
<linearGradient id="paint0_linear_8_2733" x1="70.7016" y1="9.91198" x2="70.7016" y2="77.2325" gradientUnits="userSpaceOnUse">
<stop stop-color="#FDFEFF"/>
<stop offset="0.9964" stop-color="#ECF0F5"/>
</linearGradient>
<linearGradient id="paint1_linear_8_2733" x1="112.769" y1="11.4181" x2="28.0545" y2="15.5306" gradientUnits="userSpaceOnUse">
<stop stop-color="#B0BACC"/>
<stop offset="1" stop-color="#969EAE"/>
</linearGradient>
<linearGradient id="paint2_linear_8_2733" x1="112.804" y1="87.2156" x2="112.804" y2="61.8031" gradientUnits="userSpaceOnUse">
<stop offset="0.00289017" stop-color="#606673" stop-opacity="0"/>
<stop offset="1" stop-color="#AAB2C5"/>
</linearGradient>
<linearGradient id="paint3_linear_8_2733" x1="119.752" y1="58.1749" x2="119.752" y2="83.6263" gradientUnits="userSpaceOnUse">
<stop stop-color="#FDFEFF"/>
<stop offset="0.9964" stop-color="#ECF0F5"/>
</linearGradient>
<linearGradient id="paint4_linear_8_2733" x1="49.6892" y1="58.5582" x2="49.6892" y2="84.0096" gradientUnits="userSpaceOnUse">
<stop stop-color="#FDFEFF"/>
<stop offset="0.9964" stop-color="#ECF0F5"/>
</linearGradient>
</defs>
</svg>
