<svg width="142" height="129" viewBox="0 0 142 129" fill="none" xmlns="http://www.w3.org/2000/svg">
<path d="M132.468 104.007C134.885 104.007 136.843 102.049 136.843 99.6327C136.843 97.2166 134.885 95.2579 132.468 95.2579C130.052 95.2579 128.094 97.2166 128.094 99.6327C128.094 102.049 130.052 104.007 132.468 104.007Z" fill="#DEE8FB"/>
<path d="M138.871 86.9352C140.521 86.9352 141.859 85.5976 141.859 83.9476C141.859 82.2976 140.521 80.96 138.871 80.96C137.221 80.96 135.883 82.2976 135.883 83.9476C135.883 85.5976 137.221 86.9352 138.871 86.9352Z" fill="#DEE8FB"/>
<path d="M23.7943 33.3963C25.4443 33.3963 26.7819 32.0587 26.7819 30.4086C26.7819 28.7586 25.4443 27.421 23.7943 27.421C22.1442 27.421 20.8066 28.7586 20.8066 30.4086C20.8066 32.0587 22.1442 33.3963 23.7943 33.3963Z" fill="#DEE8FB"/>
<path d="M5.54843 91.0146C8.61275 91.0146 11.0969 88.5304 11.0969 85.4661C11.0969 82.4018 8.61275 79.9177 5.54843 79.9177C2.48412 79.9177 0 82.4018 0 85.4661C0 88.5304 2.48412 91.0146 5.54843 91.0146Z" fill="#DEE8FB"/>
<rect opacity="0.2" x="43.2222" y="98.7777" width="76.9525" height="30.2222" rx="6" fill="url(#paint0_linear_250_6553)"/>
<rect x="39.0991" y="92.8949" width="76.9525" height="30.8855" rx="5" fill="white" stroke="url(#paint1_linear_250_6553)" stroke-width="2" stroke-miterlimit="10"/>
<path d="M50.0913 104.661H96.1254" stroke="url(#paint2_linear_250_6553)" stroke-width="2" stroke-miterlimit="10"/>
<path d="M50.0913 112.75H76.8873" stroke="url(#paint3_linear_250_6553)" stroke-width="2" stroke-miterlimit="10"/>
<rect opacity="0.2" x="34.7588" y="49.0827" width="91.1445" height="40.7437" rx="6" fill="url(#paint4_linear_250_6553)"/>
<rect x="30.9434" y="44.7065" width="91.1445" height="40.1831" rx="5" fill="white" stroke="url(#paint5_linear_250_6553)" stroke-width="2" stroke-miterlimit="10"/>
<path d="M48.3113 71.2314C43.3735 71.2314 39.4233 67.2784 39.4233 62.3371C39.4233 57.3958 43.3735 53.4427 48.3113 53.4427C53.2491 53.4427 57.1993 57.3958 57.1993 62.3371C57.1993 67.1796 53.2491 71.2314 48.3113 71.2314Z" fill="url(#paint6_linear_250_6553)"/>
<path d="M53.6436 66.8832C52.261 65.4996 50.9772 64.709 48.3108 64.709C45.5457 64.709 44.3606 65.5984 42.978 66.8832C44.2618 68.3656 46.2369 69.3538 48.4096 69.3538C50.3847 69.3538 52.1622 68.5632 53.4461 67.2785C53.4461 67.1797 53.6436 67.0808 53.6436 66.8832C53.6436 66.8832 53.7423 66.8832 53.6436 66.8832Z" fill="white"/>
<path d="M48.3093 63.0288C49.9456 63.0288 51.272 61.7014 51.272 60.064C51.272 58.4266 49.9456 57.0992 48.3093 57.0992C46.6731 57.0992 45.3467 58.4266 45.3467 60.064C45.3467 61.7014 46.6731 63.0288 48.3093 63.0288Z" fill="white"/>
<path d="M63.4946 64.798H109.067" stroke="url(#paint7_linear_250_6553)" stroke-width="2" stroke-miterlimit="10"/>
<path d="M63.4946 56.6601H109.067" stroke="url(#paint8_linear_250_6553)" stroke-width="2" stroke-miterlimit="10"/>
<path d="M63.4946 72.9359H91.1635" stroke="url(#paint9_linear_250_6553)" stroke-width="2" stroke-miterlimit="10"/>
<g clip-path="url(#clip0_250_6553)">
<path d="M77.4614 7.49716C77.6404 8.52872 77.8193 9.56111 77.9999 10.5927C78.3017 12.3177 78.5763 14.0477 78.9135 15.7661C79.2285 17.3716 80.2749 18.3924 81.8276 18.7083C84.5743 19.2682 87.3491 19.6895 90.1254 20.2214C89.7156 20.3005 89.3074 20.3871 88.8968 20.458C86.6185 20.8522 84.341 21.248 82.061 21.6322C80.3854 21.9143 79.1197 23.1981 78.8261 24.9281C78.3841 27.5322 77.938 30.1354 77.4911 32.7386C77.4804 32.8013 77.4458 32.8607 77.3913 33C77.064 31.1208 76.7506 29.3248 76.4381 27.5297C76.2641 26.5328 76.1347 25.5251 75.9079 24.5406C75.5921 23.166 74.483 21.8483 72.3482 21.5349C69.8859 21.1738 67.4386 20.7046 64.9854 20.2799C64.8939 20.2643 64.8048 20.2304 64.6201 20.1793C67.3165 19.7176 69.9148 19.2591 72.5188 18.8311C74.4805 18.5087 75.7125 17.257 76.0341 15.292C76.4307 12.8619 76.876 10.4393 77.2998 8.01335C77.3295 7.84184 77.3526 7.66868 77.379 7.49551C77.4062 7.49551 77.4334 7.49551 77.4614 7.49634V7.49716Z" fill="#94A3B8"/>
<path d="M77.4614 7.49716C77.6404 8.52872 77.8193 9.56111 77.9999 10.5927C78.3017 12.3177 78.5763 14.0477 78.9135 15.7661C79.2285 17.3716 80.2749 18.3924 81.8276 18.7083C84.5743 19.2682 87.3491 19.6895 90.1254 20.2214C89.7156 20.3005 89.3074 20.3871 88.8968 20.458C86.6185 20.8522 84.341 21.248 82.061 21.6322C80.3854 21.9143 79.1197 23.1981 78.8261 24.9281C78.3841 27.5322 77.938 30.1354 77.4911 32.7386C77.4804 32.8013 77.4458 32.8607 77.3913 33C77.064 31.1208 76.7506 29.3248 76.4381 27.5297C76.2641 26.5328 76.1347 25.5251 75.9079 24.5406C75.5921 23.166 74.483 21.8483 72.3482 21.5349C69.8859 21.1738 67.4386 20.7046 64.9854 20.2799C64.8939 20.2643 64.8048 20.2304 64.6201 20.1793C67.3165 19.7176 69.9148 19.2591 72.5188 18.8311C74.4805 18.5087 75.7125 17.257 76.0341 15.292C76.4307 12.8619 76.876 10.4393 77.2998 8.01335C77.3295 7.84184 77.3526 7.66868 77.379 7.49551C77.4062 7.49551 77.4334 7.49551 77.4614 7.49634V7.49716Z" fill="url(#paint10_linear_250_6553)"/>
<path d="M68.4662 18.3413C68.265 17.2091 68.0621 16.0778 67.8634 14.9456C67.7076 14.0576 67.1856 13.5579 66.3 13.416C65.2289 13.2445 64.161 13.0524 63.0924 12.8677C63.0742 12.8644 63.0594 12.8421 63 12.7935C63.5937 12.6904 64.1519 12.5923 64.7102 12.4958C65.2717 12.3985 65.8358 12.3177 66.3932 12.2031C67.3398 12.0085 67.7603 11.4956 67.9261 10.4426C68.0894 9.40442 68.2823 8.37039 68.519 7.32976C68.6064 7.82121 68.6946 8.31184 68.7804 8.8033C68.8966 9.47286 68.9997 10.1449 69.1267 10.812C69.2784 11.6069 69.8606 12.095 70.7346 12.2344C71.8148 12.4067 72.8909 12.6038 73.9777 12.8454C73.7955 12.8817 73.6133 12.9221 73.4294 12.9534C72.4786 13.1167 71.5254 13.2651 70.5771 13.4424C69.6454 13.6164 69.2199 14.145 69.0451 15.2425C68.8793 16.279 68.6905 17.3122 68.5124 18.3471C68.4967 18.3454 68.4819 18.3438 68.4662 18.3421V18.3413Z" fill="#94A3B8"/>
<path d="M68.4662 18.3413C68.265 17.2091 68.0621 16.0778 67.8634 14.9456C67.7076 14.0576 67.1856 13.5579 66.3 13.416C65.2289 13.2445 64.161 13.0524 63.0924 12.8677C63.0742 12.8644 63.0594 12.8421 63 12.7935C63.5937 12.6904 64.1519 12.5923 64.7102 12.4958C65.2717 12.3985 65.8358 12.3177 66.3932 12.2031C67.3398 12.0085 67.7603 11.4956 67.9261 10.4426C68.0894 9.40442 68.2823 8.37039 68.519 7.32976C68.6064 7.82121 68.6946 8.31184 68.7804 8.8033C68.8966 9.47286 68.9997 10.1449 69.1267 10.812C69.2784 11.6069 69.8606 12.095 70.7346 12.2344C71.8148 12.4067 72.8909 12.6038 73.9777 12.8454C73.7955 12.8817 73.6133 12.9221 73.4294 12.9534C72.4786 13.1167 71.5254 13.2651 70.5771 13.4424C69.6454 13.6164 69.2199 14.145 69.0451 15.2425C68.8793 16.279 68.6905 17.3122 68.5124 18.3471C68.4967 18.3454 68.4819 18.3438 68.4662 18.3421V18.3413Z" fill="url(#paint11_linear_250_6553)"/>
<path d="M73.9765 7.32976C73.8941 6.86057 73.8133 6.39138 73.7283 5.92219C73.6681 5.58823 73.622 5.25097 73.537 4.92361C73.4109 4.43711 73.0678 4.18066 72.5789 4.10067C71.8986 3.98853 71.2183 3.87144 70.5388 3.75352C70.4795 3.7428 70.4234 3.71147 70.3203 3.67189C71.0954 3.5416 71.8186 3.42286 72.5409 3.29835C73.2369 3.17796 73.528 2.81102 73.6607 1.92541C73.7465 1.3515 73.8479 0.78006 73.9452 0.207796C73.9534 0.158321 73.979 0.111319 74.0186 0C74.1678 0.838606 74.2981 1.6096 74.4449 2.37729C74.5364 2.85472 74.8316 3.159 75.3115 3.25135C76.0825 3.4006 76.8568 3.53253 77.6369 3.71559C77.1801 3.79888 76.7241 3.88463 76.2672 3.96462C75.9654 4.01739 75.6595 4.04955 75.3602 4.11222C74.8316 4.22271 74.5092 4.56162 74.4111 5.08441C74.2717 5.82654 74.1604 6.57279 74.0376 7.31822C74.0169 7.32234 73.9971 7.32646 73.9765 7.33058V7.32976Z" fill="#94A3B8"/>
<path d="M73.9765 7.32976C73.8941 6.86057 73.8133 6.39138 73.7283 5.92219C73.6681 5.58823 73.622 5.25097 73.537 4.92361C73.4109 4.43711 73.0678 4.18066 72.5789 4.10067C71.8986 3.98853 71.2183 3.87144 70.5388 3.75352C70.4795 3.7428 70.4234 3.71147 70.3203 3.67189C71.0954 3.5416 71.8186 3.42286 72.5409 3.29835C73.2369 3.17796 73.528 2.81102 73.6607 1.92541C73.7465 1.3515 73.8479 0.78006 73.9452 0.207796C73.9534 0.158321 73.979 0.111319 74.0186 0C74.1678 0.838606 74.2981 1.6096 74.4449 2.37729C74.5364 2.85472 74.8316 3.159 75.3115 3.25135C76.0825 3.4006 76.8568 3.53253 77.6369 3.71559C77.1801 3.79888 76.7241 3.88463 76.2672 3.96462C75.9654 4.01739 75.6595 4.04955 75.3602 4.11222C74.8316 4.22271 74.5092 4.56162 74.4111 5.08441C74.2717 5.82654 74.1604 6.57279 74.0376 7.31822C74.0169 7.32234 73.9971 7.32646 73.9765 7.33058V7.32976Z" fill="url(#paint12_linear_250_6553)"/>
</g>
<path d="M91.4662 34.0115C91.265 32.8794 91.0621 31.748 90.8634 30.6159C90.7076 29.7278 90.1856 29.2281 89.3 29.0863C88.2289 28.9148 87.161 28.7226 86.0924 28.5379C86.0742 28.5346 86.0594 28.5124 86 28.4637C86.5937 28.3606 87.1519 28.2625 87.7102 28.166C88.2717 28.0687 88.8358 27.9879 89.3932 27.8733C90.3398 27.6787 90.7603 27.1658 90.9261 26.1128C91.0894 25.0747 91.2823 24.0406 91.519 23C91.6064 23.4915 91.6946 23.9821 91.7804 24.4735C91.8966 25.1431 91.9997 25.8151 92.1267 26.4822C92.2784 27.2771 92.8606 27.7653 93.7346 27.9046C94.8148 28.077 95.8909 28.2741 96.9777 28.5157C96.7955 28.5519 96.6133 28.5924 96.4294 28.6237C95.4786 28.787 94.5254 28.9354 93.5771 29.1127C92.6454 29.2867 92.2199 29.8152 92.0451 30.9127C91.8793 31.9492 91.6905 32.9825 91.5124 34.0173C91.4967 34.0157 91.4819 34.014 91.4662 34.0124V34.0115Z" fill="#94A3B8"/>
<path d="M91.4662 34.0115C91.265 32.8794 91.0621 31.748 90.8634 30.6159C90.7076 29.7278 90.1856 29.2281 89.3 29.0863C88.2289 28.9148 87.161 28.7226 86.0924 28.5379C86.0742 28.5346 86.0594 28.5124 86 28.4637C86.5937 28.3606 87.1519 28.2625 87.7102 28.166C88.2717 28.0687 88.8358 27.9879 89.3932 27.8733C90.3398 27.6787 90.7603 27.1658 90.9261 26.1128C91.0894 25.0747 91.2823 24.0406 91.519 23C91.6064 23.4915 91.6946 23.9821 91.7804 24.4735C91.8966 25.1431 91.9997 25.8151 92.1267 26.4822C92.2784 27.2771 92.8606 27.7653 93.7346 27.9046C94.8148 28.077 95.8909 28.2741 96.9777 28.5157C96.7955 28.5519 96.6133 28.5924 96.4294 28.6237C95.4786 28.787 94.5254 28.9354 93.5771 29.1127C92.6454 29.2867 92.2199 29.8152 92.0451 30.9127C91.8793 31.9492 91.6905 32.9825 91.5124 34.0173C91.4967 34.0157 91.4819 34.014 91.4662 34.0124V34.0115Z" fill="url(#paint13_linear_250_6553)"/>
<defs>
<linearGradient id="paint0_linear_250_6553" x1="50.8186" y1="106.753" x2="108.719" y2="121.705" gradientUnits="userSpaceOnUse">
<stop stop-color="#C1BFF5"/>
<stop offset="0.529185" stop-color="#C5DAEF"/>
<stop offset="1" stop-color="#C8EBEC"/>
</linearGradient>
<linearGradient id="paint1_linear_250_6553" x1="46.6956" y1="101.045" x2="104.75" y2="115.715" gradientUnits="userSpaceOnUse">
<stop stop-color="#C1BFF5"/>
<stop offset="0.529185" stop-color="#C5DAEF"/>
<stop offset="1" stop-color="#C8EBEC"/>
</linearGradient>
<linearGradient id="paint2_linear_250_6553" x1="54.6356" y1="104.925" x2="56.2563" y2="112.491" gradientUnits="userSpaceOnUse">
<stop stop-color="#C1BFF5"/>
<stop offset="0.529185" stop-color="#C5DAEF"/>
<stop offset="1" stop-color="#C8EBEC"/>
</linearGradient>
<linearGradient id="paint3_linear_250_6553" x1="52.7365" y1="113.014" x2="55.3012" y2="119.984" gradientUnits="userSpaceOnUse">
<stop stop-color="#C1BFF5"/>
<stop offset="0.529185" stop-color="#C5DAEF"/>
<stop offset="1" stop-color="#C8EBEC"/>
</linearGradient>
<linearGradient id="paint4_linear_250_6553" x1="43.7563" y1="59.8345" x2="113.327" y2="75.6184" gradientUnits="userSpaceOnUse">
<stop stop-color="#C1BFF5"/>
<stop offset="0.529185" stop-color="#C5DAEF"/>
<stop offset="1" stop-color="#C8EBEC"/>
</linearGradient>
<linearGradient id="paint5_linear_250_6553" x1="39.9408" y1="55.3103" x2="109.416" y2="71.2924" gradientUnits="userSpaceOnUse">
<stop stop-color="#C1BFF5"/>
<stop offset="0.529185" stop-color="#C5DAEF"/>
<stop offset="1" stop-color="#C8EBEC"/>
</linearGradient>
<linearGradient id="paint6_linear_250_6553" x1="41.1781" y1="58.137" x2="55.2998" y2="59.5681" gradientUnits="userSpaceOnUse">
<stop stop-color="#C1BFF5"/>
<stop offset="0.529185" stop-color="#C5DAEF"/>
<stop offset="1" stop-color="#C8EBEC"/>
</linearGradient>
<linearGradient id="paint7_linear_250_6553" x1="67.9934" y1="65.0619" x2="69.629" y2="72.6217" gradientUnits="userSpaceOnUse">
<stop stop-color="#C1BFF5"/>
<stop offset="0.529185" stop-color="#C5DAEF"/>
<stop offset="1" stop-color="#C8EBEC"/>
</linearGradient>
<linearGradient id="paint8_linear_250_6553" x1="67.9934" y1="56.924" x2="69.629" y2="64.4837" gradientUnits="userSpaceOnUse">
<stop stop-color="#C1BFF5"/>
<stop offset="0.529185" stop-color="#C5DAEF"/>
<stop offset="1" stop-color="#C8EBEC"/>
</linearGradient>
<linearGradient id="paint9_linear_250_6553" x1="66.226" y1="73.1998" x2="68.7283" y2="80.2217" gradientUnits="userSpaceOnUse">
<stop stop-color="#C1BFF5"/>
<stop offset="0.529185" stop-color="#C5DAEF"/>
<stop offset="1" stop-color="#C8EBEC"/>
</linearGradient>
<linearGradient id="paint10_linear_250_6553" x1="67.4098" y1="16.324" x2="87.6404" y2="16.975" gradientUnits="userSpaceOnUse">
<stop stop-color="#9F9BFB"/>
<stop offset="1" stop-color="#94FFD9"/>
</linearGradient>
<linearGradient id="paint11_linear_250_6553" x1="64.2007" y1="11.1434" x2="72.9082" y2="11.4226" gradientUnits="userSpaceOnUse">
<stop stop-color="#9F9BFB"/>
<stop offset="1" stop-color="#94FFD9"/>
</linearGradient>
<linearGradient id="paint12_linear_250_6553" x1="71.1206" y1="2.53751" x2="76.924" y2="2.7239" gradientUnits="userSpaceOnUse">
<stop stop-color="#9F9BFB"/>
<stop offset="1" stop-color="#94FFD9"/>
</linearGradient>
<linearGradient id="paint13_linear_250_6553" x1="87.2007" y1="26.8137" x2="95.9082" y2="27.0929" gradientUnits="userSpaceOnUse">
<stop stop-color="#9F9BFB"/>
<stop offset="1" stop-color="#94FFD9"/>
</linearGradient>
<clipPath id="clip0_250_6553">
<rect width="27.1248" height="33" fill="white" transform="translate(63)"/>
</clipPath>
</defs>
</svg>
