<svg width="21" height="25" viewBox="0 0 21 25" fill="none" xmlns="http://www.w3.org/2000/svg">
<g clip-path="url(#clip0_104_758)">
<path d="M10.7936 5.59596C10.9272 6.36592 11.0607 7.13651 11.1955 7.90647C11.4208 9.19406 11.6258 10.4853 11.8775 11.768C12.1126 12.9663 12.8937 13.7283 14.0526 13.964C16.1028 14.382 18.1739 14.6965 20.2462 15.0934C19.9403 15.1525 19.6356 15.2172 19.3291 15.2701C17.6285 15.5643 15.9286 15.8597 14.2268 16.1465C12.9761 16.357 12.0314 17.3153 11.8122 18.6066C11.4824 20.5503 11.1494 22.4934 10.8158 24.4364C10.8078 24.4832 10.7819 24.5275 10.7413 24.6316C10.497 23.2289 10.2631 21.8884 10.0298 20.5485C9.89995 19.8043 9.80332 19.0522 9.63406 18.3173C9.39833 17.2913 8.57051 16.3078 6.97703 16.0739C5.1392 15.8043 3.31245 15.4541 1.4814 15.1371C1.41308 15.1255 1.34661 15.1002 1.20874 15.0621C3.22136 14.7174 5.16074 14.3752 7.10443 14.0557C8.56866 13.8151 9.48819 12.8808 9.72823 11.4141C10.0243 9.60028 10.3566 7.79199 10.673 5.98125C10.6952 5.85323 10.7124 5.72398 10.7321 5.59473C10.7524 5.59473 10.7727 5.59473 10.7936 5.59534V5.59596Z" fill="#94A3B8"/>
<path d="M10.7936 5.59596C10.9272 6.36592 11.0607 7.13651 11.1955 7.90647C11.4208 9.19406 11.6258 10.4853 11.8775 11.768C12.1126 12.9663 12.8937 13.7283 14.0526 13.964C16.1028 14.382 18.1739 14.6965 20.2462 15.0934C19.9403 15.1525 19.6356 15.2172 19.3291 15.2701C17.6285 15.5643 15.9286 15.8597 14.2268 16.1465C12.9761 16.357 12.0314 17.3153 11.8122 18.6066C11.4824 20.5503 11.1494 22.4934 10.8158 24.4364C10.8078 24.4832 10.7819 24.5275 10.7413 24.6316C10.497 23.2289 10.2631 21.8884 10.0298 20.5485C9.89995 19.8043 9.80332 19.0522 9.63406 18.3173C9.39833 17.2913 8.57051 16.3078 6.97703 16.0739C5.1392 15.8043 3.31245 15.4541 1.4814 15.1371C1.41308 15.1255 1.34661 15.1002 1.20874 15.0621C3.22136 14.7174 5.16074 14.3752 7.10443 14.0557C8.56866 13.8151 9.48819 12.8808 9.72823 11.4141C10.0243 9.60028 10.3566 7.79199 10.673 5.98125C10.6952 5.85323 10.7124 5.72398 10.7321 5.59473C10.7524 5.59473 10.7727 5.59473 10.7936 5.59534V5.59596Z" fill="url(#paint0_linear_104_758)"/>
<path d="M4.08002 13.6902C3.92985 12.8451 3.77844 12.0007 3.63011 11.1557C3.51378 10.4928 3.12418 10.1198 2.46316 10.0139C1.66365 9.88591 0.866597 9.74251 0.0689339 9.60464C0.0553933 9.60218 0.0443146 9.58556 0 9.54925C0.443146 9.47231 0.859827 9.39907 1.27651 9.32706C1.69565 9.25443 2.11664 9.19411 2.53271 9.10856C3.23928 8.96331 3.55317 8.58048 3.67688 7.79451C3.79875 7.01962 3.94277 6.24781 4.11942 5.47107C4.18466 5.8379 4.25051 6.20411 4.31452 6.57093C4.40131 7.0707 4.47824 7.57232 4.57303 8.07025C4.68627 8.66357 5.1208 9.02793 5.77321 9.13195C6.57949 9.26059 7.3827 9.40769 8.1939 9.58802C8.05788 9.6151 7.92186 9.64526 7.78461 9.66865C7.07496 9.79051 6.36346 9.9013 5.65566 10.0336C4.96016 10.1635 4.64257 10.558 4.51209 11.3772C4.38838 12.1509 4.24744 12.9221 4.11449 13.6945C4.1028 13.6933 4.09172 13.692 4.08002 13.6908V13.6902Z" fill="#94A3B8"/>
<path d="M4.08002 13.6902C3.92985 12.8451 3.77844 12.0007 3.63011 11.1557C3.51378 10.4928 3.12418 10.1198 2.46316 10.0139C1.66365 9.88591 0.866597 9.74251 0.0689339 9.60464C0.0553933 9.60218 0.0443146 9.58556 0 9.54925C0.443146 9.47231 0.859827 9.39907 1.27651 9.32706C1.69565 9.25443 2.11664 9.19411 2.53271 9.10856C3.23928 8.96331 3.55317 8.58048 3.67688 7.79451C3.79875 7.01962 3.94277 6.24781 4.11942 5.47107C4.18466 5.8379 4.25051 6.20411 4.31452 6.57093C4.40131 7.0707 4.47824 7.57232 4.57303 8.07025C4.68627 8.66357 5.1208 9.02793 5.77321 9.13195C6.57949 9.26059 7.3827 9.40769 8.1939 9.58802C8.05788 9.6151 7.92186 9.64526 7.78461 9.66865C7.07496 9.79051 6.36346 9.9013 5.65566 10.0336C4.96016 10.1635 4.64257 10.558 4.51209 11.3772C4.38838 12.1509 4.24744 12.9221 4.11449 13.6945C4.1028 13.6933 4.09172 13.692 4.08002 13.6908V13.6902Z" fill="url(#paint1_linear_104_758)"/>
<path d="M8.19267 5.47101C8.13112 5.1208 8.0708 4.77059 8.00741 4.42038C7.96248 4.17112 7.92801 3.91938 7.86461 3.67504C7.77045 3.3119 7.51441 3.12049 7.14943 3.06079C6.64165 2.97708 6.13388 2.88968 5.62673 2.80167C5.58241 2.79367 5.54056 2.77028 5.46362 2.74074C6.04218 2.64349 6.58195 2.55486 7.12111 2.46192C7.64058 2.37206 7.85784 2.09817 7.95694 1.43715C8.02095 1.00877 8.09665 0.582245 8.16928 0.155101C8.17543 0.118172 8.19451 0.0830899 8.22406 0C8.33546 0.625944 8.4327 1.20142 8.54226 1.77443C8.61058 2.1308 8.83092 2.35791 9.18913 2.42684C9.76461 2.53824 10.3425 2.63672 10.9248 2.77336C10.5838 2.83552 10.2434 2.89953 9.90247 2.95923C9.67721 2.99862 9.44886 3.02263 9.22544 3.0694C8.83092 3.15188 8.59027 3.40484 8.51703 3.79506C8.41301 4.34899 8.32992 4.906 8.23821 5.46239C8.22283 5.46547 8.20805 5.46855 8.19267 5.47163V5.47101Z" fill="#94A3B8"/>
<path d="M8.19267 5.47101C8.13112 5.1208 8.0708 4.77059 8.00741 4.42038C7.96248 4.17112 7.92801 3.91938 7.86461 3.67504C7.77045 3.3119 7.51441 3.12049 7.14943 3.06079C6.64165 2.97708 6.13388 2.88968 5.62673 2.80167C5.58241 2.79367 5.54056 2.77028 5.46362 2.74074C6.04218 2.64349 6.58195 2.55486 7.12111 2.46192C7.64058 2.37206 7.85784 2.09817 7.95694 1.43715C8.02095 1.00877 8.09665 0.582245 8.16928 0.155101C8.17543 0.118172 8.19451 0.0830899 8.22406 0C8.33546 0.625944 8.4327 1.20142 8.54226 1.77443C8.61058 2.1308 8.83092 2.35791 9.18913 2.42684C9.76461 2.53824 10.3425 2.63672 10.9248 2.77336C10.5838 2.83552 10.2434 2.89953 9.90247 2.95923C9.67721 2.99862 9.44886 3.02263 9.22544 3.0694C8.83092 3.15188 8.59027 3.40484 8.51703 3.79506C8.41301 4.34899 8.32992 4.906 8.23821 5.46239C8.22283 5.46547 8.20805 5.46855 8.19267 5.47163V5.47101Z" fill="url(#paint2_linear_104_758)"/>
</g>
<defs>
<linearGradient id="paint0_linear_104_758" x1="3.29096" y1="12.1844" x2="18.3913" y2="12.6703" gradientUnits="userSpaceOnUse">
<stop stop-color="#4F41EF"/>
<stop offset="1" stop-color="#00B2FF"/>
</linearGradient>
<linearGradient id="paint1_linear_104_758" x1="0.896208" y1="8.31765" x2="7.39559" y2="8.52603" gradientUnits="userSpaceOnUse">
<stop stop-color="#4F41EF"/>
<stop offset="1" stop-color="#00B2FF"/>
</linearGradient>
<linearGradient id="paint2_linear_104_758" x1="6.06094" y1="1.89402" x2="10.3927" y2="2.03315" gradientUnits="userSpaceOnUse">
<stop stop-color="#4F41EF"/>
<stop offset="1" stop-color="#00B2FF"/>
</linearGradient>
<clipPath id="clip0_104_758">
<rect width="20.2463" height="24.6316" fill="white"/>
</clipPath>
</defs>
</svg>
