<svg width="136" height="122" viewBox="0 0 136 122" fill="none" xmlns="http://www.w3.org/2000/svg">
<path d="M72.0049 59.2101L104.632 19.9091" stroke="#D6DCE8" stroke-width="3" stroke-dasharray="4 4"/>
<path d="M72.0047 59.21L54.208 13.9768" stroke="#D6DCE8" stroke-width="3" stroke-dasharray="4 4"/>
<path d="M72.0046 59.2101L17.873 56.9855" stroke="#D6DCE8" stroke-width="3" stroke-dasharray="4 4"/>
<path d="M72.005 59.21L51.2422 106.668" stroke="#D6DCE8" stroke-width="3" stroke-dasharray="4 4"/>
<path d="M72.0049 59.21L118.721 85.905" stroke="#D6DCE8" stroke-width="3" stroke-dasharray="4 4"/>
<path d="M66.919 14.3196C66.919 17.9087 65.4856 21.099 63.256 23.4917C63.0968 23.731 62.8579 23.8905 62.619 24.05C60.2301 26.2832 57.0449 27.6391 53.5413 27.6391C50.7542 27.6391 48.1265 26.7618 45.9765 25.2464C45.3394 24.8476 44.782 24.2893 44.2246 23.8107C41.7561 21.418 40.2432 18.0682 40.2432 14.3196C40.2432 6.98184 46.2154 1 53.5413 1C60.9468 1 66.919 6.98184 66.919 14.3196Z" fill="#F1F3F9"/>
<path d="M66.919 14.3188C66.919 18.2269 65.2468 21.6565 62.619 24.129C60.2301 26.3622 57.0449 27.7181 53.5413 27.7181C50.7542 27.7181 48.1265 26.8408 45.9765 25.3254C42.4728 22.9326 40.2432 18.9447 40.2432 14.3985C40.2432 7.06082 46.2154 1.07898 53.5413 1.07898C60.8671 1.07898 66.919 6.98106 66.919 14.3188Z" fill="#F1F3F9" stroke="#D6DCE8" stroke-width="2" stroke-miterlimit="10"/>
<path d="M63.2565 23.4918C63.0972 23.7311 62.8583 23.8906 62.6195 24.0502C60.2306 26.2834 57.0454 27.6393 53.5417 27.6393C50.7547 27.6393 48.1269 26.7619 45.9769 25.2465C45.3399 24.8477 44.7825 24.2894 44.2251 23.8109C44.5436 23.4121 45.0214 23.1728 46.0566 22.774L46.4547 22.6145C47.251 22.2955 48.3658 21.8967 49.7991 21.2586C50.038 21.1789 50.1973 21.0194 50.3566 20.8598C50.4362 20.7801 50.5158 20.7003 50.5158 20.5408C50.5954 20.3813 50.6751 20.142 50.6751 19.9825V17.2707C50.5954 17.191 50.5954 17.191 50.5158 17.1112C50.2769 16.7922 50.1177 16.3934 50.1177 15.9148L49.9584 15.8351C49.2417 15.9946 49.3214 15.2768 49.1621 13.8411C49.0825 13.2828 49.1621 13.1233 49.4806 13.0436L49.7195 12.7245C49.2417 11.6079 49.0029 10.5711 49.0029 9.77349C49.0029 8.41761 49.5603 7.54027 50.3566 7.14148C49.8788 6.18439 49.8788 5.86536 49.8788 5.86536C49.8788 5.86536 52.6658 6.3439 53.6214 6.18439C54.8158 5.94512 56.7269 6.26415 57.4436 7.8593C58.638 8.33785 59.0361 9.05567 59.1954 9.85325C59.3547 11.1294 58.638 12.4853 58.4787 13.0436V13.1233C58.638 13.2031 58.7176 13.3626 58.638 13.9209C58.4787 15.2768 58.4787 16.0744 57.8417 15.9148L57.2047 17.0315C57.2047 17.191 57.2047 17.191 57.125 17.2707C57.125 17.51 57.125 17.9088 57.125 20.0623C57.125 20.3015 57.2047 20.6206 57.3639 20.7801C57.4436 20.8598 57.4436 20.9396 57.5232 20.9396C57.6824 21.0991 57.8417 21.2586 58.001 21.2586C59.5935 21.8967 60.7084 22.3752 61.5843 22.6943C62.3806 23.0133 62.938 23.2526 63.2565 23.4918Z" fill="white"/>
<path d="M63.2565 23.4917C63.0972 23.731 62.8583 23.8905 62.6195 24.0501C60.2306 26.2833 57.0454 27.6392 53.5417 27.6392C50.7547 27.6392 48.1269 26.7618 45.9769 25.2464C45.3399 24.8476 44.7825 24.2893 44.2251 23.8108C44.5436 23.412 45.0214 23.1727 46.0566 22.7739L46.4547 22.6144C47.251 22.2954 48.3658 21.8966 49.7991 21.2585C50.038 21.1788 50.1973 21.0193 50.3566 20.8597C51.1528 21.9764 52.4269 22.6942 53.9399 22.6942C55.3732 22.6942 56.6473 21.9764 57.4436 20.9395C57.6028 21.099 57.7621 21.2585 57.9213 21.2585C59.5139 21.8966 60.6287 22.3751 61.5046 22.6942C62.3806 23.0132 62.938 23.2525 63.2565 23.4917Z" fill="#D6DCE8"/>
<path d="M58.3988 12.9638C58.4784 12.6448 58.3191 12.1662 58.1599 11.927C58.1599 11.8472 58.0803 11.8472 58.0803 11.7674C57.5228 10.6508 56.3284 10.252 55.2136 10.1723C52.2673 10.0128 52.0284 10.5711 51.1525 9.77349C51.471 10.1723 51.471 10.8901 50.9932 11.6877C50.6747 12.246 50.1173 12.565 49.5599 12.7245C48.2062 9.69373 48.9229 7.77954 50.197 7.14148C49.7192 6.18439 49.7192 5.86536 49.7192 5.86536C49.7192 5.86536 52.5062 6.3439 53.4618 6.18439C54.6562 5.94512 56.5673 6.26415 57.284 7.8593C58.4784 8.33785 58.8765 9.05567 59.0358 9.85325C59.2747 11.0496 58.558 12.4055 58.3988 12.9638Z" fill="#AAB2C5"/>
<path d="M50.754 19.9823V17.2706C50.6744 17.1908 50.6744 17.1908 50.5947 17.1111V16.9515C50.754 17.1908 50.9132 17.4301 51.1521 17.5896L53.3021 19.105C53.7799 19.5038 54.4966 19.5038 54.9743 19.105L56.9651 17.3503C57.0447 17.2706 57.1243 17.2706 57.204 17.1908C57.204 17.4301 57.204 17.8289 57.204 19.9823C57.204 20.1418 57.204 20.2216 57.2836 20.3811H50.754C50.6744 20.2216 50.754 20.1418 50.754 19.9823Z" fill="url(#paint0_linear_180_5129)"/>
<path d="M92.0757 59.5171C92.0757 65.2946 89.7685 70.4301 86.1794 74.2817C85.9231 74.6668 85.5385 74.9236 85.154 75.1804C81.3086 78.7753 76.1813 80.9578 70.5414 80.9578C66.0551 80.9578 61.8251 79.5456 58.3643 77.1062C57.3388 76.4643 56.4415 75.5656 55.5443 74.7952C51.5707 70.9436 49.1353 65.5513 49.1353 59.5171C49.1353 47.7055 58.7488 38.0764 70.5414 38.0764C82.4622 38.0764 92.0757 47.7055 92.0757 59.5171Z" fill="#F1F3F9"/>
<path d="M92.0757 59.5159C92.0757 65.8069 89.3839 71.3276 85.154 75.3076C81.3086 78.9024 76.1813 81.085 70.5414 81.085C66.0551 81.085 61.8251 79.6728 58.3643 77.2334C52.7243 73.3818 49.1353 66.9624 49.1353 59.6443C49.1353 47.8327 58.7488 38.2036 70.5414 38.2036C82.334 38.2036 92.0757 47.7043 92.0757 59.5159Z" fill="#F1F3F9" stroke="#D6DCE8" stroke-width="2" stroke-miterlimit="10"/>
<path d="M86.181 74.2817C85.9247 74.6669 85.5401 74.9237 85.1556 75.1804C81.3102 78.7753 76.183 80.9579 70.543 80.9579C66.0567 80.9579 61.8267 79.5456 58.3659 77.1063C57.3404 76.4643 56.4432 75.5656 55.5459 74.7953C56.0586 74.1533 56.8277 73.7682 58.4941 73.1262L59.135 72.8695C60.4168 72.3559 62.2113 71.714 64.5185 70.6869C64.9031 70.5585 65.1594 70.3017 65.4158 70.0449C65.544 69.9165 65.6722 69.7882 65.6722 69.5314C65.8003 69.2746 65.9285 68.8894 65.9285 68.6327V64.2675C65.8003 64.1391 65.8003 64.1391 65.6722 64.0107C65.2876 63.4972 65.0313 62.8552 65.0313 62.0849L64.7749 61.9565C63.6213 62.2133 63.7495 61.0578 63.4931 58.7468C63.3649 57.8481 63.4931 57.5913 64.0058 57.463L64.3904 56.9494C63.6213 55.152 63.2367 53.4829 63.2367 52.1991C63.2367 50.0165 64.134 48.6042 65.4158 47.9623C64.6467 46.4216 64.6467 45.9081 64.6467 45.9081C64.6467 45.9081 69.133 46.6784 70.6712 46.4216C72.5939 46.0365 75.6702 46.55 76.8239 49.1178C78.7466 49.8881 79.3875 51.0436 79.6438 52.3275C79.9002 54.3817 78.7466 56.5642 78.4902 57.463V57.5913C78.7466 57.7197 78.8747 57.9765 78.7466 58.8752C78.4902 61.0578 78.4902 62.3417 77.4648 62.0849L76.4393 63.8823C76.4393 64.1391 76.4393 64.1391 76.3111 64.2675C76.3111 64.6527 76.3111 65.2946 76.3111 68.7611C76.3111 69.1462 76.4393 69.6598 76.6957 69.9165C76.8239 70.0449 76.8239 70.1733 76.952 70.1733C77.2084 70.4301 77.4648 70.6869 77.7211 70.6869C80.2847 71.714 82.0793 72.4843 83.4892 72.9978C84.7711 73.5114 85.6683 73.8966 86.181 74.2817Z" fill="white"/>
<path d="M86.1796 74.2816C85.9232 74.6667 85.5387 74.9235 85.1541 75.1803C81.3087 78.7752 76.1815 80.9577 70.5416 80.9577C66.0552 80.9577 61.8253 79.5455 58.3644 77.1061C57.339 76.4642 56.4417 75.5655 55.5444 74.7951C56.0572 74.1532 56.8262 73.768 58.4926 73.1261L59.1335 72.8693C60.4153 72.3558 62.2098 71.7138 64.5171 70.6867C64.9016 70.5583 65.158 70.3016 65.4143 70.0448C66.6961 71.8422 68.747 72.9977 71.1825 72.9977C73.4897 72.9977 75.5406 71.8422 76.8224 70.1732C77.0788 70.43 77.3351 70.6867 77.5915 70.6867C80.1551 71.7138 81.9496 72.4842 83.3596 72.9977C84.7696 73.5113 85.6669 73.8964 86.1796 74.2816Z" fill="#D6DCE8"/>
<path d="M78.3611 57.3346C78.4893 56.821 78.2329 56.0507 77.9765 55.6655C77.9765 55.5371 77.8484 55.5371 77.8484 55.4088C76.9511 53.6113 75.0284 52.9694 73.2339 52.841C68.4912 52.5842 68.1066 53.4829 66.6967 52.1991C67.2094 52.841 67.2094 53.9965 66.4403 55.2804C65.9276 56.1791 65.0303 56.6926 64.133 56.9494C61.954 52.0707 63.1076 48.9894 65.1585 47.9623C64.3894 46.4216 64.3894 45.9081 64.3894 45.9081C64.3894 45.9081 68.8757 46.6784 70.4139 46.4216C72.3366 46.0365 75.4129 46.55 76.5665 49.1178C78.4893 49.8881 79.1302 51.0436 79.3865 52.3275C79.7711 54.2533 78.6174 56.4359 78.3611 57.3346Z" fill="#AAB2C5"/>
<path d="M66.0552 68.6325V64.2673C65.927 64.1389 65.927 64.1389 65.7988 64.0106V63.7538C66.0552 64.1389 66.3116 64.5241 66.6961 64.7809L70.157 67.2202C70.926 67.8622 72.0797 67.8622 72.8488 67.2202L76.0533 64.3957C76.1814 64.2673 76.3096 64.2673 76.4378 64.1389C76.4378 64.5241 76.4378 65.166 76.4378 68.6325C76.4378 68.8893 76.4378 69.0177 76.566 69.2744H66.0552C65.927 69.0177 66.0552 68.8893 66.0552 68.6325Z" fill="url(#paint1_linear_180_5129)"/>
<path d="M112.12 19.8911C112.12 22.1841 111.204 24.2224 109.779 25.7511C109.678 25.9039 109.525 26.0059 109.372 26.1078C107.846 27.5345 105.811 28.4008 103.573 28.4008C101.792 28.4008 100.113 27.8403 98.7396 26.8721C98.3326 26.6173 97.9765 26.2606 97.6204 25.9549C96.0433 24.4262 95.0767 22.286 95.0767 19.8911C95.0767 15.2031 98.8922 11.3813 103.573 11.3813C108.304 11.3813 112.12 15.2031 112.12 19.8911Z" fill="#F1F3F9"/>
<path d="M112.12 19.8907C112.12 22.3875 111.051 24.5787 109.372 26.1583C107.846 27.5851 105.811 28.4513 103.573 28.4513C101.792 28.4513 100.113 27.8908 98.7396 26.9227C96.5011 25.394 95.0767 22.8461 95.0767 19.9416C95.0767 15.2536 98.8922 11.4319 103.573 11.4319C108.253 11.4319 112.12 15.2027 112.12 19.8907Z" fill="#F1F3F9" stroke="#D6DCE8" stroke-width="2" stroke-miterlimit="10"/>
<path d="M109.78 25.7511C109.678 25.904 109.526 26.0059 109.373 26.1078C107.847 27.5346 105.812 28.4009 103.573 28.4009C101.793 28.4009 100.114 27.8403 98.7403 26.8722C98.3333 26.6174 97.9772 26.2607 97.6211 25.955C97.8246 25.7002 98.1298 25.5473 98.7912 25.2925L99.0456 25.1906C99.5543 24.9868 100.267 24.732 101.182 24.3243C101.335 24.2734 101.437 24.1715 101.538 24.0696C101.589 24.0186 101.64 23.9677 101.64 23.8657C101.691 23.7638 101.742 23.611 101.742 23.509V21.7765C101.691 21.7256 101.691 21.7256 101.64 21.6746C101.488 21.4708 101.386 21.216 101.386 20.9103L101.284 20.8593C100.826 20.9612 100.877 20.5026 100.775 19.5854C100.724 19.2287 100.775 19.1268 100.979 19.0758L101.131 18.872C100.826 18.1586 100.674 17.4962 100.674 16.9866C100.674 16.1204 101.03 15.5598 101.538 15.305C101.233 14.6936 101.233 14.4897 101.233 14.4897C101.233 14.4897 103.014 14.7955 103.624 14.6936C104.387 14.5407 105.608 14.7445 106.066 15.7637C106.829 16.0694 107.084 16.528 107.185 17.0376C107.287 17.8529 106.829 18.7191 106.728 19.0758V19.1268C106.829 19.1777 106.88 19.2797 106.829 19.6363C106.728 20.5026 106.728 21.0122 106.321 20.9103L105.914 21.6237C105.914 21.7256 105.914 21.7256 105.863 21.7765C105.863 21.9294 105.863 22.1842 105.863 23.56C105.863 23.7129 105.914 23.9167 106.015 24.0186C106.066 24.0696 106.066 24.1205 106.117 24.1205C106.219 24.2224 106.321 24.3243 106.422 24.3243C107.44 24.732 108.152 25.0377 108.712 25.2416C109.22 25.4454 109.577 25.5983 109.78 25.7511Z" fill="white"/>
<path d="M109.78 25.7511C109.678 25.904 109.525 26.0059 109.373 26.1078C107.846 27.5346 105.811 28.4009 103.573 28.4009C101.792 28.4009 100.113 27.8404 98.7398 26.8722C98.3328 26.6174 97.9767 26.2607 97.6206 25.955C97.8241 25.7002 98.1294 25.5473 98.7907 25.2925L99.0451 25.1906C99.5538 24.9868 100.266 24.732 101.182 24.3244C101.334 24.2734 101.436 24.1715 101.538 24.0696C102.047 24.783 102.861 25.2416 103.827 25.2416C104.743 25.2416 105.557 24.783 106.066 24.1205C106.167 24.2224 106.269 24.3244 106.371 24.3244C107.388 24.732 108.101 25.0378 108.66 25.2416C109.22 25.4454 109.576 25.5983 109.78 25.7511Z" fill="#D6DCE8"/>
<path d="M106.677 19.0249C106.727 18.821 106.626 18.5153 106.524 18.3624C106.524 18.3115 106.473 18.3115 106.473 18.2605C106.117 17.5471 105.354 17.2924 104.642 17.2414C102.759 17.1395 102.607 17.4962 102.047 16.9866C102.25 17.2414 102.25 17.7 101.945 18.2096C101.742 18.5663 101.386 18.7701 101.029 18.872C100.165 16.9357 100.622 15.7127 101.436 15.305C101.131 14.6936 101.131 14.4897 101.131 14.4897C101.131 14.4897 102.912 14.7955 103.522 14.6936C104.285 14.5407 105.506 14.7445 105.964 15.7637C106.727 16.0694 106.982 16.528 107.083 17.0376C107.236 17.8019 106.778 18.6682 106.677 19.0249Z" fill="#AAB2C5"/>
<path d="M101.792 23.509V21.7765C101.741 21.7255 101.741 21.7255 101.69 21.6745V21.5726C101.792 21.7255 101.894 21.8784 102.047 21.9803L103.42 22.9485C103.725 23.2032 104.183 23.2032 104.489 22.9485L105.76 21.8274C105.811 21.7765 105.862 21.7765 105.913 21.7255C105.913 21.8784 105.913 22.1332 105.913 23.509C105.913 23.6109 105.913 23.6618 105.964 23.7638H101.792C101.741 23.6618 101.792 23.6109 101.792 23.509Z" fill="url(#paint2_linear_180_5129)"/>
<path d="M32.2515 56.9859C32.2515 61.396 30.3779 65.337 27.3801 68.1519C26.5369 68.9026 25.6938 69.5594 24.6633 70.1224C22.415 71.4361 19.7919 72.1867 16.9815 72.1867C14.171 72.1867 11.5479 71.4361 9.2996 70.1224C8.92487 69.9347 8.64383 69.7471 8.26911 69.4656C4.3345 66.7444 1.71143 62.1467 1.71143 56.9859C1.71143 48.5409 8.55015 41.785 16.8878 41.785C25.4128 41.6912 32.2515 48.5409 32.2515 56.9859Z" fill="#F1F3F9" stroke="#D6DCE8" stroke-width="2" stroke-miterlimit="10"/>
<path d="M13.8903 60.3634C14.0776 60.5511 14.265 60.8325 14.546 61.0202C14.7334 61.2079 14.9207 61.3017 15.1081 61.4894C15.2018 61.5832 15.3892 61.677 15.4828 61.7709C15.4828 61.7709 15.5765 61.7709 15.5765 61.8647L15.6702 61.9585V63.2722C15.6702 63.2722 15.6702 63.2722 15.5765 63.1784C15.4828 63.0845 15.2955 62.9907 15.2018 62.8969C15.0144 62.803 14.8271 62.6154 14.6397 62.5215C14.546 62.5215 14.546 62.4277 14.4523 62.4277C13.7966 62.0524 13.2345 61.677 13.2345 61.2079C13.3282 61.0202 13.5155 60.7387 13.8903 60.3634ZM26.9221 67.6212C26.36 66.4013 25.6004 65.2427 24.2889 64.5858C23.6331 64.3043 22.8836 64.0229 22.1342 64.0229C21.9468 64.0229 21.6658 64.0229 21.4784 64.0229C21.3848 64.0229 21.2911 64.0229 21.1974 64.0229C20.1669 63.929 20.0732 63.7414 20.0732 63.7414V61.5832C20.729 61.0202 21.3847 60.3634 21.9468 59.7066C22.4152 59.0497 22.79 58.2991 22.9773 57.3608C23.8205 57.1731 24.3825 56.4224 24.2889 55.4841C24.2889 55.1088 24.0078 54.7334 24.0078 54.3581C24.0078 54.1704 24.0078 53.9828 24.0078 53.7951C24.0078 53.7013 24.0078 53.5136 24.0078 53.4198C24.0078 53.326 24.0078 53.1383 24.0078 53.0445C23.9141 52.3876 23.7268 51.7308 23.3521 50.9801C22.2279 48.9158 20.1669 47.6022 17.7312 47.6022C17.2628 47.6022 16.7944 47.696 16.326 47.7898C15.4828 47.9775 14.6397 48.3528 13.9839 48.9158C13.8903 49.0097 13.7029 49.1035 13.6092 49.2912L13.5155 49.385C12.7661 50.1357 12.1103 50.9801 11.8293 52.0123C11.4545 53.0445 11.4545 54.0766 11.5482 55.1088C11.5482 55.1088 11.5482 55.1088 11.5482 55.2026V55.2964C11.5482 55.4841 11.6419 55.4841 11.5482 55.5779C11.5482 55.6718 11.4545 55.6718 11.4545 55.7656C11.2672 56.0471 11.1735 56.4224 11.3609 56.9854C11.7356 57.9237 12.2977 57.8299 12.9534 58.2991C12.9534 58.2991 12.8598 58.2991 12.8598 58.3929L12.204 58.5806C9.2062 59.5189 8.17571 62.0524 9.48724 63.6475C9.95565 64.2105 10.7051 64.6797 11.8293 64.9612C11.5482 64.9612 11.2672 65.1488 11.0798 65.3365C9.76829 66.3687 8.92516 67.9638 8.73779 69.4651C8.73779 69.559 8.73779 69.6528 8.73779 69.7466C9.11252 69.9343 9.39356 70.2158 9.76828 70.4035L24.4379 70.0602C25.3747 69.4972 25.7892 69.0626 26.6323 68.312C26.5386 67.8428 27.0158 67.715 26.9221 67.6212Z" fill="white"/>
<path d="M27.38 68.1518C26.5369 68.9025 25.6937 69.5593 24.6632 70.1223C22.4149 71.4359 19.7918 72.1866 16.9814 72.1866C14.171 72.1866 11.5479 71.4359 9.29953 70.1223C8.92481 69.9346 8.64377 69.7469 8.26904 69.4654C8.26904 69.3716 8.26904 69.2778 8.26904 69.184C8.45641 67.6826 9.29954 66.0875 10.6111 65.0553C10.7984 64.8677 11.0795 64.7738 11.3605 64.68C10.2363 64.4923 9.4869 64.0232 9.01849 63.3663H12.5784C13.6089 64.7738 15.2015 65.6183 17.0751 65.6183C18.6677 65.6183 20.0729 64.9615 21.1034 63.9293C21.197 63.9293 21.2907 63.9293 21.3844 63.9293C21.5718 63.9293 21.7591 63.9293 22.0402 63.9293C22.7896 63.9293 23.5391 64.117 24.1948 64.4923C25.5064 65.1492 26.4432 66.2751 27.099 67.5888C27.2863 67.7765 27.2863 67.9641 27.38 68.1518Z" fill="#D6DCE8"/>
<path d="M20.1666 61.5835V63.554L14.2646 63.7416L14.5457 62.428C14.6394 62.428 14.6394 62.5218 14.7331 62.5218C14.9204 62.6157 15.1078 62.8033 15.2951 62.8971C15.3888 62.991 15.4825 63.0848 15.6699 63.1786C15.6699 63.1786 15.7635 63.1786 15.7635 63.2725V61.9588L15.6699 61.865C16.7004 62.428 18.1056 62.8033 20.1666 61.5835Z" fill="url(#paint3_linear_180_5129)"/>
<path d="M24.0076 53.4202C22.8834 53.7955 21.5719 53.9831 20.354 53.8893C18.3867 53.7017 16.5131 52.951 15.0142 51.6373C14.5458 53.0448 13.3279 54.077 11.9227 54.7338C11.7354 54.8276 11.548 54.9215 11.3606 54.9215C11.3606 54.9215 11.3606 54.9215 11.3606 54.8276C11.267 53.7955 11.267 52.7633 11.6417 51.7312C11.9227 50.699 12.5785 49.8545 13.3279 49.1039L13.4216 49.01C13.5153 48.9162 13.7027 48.8224 13.7964 48.6347C14.4521 48.0717 15.2952 47.6964 16.1384 47.5087C16.6068 47.4149 17.0752 47.321 17.5436 47.321C19.9793 47.321 22.134 48.6347 23.1645 50.699C23.5392 51.4497 23.7266 52.2003 23.8202 52.7633C24.0076 53.1387 24.0076 53.3263 24.0076 53.4202Z" fill="#AAB2C5"/>
<path d="M16.5128 67.3073C15.9507 67.9641 15.0139 67.9641 14.1708 67.9641C15.0139 67.1196 14.5455 64.3985 11.5477 64.68C7.42573 63.9293 7.80046 59.613 11.9224 58.2994L12.5782 58.1117L12.6719 58.2055C12.9529 59.05 13.4213 59.8007 13.8897 60.3637C12.2035 61.7712 14.5455 62.1465 15.6697 63.2725C16.6065 63.8355 17.4496 66.1813 16.5128 67.3073Z" fill="#AAB2C5"/>
<path d="M61.7317 108.829C61.7317 112.36 60.2315 115.515 57.8312 117.769C57.1561 118.37 56.481 118.896 55.6559 119.347C53.8557 120.399 51.7555 121 49.5052 121C47.255 121 45.1547 120.399 43.3545 119.347C43.0545 119.197 42.8295 119.047 42.5294 118.821C39.3791 116.642 37.2788 112.961 37.2788 108.829C37.2788 102.067 42.7544 96.6579 49.4302 96.6579C56.256 96.5827 61.7317 102.067 61.7317 108.829Z" fill="#F1F3F9" stroke="#D6DCE8" stroke-width="2" stroke-miterlimit="10"/>
<path d="M47.0308 111.533C47.1808 111.683 47.3308 111.909 47.5558 112.059C47.7058 112.209 47.8558 112.285 48.0059 112.435C48.0809 112.51 48.2309 112.585 48.3059 112.66C48.3059 112.66 48.3809 112.66 48.3809 112.735L48.4559 112.81V113.862C48.4559 113.862 48.4559 113.862 48.3809 113.787C48.3059 113.712 48.1559 113.637 48.0809 113.562C47.9309 113.487 47.7808 113.336 47.6308 113.261C47.5558 113.261 47.5558 113.186 47.4808 113.186C46.9557 112.886 46.5057 112.585 46.5057 112.209C46.5807 112.059 46.7307 111.834 47.0308 111.533ZM57.4651 117.344C57.0151 116.368 56.4068 115.44 55.3567 114.914C54.8317 114.689 54.2316 114.463 53.6315 114.463C53.4815 114.463 53.2565 114.463 53.1065 114.463C53.0315 114.463 52.9564 114.463 52.8814 114.463C52.0563 114.388 51.9813 114.238 51.9813 114.238V112.51C52.5064 112.059 53.0315 111.533 53.4815 111.007C53.8565 110.481 54.1566 109.88 54.3066 109.129C54.9817 108.979 55.4317 108.378 55.3567 107.626C55.3567 107.326 55.1317 107.025 55.1317 106.725C55.1317 106.575 55.1317 106.424 55.1317 106.274C55.1317 106.199 55.1317 106.049 55.1317 105.974C55.1317 105.898 55.1317 105.748 55.1317 105.673C55.0567 105.147 54.9067 104.621 54.6066 104.02C53.7065 102.367 52.0563 101.316 50.1061 101.316C49.7311 101.316 49.356 101.391 48.981 101.466C48.3059 101.616 47.6308 101.917 47.1058 102.367C47.0308 102.443 46.8807 102.518 46.8057 102.668L46.7307 102.743C46.1306 103.344 45.6056 104.02 45.3806 104.847C45.0805 105.673 45.0805 106.5 45.1555 107.326C45.1555 107.326 45.1555 107.326 45.1555 107.401V107.476C45.1555 107.626 45.2305 107.626 45.1555 107.702C45.1555 107.777 45.0805 107.777 45.0805 107.852C44.9305 108.077 44.8555 108.378 45.0055 108.829C45.3056 109.58 45.7556 109.505 46.2807 109.88C46.2807 109.88 46.2057 109.88 46.2057 109.955L45.6806 110.106C43.2803 110.857 42.4552 112.886 43.5053 114.163C43.8804 114.614 44.4805 114.989 45.3806 115.215C45.1555 115.215 44.9305 115.365 44.7805 115.515C43.7304 116.342 43.0553 117.619 42.9053 118.821C42.9053 118.896 42.9053 118.971 42.9053 119.046C43.2053 119.196 43.4303 119.422 43.7304 119.572L55.4761 119.297C56.2261 118.847 56.558 118.499 57.2331 117.897C57.1581 117.522 57.5401 117.42 57.4651 117.344Z" fill="white"/>
<path d="M57.8321 117.769C57.157 118.37 56.4819 118.896 55.6568 119.347C53.8566 120.399 51.7563 121 49.5061 121C47.2558 121 45.1556 120.399 43.3554 119.347C43.0553 119.197 42.8303 119.046 42.5303 118.821C42.5303 118.746 42.5303 118.671 42.5303 118.596C42.6803 117.393 43.3554 116.116 44.4055 115.29C44.5555 115.14 44.7805 115.064 45.0056 114.989C44.1055 114.839 43.5054 114.463 43.1303 113.938H45.9807C46.8058 115.064 48.0809 115.741 49.5811 115.741C50.8562 115.741 51.9814 115.215 52.8065 114.388C52.8815 114.388 52.9565 114.388 53.0315 114.388C53.1815 114.388 53.3315 114.388 53.5566 114.388C54.1566 114.388 54.7567 114.539 55.2818 114.839C56.3319 115.365 57.082 116.267 57.607 117.318C57.757 117.469 57.757 117.619 57.8321 117.769Z" fill="#D6DCE8"/>
<path d="M52.0566 112.51V114.088L47.3311 114.238L47.5561 113.186C47.6311 113.186 47.6311 113.261 47.7061 113.261C47.8561 113.336 48.0061 113.487 48.1561 113.562C48.2312 113.637 48.3062 113.712 48.4562 113.787C48.4562 113.787 48.5312 113.787 48.5312 113.862V112.811L48.4562 112.735C49.2813 113.186 50.4064 113.487 52.0566 112.51Z" fill="url(#paint4_linear_180_5129)"/>
<path d="M55.1317 105.974C54.2316 106.274 53.1815 106.425 52.2064 106.35C50.6312 106.199 49.131 105.598 47.9309 104.546C47.5558 105.673 46.5807 106.5 45.4556 107.026C45.3056 107.101 45.1556 107.176 45.0055 107.176C45.0055 107.176 45.0055 107.176 45.0055 107.101C44.9305 106.274 44.9305 105.448 45.2306 104.622C45.4556 103.795 45.9807 103.119 46.5807 102.518L46.6557 102.443C46.7307 102.368 46.8808 102.293 46.9558 102.142C47.4808 101.691 48.1559 101.391 48.831 101.241C49.206 101.166 49.5811 101.09 49.9561 101.09C51.9063 101.09 53.6315 102.142 54.4566 103.795C54.7567 104.396 54.9067 104.997 54.9817 105.448C55.1317 105.749 55.1317 105.899 55.1317 105.974Z" fill="#AAB2C5"/>
<path d="M49.131 117.093C48.681 117.619 47.9309 117.619 47.2558 117.619C47.9309 116.943 47.5559 114.764 45.1556 114.99C41.8552 114.389 42.1552 110.933 45.4556 109.881L45.9807 109.73L46.0557 109.806C46.2807 110.482 46.6557 111.083 47.0308 111.534C45.6806 112.661 47.5559 112.961 48.456 113.863C49.206 114.313 49.8811 116.192 49.131 117.093Z" fill="#AAB2C5"/>
<path d="M134.521 86.2763C134.521 91.0091 132.51 95.2384 129.293 98.2594C128.388 99.065 127.483 99.7699 126.377 100.374C123.965 101.784 121.15 102.589 118.133 102.589C115.117 102.589 112.302 101.784 109.889 100.374C109.487 100.173 109.186 99.9713 108.784 99.6692C104.561 96.7489 101.746 91.8147 101.746 86.2763C101.746 77.2135 109.085 69.9632 118.033 69.9632C127.182 69.8625 134.521 77.2135 134.521 86.2763Z" fill="#F1F3F9" stroke="#D6DCE8" stroke-width="2" stroke-miterlimit="10"/>
<path d="M114.816 89.9009C115.017 90.1023 115.218 90.4044 115.52 90.6058C115.721 90.8072 115.922 90.9079 116.123 91.1093C116.224 91.21 116.425 91.3107 116.525 91.4114C116.525 91.4114 116.626 91.4114 116.626 91.5121L116.726 91.6128V93.0225C116.726 93.0225 116.726 93.0225 116.626 92.9218C116.525 92.8211 116.324 92.7204 116.224 92.6197C116.023 92.519 115.821 92.3177 115.62 92.217C115.52 92.217 115.52 92.1163 115.419 92.1163C114.716 91.7135 114.112 91.3107 114.112 90.8072C114.213 90.6058 114.414 90.3037 114.816 89.9009ZM128.802 97.6897C128.198 96.3807 127.383 95.1372 125.976 94.4323C125.272 94.1302 124.468 93.8281 123.663 93.8281C123.462 93.8281 123.161 93.8281 122.959 93.8281C122.859 93.8281 122.758 93.8281 122.658 93.8281C121.552 93.7274 121.451 93.526 121.451 93.526V91.21C122.155 90.6058 122.859 89.9009 123.462 89.196C123.965 88.4911 124.367 87.6855 124.568 86.6786C125.473 86.4772 126.076 85.6716 125.976 84.6646C125.976 84.2618 125.674 83.859 125.674 83.4562C125.674 83.2548 125.674 83.0534 125.674 82.852C125.674 82.7513 125.674 82.5499 125.674 82.4492C125.674 82.3485 125.674 82.1471 125.674 82.0464C125.573 81.3415 125.372 80.6367 124.97 79.8311C123.764 77.6157 121.552 76.2059 118.938 76.2059C118.435 76.2059 117.933 76.3066 117.43 76.4073C116.525 76.6087 115.62 77.0115 114.917 77.6157C114.816 77.7164 114.615 77.8171 114.514 78.0185L114.414 78.1192C113.61 78.9248 112.906 79.8311 112.604 80.9387C112.202 82.0464 112.202 83.1541 112.303 84.2618C112.303 84.2618 112.303 84.2618 112.303 84.3625V84.4632C112.303 84.6646 112.403 84.6646 112.303 84.7653C112.303 84.866 112.202 84.866 112.202 84.9667C112.001 85.2688 111.901 85.6716 112.102 86.2758C112.504 87.2827 113.107 87.182 113.811 87.6855C113.811 87.6855 113.71 87.6855 113.71 87.7862L113.006 87.9876C109.789 88.9946 108.683 91.7135 110.091 93.4253C110.594 94.0295 111.398 94.533 112.604 94.8351C112.303 94.8351 112.001 95.0365 111.8 95.2379C110.393 96.3456 109.488 98.0574 109.287 99.6686C109.287 99.7693 109.287 99.87 109.287 99.9707C109.689 100.172 109.99 100.474 110.393 100.676L126.136 100.307C127.141 99.7031 127.586 99.2367 128.49 98.4311C128.39 97.9276 128.902 97.7904 128.802 97.6897Z" fill="white"/>
<path d="M129.293 98.2593C128.388 99.0649 127.483 99.7697 126.377 100.374C123.965 101.784 121.15 102.589 118.134 102.589C115.117 102.589 112.302 101.784 109.89 100.374C109.487 100.173 109.186 99.9711 108.784 99.669C108.784 99.5683 108.784 99.4677 108.784 99.367C108.985 97.7558 109.89 96.0439 111.297 94.9362C111.498 94.7348 111.8 94.6341 112.101 94.5334C110.895 94.332 110.091 93.8285 109.588 93.1237H113.408C114.514 94.6341 116.223 95.5404 118.234 95.5404C119.943 95.5404 121.451 94.8355 122.557 93.7279C122.658 93.7279 122.758 93.7279 122.859 93.7279C123.06 93.7279 123.261 93.7279 123.562 93.7279C124.367 93.7279 125.171 93.9292 125.875 94.332C127.282 95.0369 128.288 96.2453 128.991 97.6551C129.192 97.8565 129.192 98.0579 129.293 98.2593Z" fill="#D6DCE8"/>
<path d="M121.552 91.2103V93.325L115.218 93.5264L115.52 92.1166C115.62 92.1166 115.62 92.2173 115.721 92.2173C115.922 92.318 116.123 92.5194 116.324 92.6201C116.425 92.7208 116.525 92.8215 116.726 92.9222C116.726 92.9222 116.827 92.9222 116.827 93.0229V91.6131L116.726 91.5124C117.832 92.1166 119.34 92.5194 121.552 91.2103Z" fill="url(#paint5_linear_180_5129)"/>
<path d="M125.674 82.4496C124.467 82.8524 123.06 83.0538 121.753 82.9531C119.641 82.7517 117.631 81.9461 116.022 80.5363C115.519 82.0468 114.213 83.1544 112.704 83.8593C112.503 83.96 112.302 84.0607 112.101 84.0607C112.101 84.0607 112.101 84.0607 112.101 83.96C112.001 82.8524 112.001 81.7447 112.403 80.637C112.704 79.5293 113.408 78.623 114.213 77.8174L114.313 77.7167C114.414 77.616 114.615 77.5153 114.715 77.314C115.419 76.7098 116.324 76.307 117.229 76.1056C117.731 76.0049 118.234 75.9042 118.737 75.9042C121.351 75.9042 123.663 77.3139 124.769 79.5293C125.171 80.3349 125.372 81.1405 125.473 81.7447C125.674 82.1475 125.674 82.3489 125.674 82.4496Z" fill="#AAB2C5"/>
<path d="M117.631 97.3531C117.027 98.0579 116.022 98.0579 115.117 98.0579C116.022 97.1517 115.519 94.2314 112.302 94.5335C107.879 93.7279 108.281 89.0958 112.704 87.686L113.408 87.4846L113.509 87.5853C113.81 88.4916 114.313 89.2972 114.816 89.9014C113.006 91.4119 115.519 91.8146 116.726 93.023C117.731 93.6272 118.636 96.1447 117.631 97.3531Z" fill="#AAB2C5"/>
<defs>
<linearGradient id="paint0_linear_180_5129" x1="53.9262" y1="20.2743" x2="53.9262" y2="18.4779" gradientUnits="userSpaceOnUse">
<stop stop-color="white"/>
<stop offset="0.9913" stop-color="#D6DEEA"/>
</linearGradient>
<linearGradient id="paint1_linear_180_5129" x1="71.1616" y1="69.1025" x2="71.1616" y2="66.2108" gradientUnits="userSpaceOnUse">
<stop stop-color="white"/>
<stop offset="0.9913" stop-color="#D6DEEA"/>
</linearGradient>
<linearGradient id="paint2_linear_180_5129" x1="103.819" y1="23.6955" x2="103.819" y2="22.5478" gradientUnits="userSpaceOnUse">
<stop stop-color="white"/>
<stop offset="0.9913" stop-color="#D6DEEA"/>
</linearGradient>
<linearGradient id="paint3_linear_180_5129" x1="17.2042" y1="63.6744" x2="17.2042" y2="62.544" gradientUnits="userSpaceOnUse">
<stop stop-color="white"/>
<stop offset="0.9913" stop-color="#D6DEEA"/>
</linearGradient>
<linearGradient id="paint4_linear_180_5129" x1="49.6847" y1="114.184" x2="49.6847" y2="113.279" gradientUnits="userSpaceOnUse">
<stop stop-color="white"/>
<stop offset="0.9913" stop-color="#D6DEEA"/>
</linearGradient>
<linearGradient id="paint5_linear_180_5129" x1="118.373" y1="93.4543" x2="118.373" y2="92.2411" gradientUnits="userSpaceOnUse">
<stop stop-color="white"/>
<stop offset="0.9913" stop-color="#D6DEEA"/>
</linearGradient>
</defs>
</svg>
