<svg width="133" height="146" viewBox="0 0 133 146" fill="none" xmlns="http://www.w3.org/2000/svg">
<path d="M104.188 123.265H26.1492C25.9183 123.265 25.7388 123.085 25.7388 122.854V108.503C25.7388 106.68 27.2267 105.191 29.0481 105.191H101.289C103.111 105.191 104.599 106.68 104.599 108.503V122.854C104.624 123.085 104.419 123.265 104.188 123.265Z" fill="#474E61"/>
<path opacity="0.2" d="M104.187 115.743H26.2519C26.0213 115.743 25.842 115.638 25.842 115.504V107.146C25.842 106.084 27.3279 105.217 29.1469 105.217H101.292C103.111 105.217 104.597 106.084 104.597 107.146V115.504C104.623 115.638 104.418 115.743 104.187 115.743Z" fill="#2A2E37"/>
<g filter="url(#filter0_d_8_7878)">
<path d="M106.549 112.149H23.7893C23.225 112.149 22.7632 111.687 22.7632 111.122V19.1381C22.7632 14.6455 26.406 11 30.8955 11H99.4682C103.958 11 107.6 14.6455 107.6 19.1381V111.122C107.6 111.687 107.139 112.149 106.549 112.149Z" fill="#5C6479"/>
</g>
<path opacity="0.5" d="M101.797 21.7015V75.0052C101.797 76.3805 100.743 77.4806 99.4257 77.4806H30.5782C29.8405 77.4806 29.2081 77.1231 28.7602 76.6005C28.4177 76.1879 28.2069 75.6103 28.2069 75.0327V21.7015C28.2069 20.3263 29.2608 19.2261 30.5782 19.2261H99.4521C100.058 19.2261 100.611 19.4461 101.033 19.8587C101.507 20.2988 101.797 20.9589 101.797 21.7015Z" fill="#474E61"/>
<path opacity="0.7" d="M101.797 21.6606V75.0033C101.797 76.3795 100.743 77.4805 99.4251 77.4805H30.5639C29.826 77.4805 29.1936 77.1227 28.7455 76.5997L101.006 19.8164C101.507 20.2568 101.797 20.9174 101.797 21.6606Z" fill="#8E96AB"/>
<path d="M92.5422 23.605H37.4634C34.6415 23.605 32.3583 25.8898 32.3583 28.7138V68.0181C32.3583 70.842 34.6415 73.1269 37.4634 73.1269H92.5166C95.3385 73.1269 97.6217 70.842 97.6217 68.0181V28.6881C97.6217 25.8898 95.3385 23.605 92.5422 23.605Z" fill="#393F4E"/>
<path d="M79.3198 37.0576L73.7798 42.6016" stroke="#C6CDDF" stroke-width="2.5" stroke-miterlimit="10" stroke-linecap="round" stroke-linejoin="round"/>
<path d="M73.7798 37.0576L79.3198 42.6016" stroke="#C6CDDF" stroke-width="2.5" stroke-miterlimit="10" stroke-linecap="round" stroke-linejoin="round"/>
<path d="M57.6192 37.0576L52.0522 42.6016" stroke="#C6CDDF" stroke-width="2.5" stroke-miterlimit="10" stroke-linecap="round" stroke-linejoin="round"/>
<path d="M52.0522 37.0576L57.6192 42.6016" stroke="#C6CDDF" stroke-width="2.5" stroke-miterlimit="10" stroke-linecap="round" stroke-linejoin="round"/>
<path d="M61.6465 48.9028L63.6734 50.9582H67.7L69.6187 48.9028" stroke="#C6CDDF" stroke-width="2.5" stroke-miterlimit="10" stroke-linecap="round" stroke-linejoin="round"/>
<path d="M57.7811 58.3408H72.104L75.9684 61.4238" stroke="#C6CDDF" stroke-width="2.5" stroke-miterlimit="10" stroke-linecap="round" stroke-linejoin="round"/>
<path opacity="0.3" d="M97.7293 26.6914C96.9503 24.8799 95.1466 23.605 93.0563 23.605H37.9378C35.1139 23.605 32.829 25.8898 32.829 28.7138V28.9705H33.6615C34.5736 27.5785 36.1474 26.66 37.9378 26.66H97.1639C97.3549 26.66 97.5436 26.6706 97.7293 26.6914Z" fill="#2A2E37"/>
<path d="M34.6149 97.952H31.3313C30.1255 97.952 29.1763 96.9765 29.1763 95.7956V92.5095C29.1763 91.3029 30.1512 90.353 31.3313 90.353H34.6149C35.8207 90.353 36.7699 91.3286 36.7699 92.5095V95.7956C36.7955 96.9765 35.8207 97.952 34.6149 97.952Z" fill="#474E61"/>
<path d="M89.5143 93.6394H96.6461C97.1848 93.6394 97.6209 93.203 97.6209 92.6639V90.0966C97.6209 89.5575 97.1848 89.1211 96.6461 89.1211H89.5143C88.9756 89.1211 88.5395 89.5575 88.5395 90.0966C88.5395 90.2242 88.436 90.3277 88.3084 90.3277H66.1179C65.6562 90.3277 65.2714 90.7128 65.2714 91.1749V91.5599C65.2714 92.022 65.6562 92.4071 66.1179 92.4071H88.2827C88.4245 92.4071 88.5395 92.5221 88.5395 92.6639C88.5395 93.203 88.9756 93.6394 89.5143 93.6394Z" fill="#393F4E"/>
<path opacity="0.2" d="M28.105 11.6802C25.2342 12.9378 23.2273 15.8048 23.2273 19.1383V111.122C23.2273 111.687 23.6894 112.149 24.2542 112.149H28.105V11.6802Z" fill="#8E96AB"/>
<path d="M125.301 136.315C127.056 136.315 128.479 134.871 128.479 133.089C128.479 131.307 127.056 129.863 125.301 129.863C123.546 129.863 122.124 131.307 122.124 133.089C122.124 134.871 123.546 136.315 125.301 136.315Z" fill="#474E61"/>
<path d="M16.3155 129.863H11.7612C10.6628 129.863 9.7724 130.753 9.7724 131.852C9.7724 132.95 10.6628 133.84 11.7612 133.84H16.3155C17.4139 133.84 18.3043 132.95 18.3043 131.852C18.3043 130.753 17.4139 129.863 16.3155 129.863Z" fill="#474E61"/>
<path d="M23.847 129.863H21.9045C20.8061 129.863 19.9157 130.753 19.9157 131.852C19.9157 132.95 20.8061 133.84 21.9045 133.84H23.847C24.9454 133.84 25.8358 132.95 25.8358 131.852C25.8358 130.753 24.9454 129.863 23.847 129.863Z" fill="#474E61"/>
<path d="M96.2077 133.844L100.762 133.844C101.86 133.844 102.751 132.954 102.751 131.855C102.751 130.757 101.86 129.867 100.762 129.867L96.2077 129.867C95.1093 129.867 94.2189 130.757 94.2189 131.855C94.2189 132.954 95.1093 133.844 96.2077 133.844Z" fill="#474E61"/>
<path d="M88.6535 133.844L90.596 133.844C91.6944 133.844 92.5848 132.954 92.5848 131.855C92.5848 130.757 91.6944 129.867 90.596 129.867L88.6535 129.867C87.5551 129.867 86.6647 130.757 86.6647 131.855C86.6647 132.954 87.5551 133.844 88.6535 133.844Z" fill="#474E61"/>
<path d="M82.4818 129.863H29.8702C28.7719 129.863 27.8815 130.753 27.8815 131.852C27.8815 132.95 28.7719 133.84 29.8702 133.84H82.4817C83.5801 133.84 84.4705 132.95 84.4705 131.852C84.4705 130.753 83.5801 129.863 82.4818 129.863Z" fill="#474E61"/>
<path d="M105.495 141H6.68229C5.50698 141 4.54932 140.028 4.54932 138.835V136.802V134.769C4.54932 133.575 5.50698 132.603 6.68229 132.603H105.539C106.714 132.603 107.672 133.575 107.672 134.769V138.835C107.628 140.028 106.671 141 105.495 141Z" fill="#5C6479"/>
<path d="M129.916 141H116.552C115.377 141 114.419 140.028 114.419 138.835V136.802V134.769C114.419 133.575 115.377 132.603 116.552 132.603H129.916C131.091 132.603 132.049 133.575 132.049 134.769V138.835C132.049 140.028 131.091 141 129.916 141Z" fill="#5C6479"/>
<path d="M107.628 136.801H4.54932" stroke="#8E96AB" stroke-width="2" stroke-miterlimit="10"/>
<path d="M132.049 136.801H114.463" stroke="#8E96AB" stroke-width="2" stroke-miterlimit="10"/>
<defs>
<filter id="filter0_d_8_7878" x="0.763184" y="0" width="128.837" height="145.149" filterUnits="userSpaceOnUse" color-interpolation-filters="sRGB">
<feFlood flood-opacity="0" result="BackgroundImageFix"/>
<feColorMatrix in="SourceAlpha" type="matrix" values="0 0 0 0 0 0 0 0 0 0 0 0 0 0 0 0 0 0 127 0" result="hardAlpha"/>
<feOffset dy="11"/>
<feGaussianBlur stdDeviation="11"/>
<feColorMatrix type="matrix" values="0 0 0 0 0 0 0 0 0 0 0 0 0 0 0 0 0 0 0.27 0"/>
<feBlend mode="normal" in2="BackgroundImageFix" result="effect1_dropShadow_8_7878"/>
<feBlend mode="normal" in="SourceGraphic" in2="effect1_dropShadow_8_7878" result="shape"/>
</filter>
</defs>
</svg>
