<svg width="96" height="96" viewBox="0 0 96 96" fill="none" xmlns="http://www.w3.org/2000/svg">
<path d="M93.2799 25.7602C93.5645 25.5236 93.7779 25.2127 93.8964 24.8621C94.0148 24.5114 94.0336 24.1348 93.9507 23.7741C93.8677 23.4134 93.6863 23.0827 93.4267 22.819C93.167 22.5553 92.8393 22.3687 92.4799 22.2802L89.3199 21.5202C89.0288 21.447 88.7584 21.308 88.5296 21.1138C88.3007 20.9196 88.1195 20.6755 87.9999 20.4002C87.872 20.1316 87.8056 19.8378 87.8056 19.5402C87.8056 19.2427 87.872 18.9488 87.9999 18.6802L89.7999 15.1202C89.971 14.7717 90.037 14.3809 89.9897 13.9955C89.9425 13.6101 89.7841 13.2468 89.5339 12.9499C89.2836 12.653 88.9524 12.4354 88.5806 12.3236C88.2087 12.2117 87.8124 12.2106 87.4399 12.3202L79.4399 14.5602C79.1453 14.6414 78.8355 14.6511 78.5363 14.5885C78.2372 14.5259 77.9573 14.3928 77.7199 14.2002C74.7485 11.9717 71.2153 10.6146 67.516 10.281C63.8168 9.94746 60.0978 10.6506 56.7756 12.3117C53.4535 13.9727 50.6596 16.5261 48.7069 19.6856C46.7542 22.8451 45.7199 26.486 45.7199 30.2002V31.6402C45.7217 31.8859 45.633 32.1236 45.4707 32.3081C45.3084 32.4925 45.0838 32.6107 44.8399 32.6402C33.5999 33.9602 22.8399 28.2402 11.2399 14.8802C10.9953 14.5914 10.6737 14.378 10.3126 14.2647C9.95151 14.1514 9.56567 14.1429 9.19992 14.2402C8.8515 14.3866 8.55286 14.6307 8.33995 14.943C8.12705 15.2552 8.00896 15.6224 7.99992 16.0002C6.37889 22.5802 7.02725 29.5148 9.83992 35.6802C9.92745 35.8395 9.97335 36.0184 9.97335 36.2002C9.97335 36.382 9.92745 36.5609 9.83992 36.7202C9.73234 36.8792 9.57956 37.0023 9.4013 37.0737C9.22304 37.145 9.02749 37.1612 8.83992 37.1202L4.31992 36.2402C4.00012 36.1968 3.67461 36.2284 3.36914 36.3326C3.06367 36.4367 2.78662 36.6105 2.55992 36.8402C2.34179 37.0726 2.18113 37.3528 2.09083 37.6584C2.00053 37.9641 1.98309 38.2866 2.03992 38.6002C2.38527 41.67 3.41661 44.6228 5.0576 47.2401C6.69858 49.8573 8.90718 52.072 11.5199 53.7202C11.6764 53.815 11.804 53.9509 11.8886 54.1131C11.9732 54.2753 12.0117 54.4576 11.9999 54.6402C11.998 54.8297 11.9399 55.0144 11.8331 55.171C11.7264 55.3276 11.5756 55.4491 11.3999 55.5202L9.23992 56.3602C8.72837 56.5843 8.32589 57.0011 8.11992 57.5202C8.01209 57.7731 7.95651 58.0453 7.95651 58.3202C7.95651 58.5952 8.01209 58.8673 8.11992 59.1202C9.29228 61.6855 11.0693 63.9282 13.2987 65.656C15.5281 67.3837 18.1432 68.545 20.9199 69.0402C21.1173 69.0991 21.2938 69.2133 21.4285 69.3692C21.5631 69.5251 21.6504 69.7163 21.6799 69.9202C21.6997 70.1343 21.6526 70.3493 21.5452 70.5355C21.4377 70.7218 21.2752 70.8701 21.0799 70.9602C15.6615 73.1791 9.85478 74.2942 3.99992 74.2402C3.46949 74.1341 2.91864 74.2431 2.46855 74.5432C2.01846 74.8432 1.70601 75.3098 1.59992 75.8402C1.49383 76.3706 1.6028 76.9215 1.90286 77.3716C2.20292 77.8217 2.66949 78.1341 3.19992 78.2402C13.3845 83.0892 24.4825 85.7206 35.7599 85.9602C45.6771 86.1067 55.4171 83.3239 63.7599 77.9602C70.6258 73.3855 76.2509 67.1805 80.132 59.9C84.013 52.6194 86.0291 44.4905 85.9999 36.2402V32.7602C85.9996 32.4693 86.0641 32.182 86.1886 31.919C86.3131 31.6561 86.4946 31.4243 86.7199 31.2402L93.2799 25.7602Z" fill="#535353"/>
</svg>
