<svg width="138" height="138" viewBox="0 0 138 138" fill="none" xmlns="http://www.w3.org/2000/svg">
<path d="M133.595 101.474L74.5155 135.569C71.5659 137.304 67.1414 137.477 64.6256 136.002L3.7245 100.78C1.20865 99.3056 1.46891 96.7898 4.41853 95.0547L63.4978 60.9605C66.4474 59.2255 70.8718 59.0519 73.3877 60.5268L134.289 95.7487C136.805 97.2236 136.544 99.7394 133.595 101.474Z" fill="#F1F3F9" stroke="#D6DCE8" stroke-width="2" stroke-miterlimit="10"/>
<path d="M64.9029 89.4592L34.4524 106.983C33.3246 107.677 31.5895 107.764 30.5485 107.157L15.3666 98.3948C14.3255 97.7875 14.499 96.8332 15.6268 96.1392L46.0774 78.5282C47.2052 77.8342 48.9402 77.7474 49.9813 78.3547L65.1632 87.1168C66.2042 87.7241 66.0307 88.7652 64.9029 89.4592Z" fill="#D6DCE8"/>
<path d="M101.079 110.887L70.6287 128.412C69.5009 129.106 67.7658 129.192 66.7248 128.585L37.3993 112.074C36.3583 111.467 36.5318 110.513 37.6596 109.819L68.1101 92.2077C69.2379 91.5136 70.973 91.4269 72.014 92.0342L101.339 108.545C102.381 109.152 102.207 110.193 101.079 110.887Z" fill="#D6DCE8"/>
<path opacity="0.2" d="M74.5159 130.363L133.595 96.2693C133.611 96.2601 133.626 96.251 133.642 96.2418L73.3881 61.3943C70.8723 59.9195 66.4479 60.093 63.4982 61.8281L4.419 95.9223C4.40344 95.9314 4.38796 95.9406 4.37256 95.9498L64.626 130.797C67.1419 132.272 71.5663 132.099 74.5159 130.363Z" fill="#AAB2C5"/>
<path d="M133.595 82.3887L74.5155 116.483C71.5659 118.218 67.1414 118.391 64.6256 116.917L3.7245 81.6946C1.20865 80.2198 1.46891 77.704 4.41853 75.9689L63.4978 41.8747C66.4474 40.1396 70.8718 39.9661 73.3877 41.4409L134.289 76.6629C136.805 78.1377 136.544 80.6536 133.595 82.3887Z" fill="#F1F3F9" stroke="#D6DCE8" stroke-width="2" stroke-miterlimit="10"/>
<path d="M27.8421 73.5398L17.1714 79.6993C16.3039 80.133 15.0026 80.133 14.135 79.6993C13.2675 79.2655 13.2675 78.4847 14.135 77.9642L24.8057 71.8047C25.6733 71.3709 26.9746 71.3709 27.8421 71.8047C28.7096 72.2385 28.6229 73.0192 27.8421 73.5398Z" fill="#AAB2C5"/>
<path d="M38.5995 79.3522L28.0155 85.4249C27.3215 85.7719 26.107 85.7719 25.5864 85.4249C24.8924 85.0779 24.8924 84.3839 25.5864 84.0369L36.1704 77.9641C36.8644 77.6171 38.079 77.6171 38.5995 77.9641C39.2935 78.3111 39.2068 78.9184 38.5995 79.3522Z" fill="#AAB2C5"/>
<path d="M54.9961 92.105L47.275 96.5294C46.6677 96.8764 45.4532 96.7897 44.9326 96.5294C44.2386 96.1824 44.2386 95.4884 44.9326 95.1414L52.6537 90.7169C53.261 90.3699 54.4755 90.4567 54.9961 90.7169C55.3431 91.0639 55.5166 91.758 54.9961 92.105Z" fill="#AAB2C5"/>
<path d="M100.629 65.7319L89.7843 71.9782C89.0903 72.412 87.8758 72.3252 87.3552 71.9782C86.6612 71.6312 86.748 70.9371 87.3552 70.5901L98.1994 64.3439C98.8935 63.9101 100.108 63.9968 100.629 64.3439C101.149 64.6909 101.236 65.3849 100.629 65.7319Z" fill="#AAB2C5"/>
<path d="M83.7119 75.535L60.9825 88.6348C60.2885 89.0686 59.0739 88.9818 58.5534 88.6348C57.8594 88.2878 57.9461 87.5938 58.6401 87.2468L81.3696 74.147C82.0636 73.7132 83.2782 73.7999 83.7987 74.147C84.2325 74.494 84.3192 75.188 83.7119 75.535Z" fill="#AAB2C5"/>
<path d="M71.913 89.5024L57.859 97.5705C57.1649 98.0043 55.9504 97.9175 55.4299 97.5705C54.7358 97.2235 54.8226 96.5295 55.5166 96.1825L69.5707 88.1144C70.2647 87.6806 71.4793 87.7674 71.9998 88.1144C72.5203 88.5481 72.5203 89.1554 71.913 89.5024Z" fill="#AAB2C5"/>
<path d="M84.926 81.9548L77.2917 86.3793C76.5976 86.7263 75.3831 86.7263 74.8626 86.3793C74.1685 86.0323 74.2553 85.3382 74.8626 84.9912L82.4969 80.5668C83.1909 80.2198 84.4055 80.2198 84.926 80.5668C85.5333 81.0005 85.4465 81.6946 84.926 81.9548Z" fill="#AAB2C5"/>
<path d="M76.598 94.7076L60.3751 104.077C59.681 104.511 58.4665 104.424 57.946 104.077C57.2519 103.73 57.3387 103.036 58.0327 102.689L74.2557 93.3196C74.9497 92.8858 76.1642 92.9726 76.6848 93.3196C77.292 93.6666 77.3788 94.1871 76.598 94.7076Z" fill="#AAB2C5"/>
<path d="M88.1361 88.0276L81.8898 91.5845C81.1958 91.9315 79.9812 91.9315 79.4607 91.5845C78.7667 91.2375 78.8534 90.5434 79.4607 90.1964L85.707 86.6395C86.401 86.2925 87.6155 86.2925 88.1361 86.6395C88.8301 86.9865 88.9168 87.5071 88.1361 88.0276Z" fill="#AAB2C5"/>
<path d="M73.3878 103.643L66.5343 107.634C65.8402 108.068 64.6257 107.981 64.1052 107.634C63.4111 107.287 63.4979 106.593 64.1919 106.246L71.0454 102.255C71.7395 101.821 72.954 101.908 73.4745 102.255C74.1686 102.602 74.2553 103.21 73.3878 103.643Z" fill="#AAB2C5"/>
<path d="M79.2874 100.26L77.9861 101.041C77.3788 101.388 76.1642 101.301 75.6437 101.041C74.9497 100.694 74.9497 100.086 75.557 99.6526L76.8583 98.8718C77.4656 98.5248 78.6801 98.6116 79.2006 98.8718C79.8947 99.3056 79.8947 99.9129 79.2874 100.26Z" fill="#AAB2C5"/>
<path d="M43.8052 91.3243L40.9423 92.9726C40.335 93.3196 39.2072 93.2329 38.6867 92.8859C37.9927 92.5389 37.9927 91.9316 38.5999 91.5846L41.4628 89.9362C42.0701 89.5892 43.1979 89.676 43.7184 90.023C44.3257 90.4568 44.4124 91.064 43.8052 91.3243Z" fill="#AAB2C5"/>
<path d="M68.8766 76.9232L51.1789 87.0733C50.4848 87.5071 49.2703 87.4204 48.7498 87.0733C48.0557 86.7263 48.1425 86.0323 48.7498 85.6853L66.4475 75.4484C67.1415 75.0146 68.3561 75.1013 68.8766 75.4484C69.5706 75.8821 69.5706 76.4894 68.8766 76.9232Z" fill="#AAB2C5"/>
<path d="M50.4847 79.6125L34.2618 88.9819C33.5678 89.4157 32.3532 89.3289 31.8327 88.9819C31.1387 88.6349 31.2254 87.9409 31.9194 87.5939L48.0556 78.2245C48.7496 77.7907 49.9642 77.8775 50.4847 78.2245C51.2655 78.5715 51.3523 79.1788 50.4847 79.6125Z" fill="#AAB2C5"/>
<path d="M72.0864 67.12L55.9503 76.4894C55.2562 76.9231 54.0417 76.8364 53.5212 76.4894C52.8271 76.1424 52.9139 75.4483 53.6079 75.1013L69.8308 65.7319C70.5249 65.2982 71.7394 65.3849 72.26 65.7319C72.8672 66.0789 72.954 66.6862 72.0864 67.12Z" fill="#AAB2C5"/>
<path d="M83.7117 60.4399L77.4655 63.9968C76.7715 64.3439 75.5569 64.3439 75.0364 63.9968C74.3424 63.6498 74.4291 62.9558 75.0364 62.6088L81.2826 59.0519C81.9767 58.7049 83.1912 58.7049 83.7117 59.0519C84.4058 59.4857 84.4925 60.0062 83.7117 60.4399Z" fill="#AAB2C5"/>
<path opacity="0.2" d="M122.922 70.9565L74.0985 99.1321C71.1489 100.867 66.7245 101.041 64.2086 99.5659L14.6743 70.9179L63.4977 42.7423C66.4473 41.0072 70.8717 40.8337 73.3876 42.3085L122.922 70.9565Z" fill="#AAB2C5"/>
<path d="M133.178 42.9453L74.0985 77.0395C71.1489 78.7746 66.7244 78.9481 64.2086 77.4733L3.30751 42.2513C0.791654 40.7765 1.05191 38.2606 4.00154 36.5255L63.0808 2.43135C66.0304 0.69628 70.4548 0.522773 72.9707 1.99758L133.872 37.2196C136.388 38.6944 136.127 41.2102 133.178 42.9453Z" fill="white" stroke="#D6DCE8" stroke-width="2" stroke-miterlimit="10"/>
<path d="M27.6849 34.27L17.0142 40.4295C16.1466 40.8633 14.8453 40.8633 13.9778 40.4295C13.1103 39.9957 13.1103 39.215 13.9778 38.6944L24.6485 32.5349C25.516 32.1012 26.8173 32.1012 27.6849 32.5349C28.5524 32.9687 28.5524 33.8362 27.6849 34.27Z" fill="#AAB2C5"/>
<path d="M47.4652 30.019L23.2609 43.9863C22.7404 44.2466 21.8728 44.2466 21.3523 43.9863C20.8318 43.726 20.8318 43.2055 21.3523 42.9452L45.5566 28.9779C46.0771 28.7176 46.9446 28.7176 47.4652 28.9779C47.9857 29.2382 47.9857 29.7587 47.4652 30.019Z" fill="#D6DCE8"/>
<path d="M78.6963 62.5516L67.5051 68.9714C66.464 69.5786 64.8157 69.6654 63.8614 69.1449L29.5937 49.365C28.6394 48.8445 28.8129 47.8902 29.854 47.283L41.0452 40.8632C42.0862 40.2559 43.7346 40.1692 44.6889 40.6897L78.9565 60.4695C79.8241 60.99 79.7373 61.9443 78.6963 62.5516Z" fill="#D6DCE8"/>
<path d="M99.6036 28.8045L69.1531 46.3288C68.0253 47.0228 66.2902 47.1095 65.2492 46.5023L50.0673 37.7401C49.0262 37.1329 49.1997 36.1786 50.3275 35.4845L80.7781 17.8736C81.9059 17.1795 83.6409 17.0928 84.682 17.7001L99.8639 26.4622C100.905 27.0694 100.731 28.1105 99.6036 28.8045Z" fill="#D6DCE8"/>
<path d="M98.9967 50.8399L87.0247 57.7801C86.4175 58.1272 85.4632 58.2139 84.8559 57.8669L73.2309 51.1869C72.7104 50.8399 72.7104 50.3193 73.4044 49.9723L85.3764 43.032C85.9837 42.685 86.938 42.5983 87.5452 42.9453L99.1702 49.6253C99.6908 49.9723 99.604 50.4928 98.9967 50.8399Z" fill="#D6DCE8"/>
<path d="M119.21 39.2149L107.238 46.1551C106.631 46.5022 105.677 46.5889 105.069 46.2419L93.4443 39.5619C92.9238 39.2149 92.9238 38.6943 93.6178 38.3473L105.59 31.407C106.197 31.06 107.151 30.9733 107.759 31.3203L119.384 38.0003C119.904 38.2606 119.817 38.8678 119.21 39.2149Z" fill="#D6DCE8"/>
</svg>
