<svg width="21" height="25" viewBox="0 0 21 25" fill="none" xmlns="http://www.w3.org/2000/svg">
<g clip-path="url(#clip0_249_6464)">
<path d="M10.7939 5.59596C10.9274 6.36592 11.061 7.13651 11.1958 7.90647C11.421 9.19406 11.626 10.4853 11.8777 11.768C12.1128 12.9663 12.8939 13.7283 14.0528 13.964C16.103 14.382 18.1741 14.6965 20.2464 15.0934C19.9405 15.1525 19.6359 15.2172 19.3294 15.2701C17.6288 15.5643 15.9288 15.8597 14.227 16.1465C12.9764 16.357 12.0316 17.3153 11.8125 18.6066C11.4826 20.5503 11.1496 22.4934 10.816 24.4364C10.808 24.4832 10.7822 24.5275 10.7416 24.6316C10.4972 23.2289 10.2633 21.8884 10.0301 20.5485C9.90019 19.8043 9.80356 19.0522 9.63431 18.3173C9.39858 17.2913 8.57075 16.3078 6.97727 16.0739C5.13945 15.8043 3.3127 15.4541 1.48164 15.1371C1.41332 15.1255 1.34685 15.1002 1.20898 15.0621C3.22161 14.7174 5.16099 14.3752 7.10468 14.0557C8.56891 13.8151 9.48844 12.8808 9.72847 11.4141C10.0245 9.60028 10.3569 7.79199 10.6732 5.98125C10.6954 5.85323 10.7126 5.72398 10.7323 5.59473C10.7526 5.59473 10.7729 5.59473 10.7939 5.59534V5.59596Z" fill="#94A3B8"/>
<path d="M10.7939 5.59596C10.9274 6.36592 11.061 7.13651 11.1958 7.90647C11.421 9.19406 11.626 10.4853 11.8777 11.768C12.1128 12.9663 12.8939 13.7283 14.0528 13.964C16.103 14.382 18.1741 14.6965 20.2464 15.0934C19.9405 15.1525 19.6359 15.2172 19.3294 15.2701C17.6288 15.5643 15.9288 15.8597 14.227 16.1465C12.9764 16.357 12.0316 17.3153 11.8125 18.6066C11.4826 20.5503 11.1496 22.4934 10.816 24.4364C10.808 24.4832 10.7822 24.5275 10.7416 24.6316C10.4972 23.2289 10.2633 21.8884 10.0301 20.5485C9.90019 19.8043 9.80356 19.0522 9.63431 18.3173C9.39858 17.2913 8.57075 16.3078 6.97727 16.0739C5.13945 15.8043 3.3127 15.4541 1.48164 15.1371C1.41332 15.1255 1.34685 15.1002 1.20898 15.0621C3.22161 14.7174 5.16099 14.3752 7.10468 14.0557C8.56891 13.8151 9.48844 12.8808 9.72847 11.4141C10.0245 9.60028 10.3569 7.79199 10.6732 5.98125C10.6954 5.85323 10.7126 5.72398 10.7323 5.59473C10.7526 5.59473 10.7729 5.59473 10.7939 5.59534V5.59596Z" fill="white"/>
<path d="M4.08002 13.6901C3.92985 12.8451 3.77844 12.0006 3.63011 11.1556C3.51378 10.4927 3.12418 10.1197 2.46316 10.0139C1.66365 9.88585 0.866597 9.74245 0.0689339 9.60458C0.0553933 9.60212 0.0443146 9.5855 0 9.54919C0.443146 9.47225 0.859827 9.39901 1.27651 9.327C1.69565 9.25437 2.11664 9.19405 2.53271 9.1085C3.23928 8.96325 3.55317 8.58042 3.67688 7.79445C3.79875 7.01956 3.94277 6.24775 4.11942 5.47101C4.18466 5.83783 4.25051 6.20405 4.31452 6.57087C4.40131 7.07064 4.47824 7.57226 4.57303 8.07018C4.68627 8.66351 5.1208 9.02787 5.77321 9.13189C6.57949 9.26052 7.3827 9.40762 8.1939 9.58796C8.05788 9.61504 7.92186 9.6452 7.78461 9.66859C7.07496 9.79045 6.36346 9.90124 5.65566 10.0336C4.96016 10.1634 4.64257 10.558 4.51209 11.3772C4.38838 12.1508 4.24744 12.922 4.11449 13.6945C4.1028 13.6932 4.09172 13.692 4.08002 13.6908V13.6901Z" fill="#94A3B8"/>
<path d="M4.08002 13.6901C3.92985 12.8451 3.77844 12.0006 3.63011 11.1556C3.51378 10.4927 3.12418 10.1197 2.46316 10.0139C1.66365 9.88585 0.866597 9.74245 0.0689339 9.60458C0.0553933 9.60212 0.0443146 9.5855 0 9.54919C0.443146 9.47225 0.859827 9.39901 1.27651 9.327C1.69565 9.25437 2.11664 9.19405 2.53271 9.1085C3.23928 8.96325 3.55317 8.58042 3.67688 7.79445C3.79875 7.01956 3.94277 6.24775 4.11942 5.47101C4.18466 5.83783 4.25051 6.20405 4.31452 6.57087C4.40131 7.07064 4.47824 7.57226 4.57303 8.07018C4.68627 8.66351 5.1208 9.02787 5.77321 9.13189C6.57949 9.26052 7.3827 9.40762 8.1939 9.58796C8.05788 9.61504 7.92186 9.6452 7.78461 9.66859C7.07496 9.79045 6.36346 9.90124 5.65566 10.0336C4.96016 10.1634 4.64257 10.558 4.51209 11.3772C4.38838 12.1508 4.24744 12.922 4.11449 13.6945C4.1028 13.6932 4.09172 13.692 4.08002 13.6908V13.6901Z" fill="white"/>
<path d="M8.19291 5.47101C8.13136 5.1208 8.07105 4.77059 8.00765 4.42038C7.96272 4.17112 7.92825 3.91938 7.86486 3.67504C7.77069 3.3119 7.51465 3.12049 7.14967 3.06079C6.6419 2.97708 6.13413 2.88968 5.62697 2.80167C5.58266 2.79367 5.5408 2.77028 5.46387 2.74074C6.04242 2.64349 6.5822 2.55486 7.12136 2.46192C7.64082 2.37206 7.85809 2.09817 7.95718 1.43715C8.02119 1.00877 8.0969 0.582245 8.16952 0.155101C8.17568 0.118172 8.19476 0.0830899 8.2243 0C8.3357 0.625944 8.43295 1.20142 8.5425 1.77443C8.61082 2.1308 8.83116 2.35791 9.18937 2.42684C9.76485 2.53824 10.3428 2.63672 10.925 2.77336C10.5841 2.83552 10.2437 2.89953 9.90272 2.95923C9.67745 2.99862 9.44911 3.02263 9.22569 3.0694C8.83116 3.15188 8.59051 3.40484 8.51727 3.79506C8.41325 4.34899 8.33016 4.906 8.23846 5.46239C8.22307 5.46547 8.2083 5.46855 8.19291 5.47163V5.47101Z" fill="#94A3B8"/>
<path d="M8.19291 5.47101C8.13136 5.1208 8.07105 4.77059 8.00765 4.42038C7.96272 4.17112 7.92825 3.91938 7.86486 3.67504C7.77069 3.3119 7.51465 3.12049 7.14967 3.06079C6.6419 2.97708 6.13413 2.88968 5.62697 2.80167C5.58266 2.79367 5.5408 2.77028 5.46387 2.74074C6.04242 2.64349 6.5822 2.55486 7.12136 2.46192C7.64082 2.37206 7.85809 2.09817 7.95718 1.43715C8.02119 1.00877 8.0969 0.582245 8.16952 0.155101C8.17568 0.118172 8.19476 0.0830899 8.2243 0C8.3357 0.625944 8.43295 1.20142 8.5425 1.77443C8.61082 2.1308 8.83116 2.35791 9.18937 2.42684C9.76485 2.53824 10.3428 2.63672 10.925 2.77336C10.5841 2.83552 10.2437 2.89953 9.90272 2.95923C9.67745 2.99862 9.44911 3.02263 9.22569 3.0694C8.83116 3.15188 8.59051 3.40484 8.51727 3.79506C8.41325 4.34899 8.33016 4.906 8.23846 5.46239C8.22307 5.46547 8.2083 5.46855 8.19291 5.47163V5.47101Z" fill="white"/>
</g>
<defs>
<clipPath id="clip0_249_6464">
<rect width="20.2463" height="24.6316" fill="white"/>
</clipPath>
</defs>
</svg>
