<svg width="32" height="36" viewBox="0 0 32 36" fill="none" xmlns="http://www.w3.org/2000/svg">
<path fill-rule="evenodd" clip-rule="evenodd" d="M31.1588 20.2457V20.2456V20.2455C31.1601 19.4722 31.1614 18.699 31.1614 17.9259C31.1614 17.3619 31.1616 16.7978 31.1618 16.2335V16.233V16.232C31.1625 14.3977 31.1632 12.5617 31.1566 10.7263C31.1566 9.4238 30.6345 8.39501 29.5216 7.73546C25.4309 5.31677 21.339 2.90069 17.2457 0.487195C16.1138 -0.181126 14.9742 -0.150925 13.8528 0.510577C9.84659 2.88445 5.83658 5.25118 1.82275 7.61076C0.59554 8.33266 -0.00567642 9.37314 4.03836e-05 10.8345C0.0165556 15.54 0.0165556 20.2452 4.03836e-05 24.9501C4.03836e-05 26.4085 0.598399 27.447 1.83037 28.1689C5.79529 30.4876 9.74909 32.8215 13.6918 35.1707C14.9333 35.9102 16.1348 35.9501 17.3801 35.2116C21.3571 32.8495 25.3398 30.4993 29.3282 28.1611C30.5773 27.4285 31.1718 26.353 31.1614 24.8858C31.1537 23.3393 31.1563 21.7924 31.1588 20.2457ZM29.267 17.2884L29.2672 17.9103V17.9142C29.2672 18.561 29.2659 19.2078 29.2647 19.8545V19.855V19.8551C29.2614 21.5284 29.2582 23.2015 29.2767 24.8751C29.2824 25.6184 29.0147 26.1192 28.3735 26.4952C27.7454 26.8648 27.1174 27.2345 26.4894 27.6043C26.595 27.3875 26.6817 27.1523 26.7491 26.8988C27.5971 23.696 28.4365 20.4926 29.267 17.2884ZM29.2648 13.0797C29.2658 12.3375 29.2681 11.5952 29.2729 10.853C29.2729 10.1506 29.0271 9.66151 28.4154 9.30397C26.258 8.04073 24.1028 6.77355 21.9496 5.50243C24.2459 7.8452 26.5384 10.1906 28.8271 12.5386C28.9952 12.7116 29.1411 12.8922 29.2648 13.0797ZM18.3655 3.38175C17.7062 2.99077 17.0471 2.59941 16.3882 2.20768C15.8394 1.88229 15.3335 1.87547 14.778 2.20768C12.6036 3.49511 10.428 4.78006 8.25139 6.06255C11.3828 5.19873 14.5156 4.34121 17.6498 3.48998C17.8841 3.42798 18.124 3.39173 18.3655 3.38175ZM4.6753 8.16679C4.01769 8.55322 3.35999 8.93942 2.70218 9.3254C2.10954 9.67418 1.88658 10.1681 1.88849 10.8501C1.89469 13.3922 1.89753 15.9345 1.897 18.477C2.29348 16.9704 2.68726 15.463 3.08106 13.9555L3.0812 13.955C3.52084 12.272 3.96051 10.589 4.404 8.9067C4.47412 8.64044 4.56458 8.39369 4.6753 8.16679ZM22.9146 29.7116C19.8169 30.5583 16.7201 31.4074 13.6242 32.259C13.3422 32.3371 13.0682 32.3842 12.8025 32.4001L14.8123 33.5857C15.3477 33.9023 15.8546 33.8847 16.3844 33.571C18.5603 32.2829 20.737 30.9965 22.9146 29.7116ZM9.21026 30.2815C6.92539 27.9608 4.64903 25.6323 2.3812 23.2961C2.19157 23.1004 2.02885 22.8964 1.89307 22.6844C1.89183 23.4283 1.8903 24.1721 1.88849 24.916C1.88849 25.6681 2.17433 26.1611 2.81652 26.5215C3.66659 26.9972 4.50398 27.4964 5.34121 27.9955L5.34124 27.9956L5.34126 27.9956L5.3413 27.9956L5.34134 27.9956C5.69584 28.207 6.05031 28.4183 6.40572 28.6278L9.21026 30.2815ZM27.7602 14.3214C27.842 14.5053 27.8872 14.704 27.8934 14.906C27.8562 15.2805 27.7487 15.6629 27.6403 16.0489L27.6402 16.049L27.6402 16.0491C27.6014 16.1873 27.5625 16.3259 27.5266 16.4648C27.2687 17.4566 27.0095 18.4482 26.7499 19.4396C26.0113 16.5818 25.2654 13.7258 24.5122 10.8715C25.4801 11.8597 26.4483 12.8473 27.417 13.8343C27.5618 13.9719 27.6784 14.1374 27.7602 14.3214ZM14.299 6.40802C16.9634 7.12766 19.6242 7.85573 22.2813 8.59224C21.3647 7.6551 20.4485 6.7175 19.5326 5.77942C19.1248 5.36148 18.6512 5.21826 18.1034 5.3683L14.299 6.40802ZM5.25544 13.1375C7.13897 11.1974 9.02728 9.26214 10.9204 7.33178L7.35291 8.30754C6.74217 8.47414 6.37248 8.84824 6.20955 9.47662C5.89212 10.6972 5.57408 11.9176 5.25544 13.1375ZM6.41679 24.6716C5.71347 22.0168 5.01492 19.3621 4.32113 16.7073C3.99304 17.9582 3.66431 19.2088 3.33496 20.4591C3.18822 21.0154 3.30637 21.4889 3.69607 21.8883C4.60283 22.8163 5.50973 23.7441 6.41679 24.6716ZM11.6443 30.0124C10.6925 29.0408 9.74075 28.0688 8.78921 27.0966C11.5068 27.8466 14.2243 28.594 16.9419 29.3389C15.6544 29.6923 14.3672 30.0467 13.0802 30.4021C12.5123 30.555 12.0464 30.4235 11.6443 30.0124ZM26.0233 22.2116C25.6681 23.5668 25.3132 24.9222 24.9607 26.2782C24.8035 26.8851 24.469 27.2846 23.8735 27.4473C22.5217 27.8141 21.1701 28.1821 19.8188 28.5512C21.8893 26.4407 23.9575 24.3275 26.0233 22.2116ZM24.9902 20.2204C24.9854 20.1987 24.9803 20.1743 24.9749 20.1482L24.9749 20.1481C24.9607 20.0806 24.9441 20.0009 24.9235 19.9223C24.6455 18.8617 24.3676 17.8006 24.0897 16.7392C24.0899 16.7691 24.09 16.7989 24.0902 16.8287C24.0919 17.1773 24.0936 17.5259 24.0936 17.8745V21.3817C24.0936 21.3992 24.0935 21.4166 24.0932 21.434C24.3004 21.2226 24.5076 21.0113 24.7148 20.8001C24.8682 20.6471 24.9912 20.4854 24.9902 20.2204ZM22.8909 12.1548C22.8322 12.1157 22.7713 12.0777 22.7082 12.0408C21.5816 11.3816 20.4571 10.7172 19.3325 10.0526C19.0566 9.88958 18.7806 9.72652 18.5046 9.56352C19.6652 9.8812 20.8259 10.1981 21.987 10.5142C22.3309 10.6077 22.532 10.7899 22.6273 11.1455C22.7151 11.482 22.803 11.8184 22.8909 12.1548ZM18.3882 27.2709C19.1397 26.4998 19.8915 25.7292 20.6438 24.959C19.3776 25.7092 18.109 26.4548 16.838 27.1959C16.7969 27.2202 16.7558 27.2433 16.7146 27.2652C17.0012 27.3443 17.2879 27.4235 17.5746 27.5028C17.9061 27.5944 18.1462 27.5154 18.3882 27.2709ZM12.4701 26.0958C11.2798 25.7686 10.0893 25.442 8.89836 25.1159C8.5887 25.0351 8.42291 24.848 8.34002 24.5314C8.24836 24.18 8.15662 23.8287 8.0648 23.4774C8.14559 23.5378 8.23129 23.5949 8.32191 23.6488C9.70268 24.4661 11.0854 25.2818 12.4701 26.0958ZM6.00947 15.6659C6.36387 17.0039 6.7171 18.3421 7.06916 19.6803C7.06407 17.8954 7.06655 16.1098 7.0766 14.3234C7.07739 14.2066 7.08446 14.093 7.0977 13.9829C6.80617 14.2803 6.51456 14.5776 6.22289 14.8748C6.11541 14.9708 6.03787 15.0969 5.99993 15.2376C5.96198 15.3782 5.9653 15.5272 6.00947 15.6659ZM12.5847 8.37086C11.6351 9.34476 10.6848 10.318 9.73377 11.2906C11.2456 10.3975 12.7584 9.50579 14.2721 8.61542C14.3609 8.56314 14.4498 8.51615 14.5387 8.47446C14.1602 8.3702 13.7817 8.26584 13.4032 8.1614C13.0745 8.0708 12.8248 8.12438 12.5847 8.37086ZM22.186 16.9251C22.187 17.2417 22.188 17.5582 22.188 17.8745L22.1861 17.8755C22.1861 18.1668 22.1855 18.4581 22.1849 18.7493C22.183 19.5934 22.1812 20.4368 22.1947 21.2785C22.2078 21.4392 22.173 21.6002 22.0947 21.7402C22.0164 21.8802 21.8985 21.9927 21.7564 22.0627C19.8559 23.1707 17.9617 24.2901 16.0739 25.4209C15.728 25.6323 15.4441 25.6235 15.1039 25.4209C13.2282 24.3018 11.347 23.1918 9.4605 22.091C9.1032 21.8825 8.95552 21.6126 8.95552 21.1878C8.96886 18.9841 8.96886 16.7782 8.95552 14.5699C8.95266 14.1412 9.1194 13.8841 9.47575 13.6765C11.3369 12.5958 13.1904 11.5017 15.0363 10.3944C15.425 10.1596 15.7376 10.1567 16.133 10.3944C17.9928 11.5102 19.8603 12.612 21.7354 13.6999C22.067 13.8928 22.2013 14.1276 22.1947 14.5173C22.181 15.3182 22.1835 16.1217 22.186 16.9251Z" fill="white"/>
</svg>
