<svg width="122" height="94" viewBox="0 0 122 94" fill="none" xmlns="http://www.w3.org/2000/svg">
<path d="M114.94 5.88651V81.8919C114.94 84.5716 112.735 86.7784 110.057 86.7784H5.88299C3.20522 86.7784 1 84.5716 1 81.8919V5.88651C1 3.20681 3.20522 1 5.88299 1H110.057C112.735 1 114.94 3.20681 114.94 5.88651Z" fill="white" stroke="#D6DCE8" stroke-width="2" stroke-miterlimit="10"/>
<path d="M114.94 5.88651V9.43317H1V5.88651C1 3.20681 3.20522 1 5.88299 1H110.057C112.735 1 114.94 3.20681 114.94 5.88651Z" fill="#D6DCE8"/>
<path d="M5.79425 6.7535C6.62069 6.7535 7.29066 6.08306 7.29066 5.25602C7.29066 4.42899 6.62069 3.75854 5.79425 3.75854C4.96781 3.75854 4.29785 4.42899 4.29785 5.25602C4.29785 6.08306 4.96781 6.7535 5.79425 6.7535Z" fill="#AAB2C5"/>
<path opacity="0.6" d="M10.4407 6.7535C11.2672 6.7535 11.9371 6.08306 11.9371 5.25602C11.9371 4.42899 11.2672 3.75854 10.4407 3.75854C9.6143 3.75854 8.94434 4.42899 8.94434 5.25602C8.94434 6.08306 9.6143 6.7535 10.4407 6.7535Z" fill="#AAB2C5"/>
<path opacity="0.4" d="M15.1663 6.7535C15.9928 6.7535 16.6627 6.08306 16.6627 5.25602C16.6627 4.42899 15.9928 3.75854 15.1663 3.75854C14.3399 3.75854 13.6699 4.42899 13.6699 5.25602C13.6699 6.08306 14.3399 6.7535 15.1663 6.7535Z" fill="#AAB2C5"/>
<rect x="11.2837" y="17.061" width="20.3488" height="4.84496" rx="1" fill="#D6DCE8"/>
<rect x="78.144" y="17.061" width="11.6279" height="2.90698" rx="1" fill="#D6DCE8"/>
<rect x="93.6479" y="17.061" width="11.6279" height="2.90698" rx="1" fill="#D6DCE8"/>
<rect x="11.2837" y="28.689" width="93.9922" height="25.1938" rx="2" fill="#F1F3F9" stroke="#D6DCE8" stroke-width="2" stroke-miterlimit="10"/>
<path d="M60.5993 38.423C61.1701 38.423 61.6327 37.9341 61.6327 37.3312C61.6327 36.7282 61.1701 36.2394 60.5993 36.2394C60.0286 36.2394 59.5659 36.7282 59.5659 37.3312C59.5659 37.9341 60.0286 38.423 60.5993 38.423Z" fill="#AAB2C5"/>
<path d="M60.6598 45.5116H52.7757C52.267 45.5116 51.9703 44.888 52.267 44.487L56.2091 38.6962C56.4634 38.3399 56.972 38.3399 57.2264 38.6962L61.1684 44.487C61.4651 44.9325 61.1684 45.5116 60.6598 45.5116Z" fill="#AAB2C5"/>
<path opacity="0.7" d="M63.4046 45.3935H59.5244C58.9349 45.3935 58.6402 44.746 58.9349 44.2978L60.8505 41.5585C61.1452 41.16 61.6855 41.16 61.9802 41.5585L63.8958 44.2978C64.3378 44.746 63.994 45.3935 63.4046 45.3935Z" fill="#AAB2C5"/>
<rect x="11.2837" y="58.7278" width="29.0698" height="18.4109" rx="2" fill="#F1F3F9" stroke="#D6DCE8" stroke-width="2" stroke-miterlimit="10"/>
<rect x="44.2295" y="58.7278" width="28.1008" height="18.4109" rx="2" fill="#F1F3F9" stroke="#D6DCE8" stroke-width="2" stroke-miterlimit="10"/>
<rect x="76.2061" y="58.7278" width="29.0698" height="18.4109" rx="2" fill="#F1F3F9" stroke="#D6DCE8" stroke-width="2" stroke-miterlimit="10"/>
<rect x="22.9116" y="2.52625" width="70.7364" height="4.84496" rx="2" fill="#AAB2C5"/>
<path d="M117.118 82.4092C116.926 82.696 116.831 82.8872 116.448 83.0785L112.042 84.895C111.371 85.1818 110.701 85.5642 110.222 86.0422C109.743 86.5202 109.36 86.9983 109.264 87.6675L107.445 92.0654C107.253 92.7346 106.487 93.0214 106.008 92.7346C105.816 92.5434 105.529 92.4478 105.529 92.2566L97.005 73.5179C96.8134 73.2311 96.8134 72.8487 97.005 72.6575C97.1965 72.3707 97.6754 72.1795 98.1543 72.3707L116.926 80.8795C117.118 81.262 117.31 81.9312 117.118 82.4092Z" fill="#AAB2C5"/>
<path d="M120.375 93.8819C120.183 93.8819 120.088 93.8819 119.896 93.6907L113.766 87.4763C113.479 87.1895 113.479 86.6159 113.766 86.5203C114.054 86.2335 114.628 86.2335 114.724 86.5203L120.854 92.639C121.141 92.9258 121.141 93.4995 120.854 93.5951C120.854 93.8819 120.566 93.8819 120.375 93.8819Z" fill="#AAB2C5"/>
<path d="M114.149 93.8819C113.958 93.8819 113.862 93.8819 113.67 93.6907L110.893 90.9181C110.605 90.6313 110.605 90.0577 110.893 89.9621C111.18 89.6752 111.755 89.6752 111.851 89.9621L114.628 92.7346C114.915 93.0214 114.915 93.5951 114.628 93.6907C114.628 93.8819 114.532 93.8819 114.149 93.8819Z" fill="#AAB2C5"/>
</svg>
